{"glyphs":{"0":{"ha":639,"x_min":65,"x_max":574,"o":"m 311 -10 q 215 1 260 -10 q 137 43 171 11 q 84 142 103 75 q 65 321 65 208 q 86 503 65 436 q 144 601 107 569 q 228 642 181 633 q 326 651 275 651 q 423 641 378 651 q 502 599 468 631 q 555 500 536 567 q 574 321 574 433 q 552 139 574 206 q 494 40 531 72 q 411 -1 458 8 q 311 -10 364 -10 m 318 15 q 410 26 369 15 q 480 67 451 36 q 524 158 508 97 q 539 319 539 219 q 524 482 539 421 q 480 574 508 543 q 410 616 451 606 q 318 626 369 626 q 226 616 267 626 q 158 574 186 606 q 116 482 131 543 q 101 319 101 421 q 116 158 101 219 q 158 67 131 97 q 226 26 186 36 q 318 15 267 15 z "},"1":{"ha":333,"x_min":57,"x_max":224,"o":"m 188 0 l 188 543 q 174 604 188 592 q 136 617 161 617 q 89 609 114 617 q 57 597 64 601 l 57 622 q 97 634 68 626 q 156 642 125 642 q 196 632 181 642 q 217 601 211 622 q 224 549 224 581 l 222 0 l 188 0 z "},"2":{"ha":611,"x_min":72,"x_max":547,"o":"m 72 0 q 72 66 72 33 q 72 132 72 99 q 87 231 72 194 q 128 286 101 268 q 192 310 156 304 q 272 315 229 315 q 324 315 299 315 q 376 315 350 315 q 474 348 436 315 q 511 464 511 381 q 484 567 511 535 q 408 610 457 600 q 363 617 388 615 q 308 618 338 618 q 229 614 274 618 q 149 599 185 610 q 119 589 133 594 q 94 576 104 583 q 79 561 85 569 q 79 568 79 563 q 79 580 79 574 q 79 586 79 586 q 101 612 79 601 q 157 629 124 622 q 226 640 190 636 q 290 643 263 643 q 419 633 361 643 q 513 586 478 624 q 547 464 547 549 q 522 353 547 392 q 458 301 496 315 q 379 288 419 288 q 323 288 351 288 q 265 288 294 288 q 179 276 215 288 q 124 233 143 265 q 106 139 106 201 l 106 28 l 547 28 l 547 0 l 72 0 z "},"3":{"ha":599,"x_min":33,"x_max":528,"o":"m 268 -10 q 190 -7 233 -10 q 110 1 147 -4 q 53 14 72 6 q 37 26 40 18 q 35 43 33 33 l 36 50 q 124 24 68 35 q 265 14 181 14 q 389 26 338 14 q 468 74 440 39 q 496 175 496 108 q 481 263 496 235 q 440 301 465 292 q 383 310 414 310 l 119 310 l 119 338 l 383 338 q 453 367 428 338 q 479 467 479 397 q 458 563 479 531 q 398 606 438 594 q 299 619 358 618 q 281 619 290 619 q 261 619 272 619 q 176 614 219 619 q 101 601 133 608 q 57 586 69 593 l 57 599 q 63 614 57 610 q 85 624 68 618 q 160 637 104 631 q 283 643 215 643 q 430 624 381 643 q 497 567 479 606 q 514 465 514 528 q 492 368 514 404 q 436 326 471 332 l 436 325 q 501 294 475 324 q 528 174 528 264 q 501 62 528 101 q 418 6 475 22 q 268 -10 361 -10 z "},"4":{"ha":601,"x_min":19,"x_max":546,"o":"m 432 0 l 432 158 l 19 158 l 19 182 l 399 610 q 419 628 410 622 q 441 637 429 635 q 467 639 453 639 q 466 629 467 638 q 465 613 465 621 q 465 599 465 604 l 465 182 l 546 182 l 546 158 l 465 158 l 465 0 l 432 0 m 61 182 l 432 182 l 432 606 l 428 600 l 67 189 l 61 182 z "},"5":{"ha":621,"x_min":61,"x_max":556,"o":"m 556 196 q 541 94 556 133 q 495 31 526 54 q 415 -1 464 8 q 297 -10 367 -10 q 163 -3 224 -10 q 79 14 103 4 q 68 22 72 18 q 63 33 64 26 q 63 47 61 39 l 64 53 q 153 27 96 38 q 294 17 210 17 q 417 31 365 17 q 496 83 468 44 q 524 196 524 122 q 507 299 524 264 q 444 348 490 335 q 310 361 397 361 q 242 360 276 361 q 176 356 207 358 q 121 349 144 353 q 85 343 97 346 l 85 639 l 544 639 l 544 613 l 117 613 l 117 375 q 156 379 133 378 q 206 382 179 381 q 263 384 233 383 q 322 385 293 385 q 471 369 421 385 q 538 313 521 354 q 556 196 556 272 z "},"6":{"ha":613,"x_min":68,"x_max":551,"o":"m 303 -6 q 177 6 224 -6 q 107 49 131 17 q 76 143 83 81 q 68 307 68 206 q 79 483 68 417 q 119 584 90 550 q 201 630 149 618 q 336 642 254 642 q 434 638 385 642 q 504 628 483 635 q 530 611 528 622 q 533 589 532 600 q 526 592 531 590 q 516 597 522 594 q 500 600 510 599 q 453 609 481 606 q 392 614 425 613 q 322 615 360 615 q 201 601 246 615 q 136 556 157 588 q 108 467 115 524 q 105 430 107 453 q 102 388 103 407 q 101 361 101 368 q 192 374 140 369 q 299 382 244 379 q 400 383 354 385 q 463 374 435 382 q 510 347 490 365 q 541 294 531 328 q 551 206 551 260 q 539 101 551 143 q 497 37 526 60 q 420 4 468 14 q 303 -6 372 -6 m 301 19 q 422 32 374 19 q 494 85 469 44 q 519 208 519 125 q 508 291 519 260 q 469 338 496 322 q 396 358 442 354 q 320 360 365 361 q 229 355 275 358 q 148 347 183 351 q 101 340 113 343 q 101 299 101 331 q 102 231 101 267 q 104 171 103 194 q 132 73 110 106 q 196 30 154 40 q 301 19 238 19 z "},"7":{"ha":533,"x_min":28,"x_max":488,"o":"m 151 0 l 449 615 l 28 615 l 28 639 l 461 639 q 483 629 479 639 q 479 604 488 619 q 421 484 450 544 q 362 363 392 424 q 302 242 332 303 q 243 120 272 181 q 185 0 214 60 l 151 0 z "},"8":{"ha":608,"x_min":60,"x_max":549,"o":"m 304 -6 q 174 3 224 -6 q 101 34 125 13 q 68 91 76 56 q 60 181 60 126 q 86 287 60 242 q 156 336 113 332 q 98 378 121 339 q 75 482 75 418 q 96 578 75 543 q 167 627 117 613 q 304 642 217 642 q 415 634 371 642 q 484 608 458 626 q 521 558 510 589 q 532 482 532 528 q 510 378 532 418 q 451 336 488 339 q 525 287 501 332 q 549 181 549 242 q 540 92 549 128 q 507 34 532 56 q 433 3 482 13 q 304 -6 385 -6 m 271 21 l 338 21 q 474 47 433 21 q 515 161 515 74 q 501 265 515 231 q 449 310 488 299 q 338 321 411 321 l 271 321 q 160 310 199 321 q 106 265 121 299 q 92 161 92 231 q 133 47 92 74 q 271 21 175 21 m 304 347 q 424 356 381 347 q 485 393 467 364 q 503 482 503 422 q 486 560 503 531 q 426 602 469 589 q 304 615 383 615 q 183 602 225 615 q 124 560 140 589 q 107 482 107 531 q 125 393 107 422 q 186 356 143 364 q 304 347 229 347 z "},"9":{"ha":613,"x_min":61,"x_max":544,"o":"m 78 39 q 151 26 96 32 q 281 19 206 19 q 407 32 361 19 q 475 78 453 44 q 506 175 497 111 q 510 213 508 190 q 512 254 511 235 q 513 279 513 274 q 461 272 490 276 q 400 265 432 268 q 328 259 365 261 q 257 257 292 257 q 106 293 151 257 q 61 433 61 329 q 87 567 61 522 q 168 628 113 613 q 310 644 224 644 q 443 631 396 644 q 513 582 490 617 q 540 487 535 547 q 544 335 544 426 q 538 184 544 244 q 517 88 532 124 q 479 33 503 51 q 421 6 456 14 q 351 -4 393 -1 q 265 -7 308 -7 q 169 -4 214 -7 q 106 3 125 -1 q 85 12 92 6 q 78 31 78 18 l 78 39 m 514 303 q 514 393 514 351 q 511 469 514 435 q 483 565 506 532 q 416 609 460 597 q 304 621 372 621 q 190 607 238 621 q 118 556 143 593 q 93 447 93 519 q 110 344 93 379 q 169 295 128 308 q 281 282 210 282 q 375 285 326 282 q 463 294 424 289 q 514 303 501 300 z "}," ":{"ha":336,"x_min":0,"x_max":0,"o":""}," ":{"ha":336,"x_min":0,"x_max":0,"o":""},"A":{"ha":635,"x_min":35,"x_max":599,"o":"m 35 0 l 199 554 q 233 622 211 599 q 314 644 256 644 q 394 624 372 644 q 429 554 415 603 l 599 0 l 564 0 l 504 196 l 122 196 l 64 0 l 35 0 m 129 221 l 497 221 l 396 551 q 373 598 388 578 q 313 618 358 618 q 247 597 263 618 q 225 551 232 576 l 129 221 z "},"Æ":{"ha":986,"x_min":0,"x_max":957,"o":"m 0 0 q 67 110 33 56 q 133 220 100 165 q 199 330 165 275 q 265 440 232 385 q 332 550 299 494 q 378 609 356 590 q 423 633 401 628 q 464 639 444 639 l 957 639 q 957 626 957 632 q 957 613 957 619 l 479 613 l 479 353 l 919 353 l 919 326 q 700 326 810 326 q 479 326 590 326 l 479 26 l 957 26 l 957 0 q 701 0 829 0 q 446 0 574 0 l 446 196 l 149 196 q 89 98 118 147 q 31 0 60 49 l 0 0 m 164 221 q 306 221 235 221 q 446 221 376 221 q 446 416 446 319 q 446 610 446 513 q 442 610 444 610 q 438 610 440 610 q 395 592 413 610 q 363 550 378 575 q 263 385 313 468 q 164 221 214 303 z "},"Ǽ":{"ha":986,"x_min":0,"x_max":957,"o":"m 0 0 q 67 110 33 56 q 133 220 100 165 q 199 330 165 275 q 265 440 232 385 q 332 550 299 494 q 378 609 356 590 q 423 633 401 628 q 464 639 444 639 l 957 639 q 957 626 957 632 q 957 613 957 619 l 479 613 l 479 353 l 919 353 l 919 326 q 700 326 810 326 q 479 326 590 326 l 479 26 l 957 26 l 957 0 q 701 0 829 0 q 446 0 574 0 l 446 196 l 149 196 q 89 98 118 147 q 31 0 60 49 l 0 0 m 164 221 q 306 221 235 221 q 446 221 376 221 q 446 416 446 319 q 446 610 446 513 q 442 610 444 610 q 438 610 440 610 q 395 592 413 610 q 363 550 378 575 q 263 385 313 468 q 164 221 214 303 m 475 724 l 610 867 l 635 840 l 496 724 l 475 724 z "},"Á":{"ha":635,"x_min":35,"x_max":599,"o":"m 35 0 l 199 554 q 233 622 211 599 q 314 644 256 644 q 394 624 372 644 q 429 554 415 603 l 599 0 l 564 0 l 504 196 l 122 196 l 64 0 l 35 0 m 129 221 l 497 221 l 396 551 q 373 598 388 578 q 313 618 358 618 q 247 597 263 618 q 225 551 232 576 l 129 221 m 288 724 l 418 840 l 442 814 l 308 724 l 288 724 z "},"Ă":{"ha":635,"x_min":35,"x_max":599,"o":"m 35 0 l 199 554 q 233 622 211 599 q 314 644 256 644 q 394 624 372 644 q 429 554 415 603 l 599 0 l 564 0 l 504 196 l 122 196 l 64 0 l 35 0 m 129 221 l 497 221 l 396 551 q 373 598 388 578 q 313 618 358 618 q 247 597 263 618 q 225 551 232 576 l 129 221 m 318 724 q 259 731 288 724 q 211 761 231 738 q 190 832 192 785 l 190 839 l 218 839 l 218 833 q 224 793 218 814 q 251 759 231 772 q 315 746 272 746 q 381 759 360 746 q 410 792 403 772 q 417 833 417 813 l 417 839 l 442 839 l 442 833 q 423 762 442 785 q 376 732 404 739 q 318 724 349 725 z "},"Ắ":{"ha":635,"x_min":35,"x_max":599,"o":"m 35 0 l 199 554 q 233 622 211 599 q 314 644 256 644 q 394 624 372 644 q 429 554 415 603 l 599 0 l 564 0 l 504 196 l 122 196 l 64 0 l 35 0 m 129 221 l 497 221 l 396 551 q 373 598 388 578 q 313 618 358 618 q 247 597 263 618 q 225 551 232 576 l 129 221 m 318 724 q 259 731 288 724 q 211 761 231 738 q 190 832 192 785 l 190 839 l 218 839 l 218 833 q 224 793 218 814 q 251 759 231 772 q 315 746 272 746 q 381 759 360 746 q 410 792 403 772 q 417 833 417 813 l 417 839 l 442 839 l 442 833 q 423 762 442 785 q 376 732 404 739 q 318 724 349 725 m 288 867 l 418 983 l 442 957 l 308 867 l 288 867 z "},"Ặ":{"ha":635,"x_min":35,"x_max":599,"o":"m 35 0 l 199 554 q 233 622 211 599 q 314 644 256 644 q 394 624 372 644 q 429 554 415 603 l 599 0 l 564 0 l 504 196 l 122 196 l 64 0 l 35 0 m 129 221 l 497 221 l 396 551 q 373 598 388 578 q 313 618 358 618 q 247 597 263 618 q 225 551 232 576 l 129 221 m 318 -151 q 306 -150 313 -151 q 295 -144 300 -149 q 290 -129 290 -139 q 299 -110 290 -114 q 317 -106 307 -106 q 335 -109 328 -106 q 343 -129 343 -112 q 339 -144 343 -139 q 329 -150 335 -149 q 318 -151 324 -151 m 318 724 q 259 731 288 724 q 211 761 231 738 q 190 832 192 785 l 190 839 l 218 839 l 218 833 q 224 793 218 814 q 251 759 231 772 q 315 746 272 746 q 381 759 360 746 q 410 792 403 772 q 417 833 417 813 l 417 839 l 442 839 l 442 833 q 423 762 442 785 q 376 732 404 739 q 318 724 349 725 z "},"Ằ":{"ha":635,"x_min":35,"x_max":599,"o":"m 35 0 l 199 554 q 233 622 211 599 q 314 644 256 644 q 394 624 372 644 q 429 554 415 603 l 599 0 l 564 0 l 504 196 l 122 196 l 64 0 l 35 0 m 129 221 l 497 221 l 396 551 q 373 598 388 578 q 313 618 358 618 q 247 597 263 618 q 225 551 232 576 l 129 221 m 318 724 q 259 731 288 724 q 211 761 231 738 q 190 832 192 785 l 190 839 l 218 839 l 218 833 q 224 793 218 814 q 251 759 231 772 q 315 746 272 746 q 381 759 360 746 q 410 792 403 772 q 417 833 417 813 l 417 839 l 442 839 l 442 833 q 423 762 442 785 q 376 732 404 739 q 318 724 349 725 m 336 867 l 204 957 l 228 983 l 358 867 l 336 867 z "},"Ẳ":{"ha":635,"x_min":35,"x_max":599,"o":"m 35 0 l 199 554 q 233 622 211 599 q 314 644 256 644 q 394 624 372 644 q 429 554 415 603 l 599 0 l 564 0 l 504 196 l 122 196 l 64 0 l 35 0 m 129 221 l 497 221 l 396 551 q 373 598 388 578 q 313 618 358 618 q 247 597 263 618 q 225 551 232 576 l 129 221 m 318 724 q 259 731 288 724 q 211 761 231 738 q 190 832 192 785 l 190 839 l 218 839 l 218 833 q 224 793 218 814 q 251 759 231 772 q 315 746 272 746 q 381 759 360 746 q 410 792 403 772 q 417 833 417 813 l 417 839 l 442 839 l 442 833 q 423 762 442 785 q 376 732 404 739 q 318 724 349 725 m 304 867 l 304 879 q 315 900 304 894 q 338 909 325 906 q 362 919 351 913 q 372 942 372 925 l 372 944 q 360 981 372 971 q 322 992 347 992 q 278 957 288 992 l 256 963 q 278 999 261 986 q 325 1013 294 1013 q 379 999 361 1013 q 397 944 397 985 l 397 942 q 387 908 397 918 q 363 896 376 899 q 338 888 349 893 q 328 871 328 883 l 328 867 l 304 867 z "},"Ẵ":{"ha":635,"x_min":35,"x_max":599,"o":"m 35 0 l 199 554 q 233 622 211 599 q 314 644 256 644 q 394 624 372 644 q 429 554 415 603 l 599 0 l 564 0 l 504 196 l 122 196 l 64 0 l 35 0 m 129 221 l 497 221 l 396 551 q 373 598 388 578 q 313 618 358 618 q 247 597 263 618 q 225 551 232 576 l 129 221 m 318 724 q 259 731 288 724 q 211 761 231 738 q 190 832 192 785 l 190 839 l 218 839 l 218 833 q 224 793 218 814 q 251 759 231 772 q 315 746 272 746 q 381 759 360 746 q 410 792 403 772 q 417 833 417 813 l 417 839 l 442 839 l 442 833 q 423 762 442 785 q 376 732 404 739 q 318 724 349 725 m 379 864 q 336 876 357 864 q 294 899 315 888 q 251 910 272 910 q 216 897 229 910 q 197 872 203 883 l 182 883 q 188 897 183 888 q 202 915 193 906 q 224 933 211 925 q 254 940 236 940 q 297 928 276 940 q 338 903 318 915 q 378 892 358 892 q 419 908 406 892 q 436 935 432 924 l 451 921 q 445 908 450 917 q 432 889 440 899 q 410 872 424 879 q 379 864 397 864 z "},"Â":{"ha":635,"x_min":35,"x_max":599,"o":"m 35 0 l 199 554 q 233 622 211 599 q 314 644 256 644 q 394 624 372 644 q 429 554 415 603 l 599 0 l 564 0 l 504 196 l 122 196 l 64 0 l 35 0 m 129 221 l 497 221 l 396 551 q 373 598 388 578 q 313 618 358 618 q 247 597 263 618 q 225 551 232 576 l 129 221 m 199 724 l 304 840 l 329 840 l 436 724 l 411 724 l 317 815 l 222 724 l 199 724 z "},"Ấ":{"ha":635,"x_min":35,"x_max":599,"o":"m 35 0 l 199 554 q 233 622 211 599 q 314 644 256 644 q 394 624 372 644 q 429 554 415 603 l 599 0 l 564 0 l 504 196 l 122 196 l 64 0 l 35 0 m 129 221 l 497 221 l 396 551 q 373 598 388 578 q 313 618 358 618 q 247 597 263 618 q 225 551 232 576 l 129 221 m 199 724 l 304 840 l 329 840 l 436 724 l 411 724 l 317 815 l 222 724 l 199 724 m 433 819 l 564 936 l 588 910 l 454 819 l 433 819 z "},"Ậ":{"ha":635,"x_min":35,"x_max":599,"o":"m 35 0 l 199 554 q 233 622 211 599 q 314 644 256 644 q 394 624 372 644 q 429 554 415 603 l 599 0 l 564 0 l 504 196 l 122 196 l 64 0 l 35 0 m 129 221 l 497 221 l 396 551 q 373 598 388 578 q 313 618 358 618 q 247 597 263 618 q 225 551 232 576 l 129 221 m 318 -151 q 306 -150 313 -151 q 295 -144 300 -149 q 290 -129 290 -139 q 299 -110 290 -114 q 317 -106 307 -106 q 335 -109 328 -106 q 343 -129 343 -112 q 339 -144 343 -139 q 329 -150 335 -149 q 318 -151 324 -151 m 199 724 l 304 840 l 329 840 l 436 724 l 411 724 l 317 815 l 222 724 l 199 724 z "},"Ầ":{"ha":635,"x_min":35,"x_max":599,"o":"m 35 0 l 199 554 q 233 622 211 599 q 314 644 256 644 q 394 624 372 644 q 429 554 415 603 l 599 0 l 564 0 l 504 196 l 122 196 l 64 0 l 35 0 m 129 221 l 497 221 l 396 551 q 373 598 388 578 q 313 618 358 618 q 247 597 263 618 q 225 551 232 576 l 129 221 m 199 724 l 304 840 l 329 840 l 436 724 l 411 724 l 317 815 l 222 724 l 199 724 m 483 819 l 351 910 l 375 936 l 506 819 l 483 819 z "},"Ẩ":{"ha":635,"x_min":35,"x_max":599,"o":"m 35 0 l 199 554 q 233 622 211 599 q 314 644 256 644 q 394 624 372 644 q 429 554 415 603 l 599 0 l 564 0 l 504 196 l 122 196 l 64 0 l 35 0 m 129 221 l 497 221 l 396 551 q 373 598 388 578 q 313 618 358 618 q 247 597 263 618 q 225 551 232 576 l 129 221 m 199 724 l 304 840 l 329 840 l 436 724 l 411 724 l 317 815 l 222 724 l 199 724 m 444 797 l 444 810 q 455 831 444 825 q 478 840 465 836 q 502 849 492 843 q 513 872 513 856 l 513 875 q 500 912 513 901 q 463 922 488 922 q 418 888 428 922 l 396 893 q 418 930 401 917 q 465 943 435 943 q 519 929 501 943 q 538 875 538 915 l 538 872 q 527 839 538 849 q 503 826 517 829 q 478 819 489 824 q 468 801 468 814 l 468 797 l 444 797 z "},"Ẫ":{"ha":635,"x_min":35,"x_max":599,"o":"m 35 0 l 199 554 q 233 622 211 599 q 314 644 256 644 q 394 624 372 644 q 429 554 415 603 l 599 0 l 564 0 l 504 196 l 122 196 l 64 0 l 35 0 m 129 221 l 497 221 l 396 551 q 373 598 388 578 q 313 618 358 618 q 247 597 263 618 q 225 551 232 576 l 129 221 m 199 724 l 304 840 l 329 840 l 436 724 l 411 724 l 317 815 l 222 724 l 199 724 m 388 868 q 344 880 365 868 q 302 903 324 892 q 260 914 281 914 q 224 901 238 914 q 206 876 211 888 l 190 888 q 197 901 192 892 q 210 919 201 910 q 232 937 219 929 q 263 944 244 944 q 306 932 285 944 q 347 908 326 919 q 386 896 367 896 q 427 912 414 896 q 444 939 440 928 l 460 925 q 453 912 458 921 q 440 893 449 903 q 419 876 432 883 q 388 868 406 868 z "},"Ȁ":{"ha":635,"x_min":35,"x_max":599,"o":"m 35 0 l 199 554 q 233 622 211 599 q 314 644 256 644 q 394 624 372 644 q 429 554 415 603 l 599 0 l 564 0 l 504 196 l 122 196 l 64 0 l 35 0 m 129 221 l 497 221 l 396 551 q 373 598 388 578 q 313 618 358 618 q 247 597 263 618 q 225 551 232 576 l 129 221 m 275 722 l 153 842 l 183 865 l 296 722 l 275 722 m 378 722 l 272 854 l 301 875 l 399 722 l 378 722 z "},"Ä":{"ha":635,"x_min":35,"x_max":599,"o":"m 35 0 l 199 554 q 233 622 211 599 q 314 644 256 644 q 394 624 372 644 q 429 554 415 603 l 599 0 l 564 0 l 504 196 l 122 196 l 64 0 l 35 0 m 129 221 l 497 221 l 396 551 q 373 598 388 578 q 313 618 358 618 q 247 597 263 618 q 225 551 232 576 l 129 221 m 396 724 q 376 728 386 724 q 365 750 365 732 q 376 772 365 768 q 394 775 386 775 q 415 772 404 775 q 425 750 425 768 q 417 728 425 732 q 396 724 408 724 m 238 724 q 216 728 225 724 q 207 751 207 732 q 217 772 207 768 q 236 775 226 775 q 256 772 246 775 q 267 751 267 768 q 258 728 267 733 q 238 724 249 724 z "},"Ạ":{"ha":635,"x_min":35,"x_max":599,"o":"m 35 0 l 199 554 q 233 622 211 599 q 314 644 256 644 q 394 624 372 644 q 429 554 415 603 l 599 0 l 564 0 l 504 196 l 122 196 l 64 0 l 35 0 m 129 221 l 497 221 l 396 551 q 373 598 388 578 q 313 618 358 618 q 247 597 263 618 q 225 551 232 576 l 129 221 m 318 -151 q 306 -150 313 -151 q 295 -144 300 -149 q 290 -129 290 -139 q 299 -110 290 -114 q 317 -106 307 -106 q 335 -109 328 -106 q 343 -129 343 -112 q 339 -144 343 -139 q 329 -150 335 -149 q 318 -151 324 -151 z "},"À":{"ha":635,"x_min":35,"x_max":599,"o":"m 35 0 l 199 554 q 233 622 211 599 q 314 644 256 644 q 394 624 372 644 q 429 554 415 603 l 599 0 l 564 0 l 504 196 l 122 196 l 64 0 l 35 0 m 129 221 l 497 221 l 396 551 q 373 598 388 578 q 313 618 358 618 q 247 597 263 618 q 225 551 232 576 l 129 221 m 336 724 l 204 814 l 228 840 l 358 724 l 336 724 z "},"Ả":{"ha":635,"x_min":35,"x_max":599,"o":"m 35 0 l 199 554 q 233 622 211 599 q 314 644 256 644 q 394 624 372 644 q 429 554 415 603 l 599 0 l 564 0 l 504 196 l 122 196 l 64 0 l 35 0 m 129 221 l 497 221 l 396 551 q 373 598 388 578 q 313 618 358 618 q 247 597 263 618 q 225 551 232 576 l 129 221 m 304 724 l 304 736 q 315 757 304 751 q 338 766 325 763 q 362 776 351 769 q 372 799 372 782 l 372 801 q 360 838 372 828 q 322 849 347 849 q 278 814 288 849 l 256 819 q 278 856 261 843 q 325 869 294 869 q 379 856 361 869 q 397 801 397 842 l 397 799 q 387 765 397 775 q 363 753 376 756 q 338 745 349 750 q 328 728 328 740 l 328 724 l 304 724 z "},"Ȃ":{"ha":635,"x_min":35,"x_max":599,"o":"m 35 0 l 199 554 q 233 622 211 599 q 314 644 256 644 q 394 624 372 644 q 429 554 415 603 l 599 0 l 564 0 l 504 196 l 122 196 l 64 0 l 35 0 m 129 221 l 497 221 l 396 551 q 373 598 388 578 q 313 618 358 618 q 247 597 263 618 q 225 551 232 576 l 129 221 m 190 724 l 190 731 q 211 802 192 779 q 259 833 231 825 q 318 839 288 840 q 376 831 349 839 q 423 801 404 824 q 442 729 442 778 l 442 724 l 417 724 l 417 729 q 410 770 417 750 q 381 803 403 790 q 315 817 360 817 q 251 803 272 817 q 224 770 231 790 q 218 729 218 750 l 218 724 l 190 724 z "},"Ā":{"ha":635,"x_min":35,"x_max":599,"o":"m 35 0 l 199 554 q 233 622 211 599 q 314 644 256 644 q 394 624 372 644 q 429 554 415 603 l 599 0 l 564 0 l 504 196 l 122 196 l 64 0 l 35 0 m 129 221 l 497 221 l 396 551 q 373 598 388 578 q 313 618 358 618 q 247 597 263 618 q 225 551 232 576 l 129 221 m 181 725 l 181 744 l 454 744 l 454 725 l 181 725 z "},"Ą":{"ha":635,"x_min":35,"x_max":604,"o":"m 35 0 l 199 554 q 233 622 211 599 q 314 644 256 644 q 394 624 372 644 q 429 554 415 603 l 599 0 l 564 0 l 504 196 l 122 196 l 64 0 l 35 0 m 129 221 l 497 221 l 396 551 q 373 598 388 578 q 313 618 358 618 q 247 597 263 618 q 225 551 232 576 l 129 221 m 553 -235 q 483 -228 511 -235 q 440 -201 454 -221 q 425 -146 425 -182 q 442 -92 425 -118 q 481 -45 458 -67 q 527 -8 504 -24 q 563 15 550 8 l 592 15 q 560 -5 582 11 q 514 -43 538 -21 q 473 -90 490 -65 q 456 -137 456 -115 q 481 -199 456 -185 q 549 -214 506 -214 q 572 -213 560 -214 q 592 -212 583 -212 q 604 -211 601 -211 q 601 -225 604 -219 q 587 -233 597 -231 q 553 -235 576 -235 z "},"Å":{"ha":635,"x_min":35,"x_max":599,"o":"m 35 0 l 199 554 q 233 622 211 599 q 314 644 256 644 q 394 624 372 644 q 429 554 415 603 l 599 0 l 564 0 l 504 196 l 122 196 l 64 0 l 35 0 m 129 221 l 497 221 l 396 551 q 373 598 388 578 q 313 618 358 618 q 247 597 263 618 q 225 551 232 576 l 129 221 m 317 725 q 265 732 283 725 q 240 751 247 739 q 233 782 233 764 q 240 813 233 800 q 265 831 247 825 q 317 838 283 838 q 369 831 351 838 q 394 813 388 825 q 400 782 400 800 q 394 751 400 764 q 369 732 388 739 q 317 725 351 725 m 317 743 q 360 751 344 743 q 375 782 375 758 q 360 813 375 806 q 317 821 344 821 q 274 813 290 821 q 258 782 258 806 q 274 751 258 758 q 317 743 289 743 z "},"Ǻ":{"ha":635,"x_min":35,"x_max":599,"o":"m 35 0 l 199 554 q 233 622 211 599 q 314 644 256 644 q 394 624 372 644 q 429 554 415 603 l 599 0 l 564 0 l 504 196 l 122 196 l 64 0 l 35 0 m 129 221 l 497 221 l 396 551 q 373 598 388 578 q 313 618 358 618 q 247 597 263 618 q 225 551 232 576 l 129 221 m 317 725 q 265 732 283 725 q 240 751 247 739 q 233 782 233 764 q 240 813 233 800 q 265 831 247 825 q 317 838 283 838 q 369 831 351 838 q 394 813 388 825 q 400 782 400 800 q 394 751 400 764 q 369 732 388 739 q 317 725 351 725 m 317 743 q 360 751 344 743 q 375 782 375 758 q 360 813 375 806 q 317 821 344 821 q 274 813 290 821 q 258 782 258 806 q 274 751 258 758 q 317 743 289 743 m 288 882 l 418 999 l 442 972 l 308 882 l 288 882 z "},"Ã":{"ha":635,"x_min":35,"x_max":599,"o":"m 35 0 l 199 554 q 233 622 211 599 q 314 644 256 644 q 394 624 372 644 q 429 554 415 603 l 599 0 l 564 0 l 504 196 l 122 196 l 64 0 l 35 0 m 129 221 l 497 221 l 396 551 q 373 598 388 578 q 313 618 358 618 q 247 597 263 618 q 225 551 232 576 l 129 221 m 379 721 q 336 733 357 721 q 294 756 315 744 q 251 767 272 767 q 216 753 229 767 q 197 729 203 740 l 182 740 q 188 753 183 744 q 202 772 193 763 q 224 790 211 782 q 254 797 236 797 q 297 785 276 797 q 338 760 318 772 q 378 749 358 749 q 419 765 406 749 q 436 792 432 781 l 451 778 q 445 765 450 774 q 432 746 440 756 q 410 728 424 736 q 379 721 397 721 z "},"B":{"ha":781,"x_min":129,"x_max":688,"o":"m 408 -4 q 277 -3 332 -4 q 186 -2 222 -3 q 129 0 150 -1 l 129 575 q 147 626 129 615 q 194 639 164 638 q 233 640 213 639 q 276 641 254 640 q 322 642 299 642 q 369 642 346 642 q 423 641 397 642 q 472 640 449 640 q 514 638 496 639 q 628 591 594 631 q 661 483 661 551 q 644 397 661 429 q 601 349 626 364 q 554 331 576 335 q 595 326 572 331 q 639 308 618 322 q 674 260 660 293 q 688 171 688 228 q 660 69 688 106 q 591 18 633 33 q 500 -1 549 3 q 408 -4 451 -4 m 407 22 q 494 25 451 22 q 574 41 538 28 q 631 85 610 54 q 653 172 653 117 q 616 283 653 253 q 475 313 579 313 l 246 313 q 227 319 232 313 q 222 340 222 326 l 474 340 q 547 351 513 340 q 604 394 582 363 q 626 486 626 426 q 600 573 626 540 q 514 611 574 606 q 442 615 482 614 q 364 617 403 617 q 270 616 314 617 q 200 614 226 615 q 173 606 183 614 q 163 575 163 597 l 163 25 q 183 24 167 25 q 230 23 200 24 q 303 22 260 22 q 407 22 347 22 z "},"C":{"ha":674,"x_min":75,"x_max":631,"o":"m 75 319 q 94 483 75 419 q 151 583 113 547 q 250 633 190 619 q 392 647 310 647 q 487 644 440 647 q 581 631 533 640 q 622 618 613 625 q 631 600 631 611 l 631 586 q 568 606 611 597 q 476 618 525 614 q 390 622 428 622 q 223 594 285 622 q 135 499 161 565 q 110 319 110 433 q 133 138 110 204 q 218 42 157 71 q 390 14 279 14 q 476 18 428 14 q 567 31 525 22 q 631 49 610 39 l 631 36 q 622 19 631 26 q 581 6 613 11 q 487 -8 533 -4 q 392 -11 440 -11 q 245 3 306 -11 q 147 52 185 17 q 92 152 110 88 q 75 319 75 217 z "},"Ć":{"ha":674,"x_min":75,"x_max":631,"o":"m 75 319 q 94 483 75 419 q 151 583 113 547 q 250 633 190 619 q 392 647 310 647 q 487 644 440 647 q 581 631 533 640 q 622 618 613 625 q 631 600 631 611 l 631 586 q 568 606 611 597 q 476 618 525 614 q 390 622 428 622 q 223 594 285 622 q 135 499 161 565 q 110 319 110 433 q 133 138 110 204 q 218 42 157 71 q 390 14 279 14 q 476 18 428 14 q 567 31 525 22 q 631 49 610 39 l 631 36 q 622 19 631 26 q 581 6 613 11 q 487 -8 533 -4 q 392 -11 440 -11 q 245 3 306 -11 q 147 52 185 17 q 92 152 110 88 q 75 319 75 217 m 360 724 l 490 840 l 514 814 l 381 724 l 360 724 z "},"Č":{"ha":674,"x_min":75,"x_max":631,"o":"m 271 840 l 294 840 l 389 749 l 483 840 l 508 840 l 401 724 l 376 724 l 271 840 m 75 319 q 94 483 75 419 q 151 583 113 547 q 250 633 190 619 q 392 647 310 647 q 487 644 440 647 q 581 631 533 640 q 622 618 613 625 q 631 600 631 611 l 631 586 q 568 606 611 597 q 476 618 525 614 q 390 622 428 622 q 223 594 285 622 q 135 499 161 565 q 110 319 110 433 q 133 138 110 204 q 218 42 157 71 q 390 14 279 14 q 476 18 428 14 q 567 31 525 22 q 631 49 610 39 l 631 36 q 622 19 631 26 q 581 6 613 11 q 487 -8 533 -4 q 392 -11 440 -11 q 245 3 306 -11 q 147 52 185 17 q 92 152 110 88 q 75 319 75 217 z "},"Ç":{"ha":674,"x_min":75,"x_max":631,"o":"m 75 319 q 94 483 75 419 q 151 583 113 547 q 250 633 190 619 q 392 647 310 647 q 487 644 440 647 q 581 631 533 640 q 622 618 613 625 q 631 600 631 611 l 631 586 q 568 606 611 597 q 476 618 525 614 q 390 622 428 622 q 223 594 285 622 q 135 499 161 565 q 110 319 110 433 q 133 138 110 204 q 218 42 157 71 q 390 14 279 14 q 476 18 428 14 q 567 31 525 22 q 631 49 610 39 l 631 36 q 622 19 631 26 q 581 6 613 11 q 487 -8 533 -4 q 392 -11 440 -11 q 245 3 306 -11 q 147 52 185 17 q 92 152 110 88 q 75 319 75 217 m 351 -257 q 305 -253 319 -257 q 290 -236 290 -249 q 324 -236 297 -236 q 386 -236 350 -236 q 442 -223 428 -236 q 456 -183 456 -210 q 444 -135 456 -146 q 381 -124 432 -124 l 339 -124 q 320 -124 331 -124 q 301 -124 310 -124 q 285 -125 292 -125 q 301 -104 288 -121 q 331 -66 314 -87 q 364 -25 349 -44 q 385 3 379 -6 l 401 3 l 325 -107 q 424 -106 390 -103 q 470 -127 458 -110 q 482 -183 482 -144 q 463 -237 482 -222 q 415 -255 444 -253 q 351 -257 385 -257 z "},"Ĉ":{"ha":674,"x_min":75,"x_max":631,"o":"m 75 319 q 94 483 75 419 q 151 583 113 547 q 250 633 190 619 q 392 647 310 647 q 487 644 440 647 q 581 631 533 640 q 622 618 613 625 q 631 600 631 611 l 631 586 q 568 606 611 597 q 476 618 525 614 q 390 622 428 622 q 223 594 285 622 q 135 499 161 565 q 110 319 110 433 q 133 138 110 204 q 218 42 157 71 q 390 14 279 14 q 476 18 428 14 q 567 31 525 22 q 631 49 610 39 l 631 36 q 622 19 631 26 q 581 6 613 11 q 487 -8 533 -4 q 392 -11 440 -11 q 245 3 306 -11 q 147 52 185 17 q 92 152 110 88 q 75 319 75 217 m 271 724 l 376 840 l 401 840 l 508 724 l 483 724 l 389 815 l 294 724 l 271 724 z "},"Ċ":{"ha":674,"x_min":75,"x_max":631,"o":"m 75 319 q 94 483 75 419 q 151 583 113 547 q 250 633 190 619 q 392 647 310 647 q 487 644 440 647 q 581 631 533 640 q 622 618 613 625 q 631 600 631 611 l 631 586 q 568 606 611 597 q 476 618 525 614 q 390 622 428 622 q 223 594 285 622 q 135 499 161 565 q 110 319 110 433 q 133 138 110 204 q 218 42 157 71 q 390 14 279 14 q 476 18 428 14 q 567 31 525 22 q 631 49 610 39 l 631 36 q 622 19 631 26 q 581 6 613 11 q 487 -8 533 -4 q 392 -11 440 -11 q 245 3 306 -11 q 147 52 185 17 q 92 152 110 88 q 75 319 75 217 m 390 724 q 365 728 375 724 q 356 753 356 733 q 365 780 356 775 q 390 785 375 785 q 414 779 406 785 q 422 753 422 774 q 414 728 422 733 q 390 724 406 724 z "},"D":{"ha":790,"x_min":129,"x_max":715,"o":"m 715 313 q 690 125 715 190 q 617 33 664 60 q 508 1 571 6 q 369 -4 444 -4 q 308 -3 344 -4 q 235 -2 272 -3 q 169 -1 197 -1 q 129 0 140 0 l 129 553 q 137 615 129 594 q 192 639 144 635 q 238 641 206 640 q 310 642 271 642 q 386 643 350 643 q 442 642 422 643 q 555 629 504 638 q 642 590 606 621 q 697 494 678 560 q 715 313 715 429 m 163 26 q 200 26 171 26 q 265 24 229 25 q 335 23 301 24 q 385 22 368 22 q 525 33 468 22 q 617 73 582 43 q 667 160 651 103 q 682 311 682 218 q 656 503 682 438 q 569 593 631 569 q 396 617 507 617 q 335 617 376 617 q 252 615 293 617 q 192 610 211 614 q 170 599 178 607 q 163 558 163 590 l 163 26 z "},"Ď":{"ha":790,"x_min":129,"x_max":715,"o":"m 288 840 l 311 840 l 406 749 l 500 840 l 525 840 l 418 724 l 393 724 l 288 840 m 715 313 q 690 125 715 190 q 617 33 664 60 q 508 1 571 6 q 369 -4 444 -4 q 308 -3 344 -4 q 235 -2 272 -3 q 169 -1 197 -1 q 129 0 140 0 l 129 553 q 137 615 129 594 q 192 639 144 635 q 238 641 206 640 q 310 642 271 642 q 386 643 350 643 q 442 642 422 643 q 555 629 504 638 q 642 590 606 621 q 697 494 678 560 q 715 313 715 429 m 163 26 q 200 26 171 26 q 265 24 229 25 q 335 23 301 24 q 385 22 368 22 q 525 33 468 22 q 617 73 582 43 q 667 160 651 103 q 682 311 682 218 q 656 503 682 438 q 569 593 631 569 q 396 617 507 617 q 335 617 376 617 q 252 615 293 617 q 192 610 211 614 q 170 599 178 607 q 163 558 163 590 l 163 26 z "},"Đ":{"ha":790,"x_min":32,"x_max":715,"o":"m 715 313 q 690 125 715 190 q 617 33 664 60 q 508 1 571 6 q 369 -4 444 -4 q 308 -3 344 -4 q 235 -2 272 -3 q 169 -1 197 -1 q 129 0 140 0 l 129 553 q 137 615 129 594 q 192 639 144 635 q 238 641 206 640 q 310 642 271 642 q 386 643 350 643 q 442 642 422 643 q 555 629 504 638 q 642 590 606 621 q 697 494 678 560 q 715 313 715 429 m 163 26 q 200 26 171 26 q 265 24 229 25 q 335 23 301 24 q 385 22 368 22 q 525 33 468 22 q 617 73 582 43 q 667 160 651 103 q 682 311 682 218 q 656 503 682 438 q 569 593 631 569 q 396 617 507 617 q 335 617 376 617 q 252 615 293 617 q 192 610 211 614 q 170 599 178 607 q 163 558 163 590 l 163 26 m 32 318 l 336 318 l 336 294 l 32 294 l 32 318 z "},"∆":{"ha":719,"x_min":57,"x_max":663,"o":"m 663 0 l 57 0 l 354 781 l 663 0 m 600 36 q 540 190 572 106 q 473 362 507 274 q 406 534 439 450 q 346 686 374 618 l 100 36 l 600 36 z "},"ǅ":{"ha":1289,"x_min":129,"x_max":1272,"o":"m 919 782 l 943 782 l 1039 665 l 1136 782 l 1160 782 l 1051 639 l 1028 639 l 919 782 m 715 313 q 690 125 715 190 q 617 33 664 60 q 508 1 571 6 q 369 -4 444 -4 q 308 -3 344 -4 q 235 -2 272 -3 q 169 -1 197 -1 q 129 0 140 0 l 129 553 q 137 615 129 594 q 192 639 144 635 q 238 641 206 640 q 310 642 271 642 q 386 643 350 643 q 442 642 422 643 q 555 629 504 638 q 642 590 606 621 q 697 494 678 560 q 715 313 715 429 m 163 26 q 200 26 171 26 q 265 24 229 25 q 335 23 301 24 q 385 22 368 22 q 525 33 468 22 q 617 73 582 43 q 667 160 651 103 q 682 311 682 218 q 656 503 682 438 q 569 593 631 569 q 396 617 507 617 q 335 617 376 617 q 252 615 293 617 q 192 610 211 614 q 170 599 178 607 q 163 558 163 590 l 163 26 m 844 25 l 1260 25 l 1265 18 q 1265 6 1272 11 q 1246 0 1258 0 l 811 0 l 811 28 l 1224 529 l 833 529 l 833 533 q 838 549 833 544 q 854 554 842 554 l 1261 554 q 1258 536 1261 544 q 1249 518 1256 528 q 1228 492 1242 508 l 844 25 z "},"E":{"ha":707,"x_min":136,"x_max":647,"o":"m 136 0 l 136 611 q 138 632 136 625 q 151 639 140 639 l 647 639 l 647 613 l 169 613 l 169 353 l 611 353 l 611 326 l 169 326 l 169 26 l 647 26 l 647 0 l 136 0 z "},"É":{"ha":707,"x_min":136,"x_max":647,"o":"m 136 0 l 136 611 q 138 632 136 625 q 151 639 140 639 l 647 639 l 647 613 l 169 613 l 169 353 l 611 353 l 611 326 l 169 326 l 169 26 l 647 26 l 647 0 l 136 0 m 354 724 l 485 840 l 508 814 l 375 724 l 354 724 z "},"Ĕ":{"ha":707,"x_min":136,"x_max":647,"o":"m 136 0 l 136 611 q 138 632 136 625 q 151 639 140 639 l 647 639 l 647 613 l 169 613 l 169 353 l 611 353 l 611 326 l 169 326 l 169 26 l 647 26 l 647 0 l 136 0 m 385 724 q 326 731 354 724 q 278 761 297 738 q 257 832 258 785 l 257 839 l 285 839 l 285 833 q 291 793 285 814 q 318 759 297 772 q 382 746 339 746 q 448 759 426 746 q 476 792 469 772 q 483 833 483 813 l 483 839 l 508 839 l 508 833 q 490 762 508 785 q 443 732 471 739 q 385 724 415 725 z "},"Ě":{"ha":707,"x_min":136,"x_max":647,"o":"m 265 840 l 289 840 l 383 749 l 478 840 l 503 840 l 396 724 l 371 724 l 265 840 m 136 0 l 136 611 q 138 632 136 625 q 151 639 140 639 l 647 639 l 647 613 l 169 613 l 169 353 l 611 353 l 611 326 l 169 326 l 169 26 l 647 26 l 647 0 l 136 0 z "},"Ê":{"ha":707,"x_min":136,"x_max":647,"o":"m 136 0 l 136 611 q 138 632 136 625 q 151 639 140 639 l 647 639 l 647 613 l 169 613 l 169 353 l 611 353 l 611 326 l 169 326 l 169 26 l 647 26 l 647 0 l 136 0 m 265 724 l 371 840 l 396 840 l 503 724 l 478 724 l 383 815 l 289 724 l 265 724 z "},"Ế":{"ha":707,"x_min":136,"x_max":654,"o":"m 136 0 l 136 611 q 138 632 136 625 q 151 639 140 639 l 647 639 l 647 613 l 169 613 l 169 353 l 611 353 l 611 326 l 169 326 l 169 26 l 647 26 l 647 0 l 136 0 m 265 724 l 371 840 l 396 840 l 503 724 l 478 724 l 383 815 l 289 724 l 265 724 m 500 819 l 631 936 l 654 910 l 521 819 l 500 819 z "},"Ệ":{"ha":707,"x_min":136,"x_max":647,"o":"m 136 0 l 136 611 q 138 632 136 625 q 151 639 140 639 l 647 639 l 647 613 l 169 613 l 169 353 l 611 353 l 611 326 l 169 326 l 169 26 l 647 26 l 647 0 l 136 0 m 385 -151 q 373 -150 379 -151 q 362 -144 367 -149 q 357 -129 357 -139 q 365 -110 357 -114 q 383 -106 374 -106 q 402 -109 394 -106 q 410 -129 410 -112 q 406 -144 410 -139 q 396 -150 401 -149 q 385 -151 390 -151 m 265 724 l 371 840 l 396 840 l 503 724 l 478 724 l 383 815 l 289 724 l 265 724 z "},"Ề":{"ha":707,"x_min":136,"x_max":647,"o":"m 136 0 l 136 611 q 138 632 136 625 q 151 639 140 639 l 647 639 l 647 613 l 169 613 l 169 353 l 611 353 l 611 326 l 169 326 l 169 26 l 647 26 l 647 0 l 136 0 m 265 724 l 371 840 l 396 840 l 503 724 l 478 724 l 383 815 l 289 724 l 265 724 m 550 819 l 418 910 l 442 936 l 572 819 l 550 819 z "},"Ể":{"ha":707,"x_min":136,"x_max":647,"o":"m 136 0 l 136 611 q 138 632 136 625 q 151 639 140 639 l 647 639 l 647 613 l 169 613 l 169 353 l 611 353 l 611 326 l 169 326 l 169 26 l 647 26 l 647 0 l 136 0 m 265 724 l 371 840 l 396 840 l 503 724 l 478 724 l 383 815 l 289 724 l 265 724 m 511 797 l 511 810 q 522 831 511 825 q 545 840 532 836 q 569 849 558 843 q 579 872 579 856 l 579 875 q 567 912 579 901 q 529 922 554 922 q 485 888 494 922 l 463 893 q 485 930 468 917 q 532 943 501 943 q 586 929 568 943 q 604 875 604 915 l 604 872 q 594 839 604 849 q 569 826 583 829 q 545 819 556 824 q 535 801 535 814 l 535 797 l 511 797 z "},"Ễ":{"ha":707,"x_min":136,"x_max":647,"o":"m 136 0 l 136 611 q 138 632 136 625 q 151 639 140 639 l 647 639 l 647 613 l 169 613 l 169 353 l 611 353 l 611 326 l 169 326 l 169 26 l 647 26 l 647 0 l 136 0 m 265 724 l 371 840 l 396 840 l 503 724 l 478 724 l 383 815 l 289 724 l 265 724 m 454 868 q 411 880 432 868 q 369 903 390 892 q 326 914 347 914 q 291 901 304 914 q 272 876 278 888 l 257 888 q 263 901 258 892 q 277 919 268 910 q 299 937 286 929 q 329 944 311 944 q 372 932 351 944 q 413 908 393 919 q 453 896 433 896 q 494 912 481 896 q 511 939 507 928 l 526 925 q 520 912 525 921 q 507 893 515 903 q 485 876 499 883 q 454 868 472 868 z "},"Ȅ":{"ha":707,"x_min":136,"x_max":647,"o":"m 136 0 l 136 611 q 138 632 136 625 q 151 639 140 639 l 647 639 l 647 613 l 169 613 l 169 353 l 611 353 l 611 326 l 169 326 l 169 26 l 647 26 l 647 0 l 136 0 m 342 722 l 219 842 l 250 865 l 363 722 l 342 722 m 444 722 l 339 854 l 368 875 l 465 722 l 444 722 z "},"Ë":{"ha":707,"x_min":136,"x_max":647,"o":"m 136 0 l 136 611 q 138 632 136 625 q 151 639 140 639 l 647 639 l 647 613 l 169 613 l 169 353 l 611 353 l 611 326 l 169 326 l 169 26 l 647 26 l 647 0 l 136 0 m 463 724 q 442 728 453 724 q 432 750 432 732 q 442 772 432 768 q 461 775 453 775 q 481 772 471 775 q 492 750 492 768 q 483 728 492 732 q 463 724 475 724 m 304 724 q 283 728 292 724 q 274 751 274 732 q 283 772 274 768 q 303 775 293 775 q 323 772 313 775 q 333 751 333 768 q 324 728 333 733 q 304 724 315 724 z "},"Ė":{"ha":707,"x_min":136,"x_max":647,"o":"m 136 0 l 136 611 q 138 632 136 625 q 151 639 140 639 l 647 639 l 647 613 l 169 613 l 169 353 l 611 353 l 611 326 l 169 326 l 169 26 l 647 26 l 647 0 l 136 0 m 385 724 q 360 728 369 724 q 350 753 350 733 q 360 780 350 775 q 385 785 369 785 q 408 779 400 785 q 417 753 417 774 q 408 728 417 733 q 385 724 400 724 z "},"Ẹ":{"ha":707,"x_min":136,"x_max":647,"o":"m 136 0 l 136 611 q 138 632 136 625 q 151 639 140 639 l 647 639 l 647 613 l 169 613 l 169 353 l 611 353 l 611 326 l 169 326 l 169 26 l 647 26 l 647 0 l 136 0 m 385 -151 q 373 -150 379 -151 q 362 -144 367 -149 q 357 -129 357 -139 q 365 -110 357 -114 q 383 -106 374 -106 q 402 -109 394 -106 q 410 -129 410 -112 q 406 -144 410 -139 q 396 -150 401 -149 q 385 -151 390 -151 z "},"È":{"ha":707,"x_min":136,"x_max":647,"o":"m 136 0 l 136 611 q 138 632 136 625 q 151 639 140 639 l 647 639 l 647 613 l 169 613 l 169 353 l 611 353 l 611 326 l 169 326 l 169 26 l 647 26 l 647 0 l 136 0 m 403 724 l 271 814 l 294 840 l 425 724 l 403 724 z "},"Ẻ":{"ha":707,"x_min":136,"x_max":647,"o":"m 136 0 l 136 611 q 138 632 136 625 q 151 639 140 639 l 647 639 l 647 613 l 169 613 l 169 353 l 611 353 l 611 326 l 169 326 l 169 26 l 647 26 l 647 0 l 136 0 m 371 724 l 371 736 q 381 757 371 751 q 405 766 392 763 q 428 776 418 769 q 439 799 439 782 l 439 801 q 426 838 439 828 q 389 849 414 849 q 344 814 354 849 l 322 819 q 344 856 328 843 q 392 869 361 869 q 446 856 428 869 q 464 801 464 842 l 464 799 q 453 765 464 775 q 429 753 443 756 q 405 745 415 750 q 394 728 394 740 l 394 724 l 371 724 z "},"Ȇ":{"ha":707,"x_min":136,"x_max":647,"o":"m 136 0 l 136 611 q 138 632 136 625 q 151 639 140 639 l 647 639 l 647 613 l 169 613 l 169 353 l 611 353 l 611 326 l 169 326 l 169 26 l 647 26 l 647 0 l 136 0 m 257 724 l 257 731 q 278 802 258 779 q 326 833 297 825 q 385 839 354 840 q 443 831 415 839 q 490 801 471 824 q 508 729 508 778 l 508 724 l 483 724 l 483 729 q 476 770 483 750 q 448 803 469 790 q 382 817 426 817 q 318 803 339 817 q 291 770 297 790 q 285 729 285 750 l 285 724 l 257 724 z "},"Ē":{"ha":707,"x_min":136,"x_max":647,"o":"m 136 0 l 136 611 q 138 632 136 625 q 151 639 140 639 l 647 639 l 647 613 l 169 613 l 169 353 l 611 353 l 611 326 l 169 326 l 169 26 l 647 26 l 647 0 l 136 0 m 247 725 l 247 744 l 521 744 l 521 725 l 247 725 z "},"Ŋ":{"ha":829,"x_min":136,"x_max":693,"o":"m 136 0 q 139 13 139 3 q 139 32 139 22 q 139 313 139 172 q 139 594 139 454 q 141 633 139 626 q 160 639 143 639 q 170 639 165 639 q 179 639 175 639 q 421 338 300 488 q 663 36 542 188 q 663 338 663 188 q 663 639 663 488 q 678 639 669 639 q 693 639 686 639 q 691 632 692 638 q 690 620 690 626 q 690 607 690 614 q 690 280 690 443 q 690 -46 690 117 q 691 -118 690 -75 q 688 -186 692 -161 q 674 -219 685 -203 q 645 -247 664 -236 q 594 -258 626 -258 q 574 -258 588 -258 q 544 -256 560 -258 q 515 -251 529 -254 q 515 -238 515 -244 q 515 -225 515 -232 q 542 -231 522 -228 q 571 -233 561 -233 q 636 -217 617 -233 q 656 -157 656 -200 q 656 -82 656 -119 q 656 -8 656 -44 q 654 -8 656 -8 q 653 -8 653 -8 l 167 603 q 167 301 167 451 q 167 0 167 151 q 151 0 160 0 q 136 0 143 0 z "},"Ę":{"ha":707,"x_min":136,"x_max":647,"o":"m 136 0 l 136 611 q 138 632 136 625 q 151 639 140 639 l 647 639 l 647 613 l 169 613 l 169 353 l 611 353 l 611 326 l 169 326 l 169 26 l 647 26 l 647 0 l 136 0 m 594 -235 q 524 -228 553 -235 q 481 -201 496 -221 q 467 -146 467 -182 q 483 -92 467 -118 q 523 -45 500 -67 q 569 -8 546 -24 q 604 15 592 8 l 633 15 q 601 -5 624 11 q 556 -43 579 -21 q 515 -90 532 -65 q 497 -137 497 -115 q 522 -199 497 -185 q 590 -214 547 -214 q 613 -213 601 -214 q 634 -212 625 -212 q 646 -211 643 -211 q 642 -225 646 -219 q 628 -233 639 -231 q 594 -235 618 -235 z "},"Ð":{"ha":790,"x_min":32,"x_max":715,"o":"m 715 313 q 690 125 715 190 q 617 33 664 60 q 508 1 571 6 q 369 -4 444 -4 q 308 -3 344 -4 q 235 -2 272 -3 q 169 -1 197 -1 q 129 0 140 0 l 129 553 q 137 615 129 594 q 192 639 144 635 q 238 641 206 640 q 310 642 271 642 q 386 643 350 643 q 442 642 422 643 q 555 629 504 638 q 642 590 606 621 q 697 494 678 560 q 715 313 715 429 m 163 26 q 200 26 171 26 q 265 24 229 25 q 335 23 301 24 q 385 22 368 22 q 525 33 468 22 q 617 73 582 43 q 667 160 651 103 q 682 311 682 218 q 656 503 682 438 q 569 593 631 569 q 396 617 507 617 q 335 617 376 617 q 252 615 293 617 q 192 610 211 614 q 170 599 178 607 q 163 558 163 590 l 163 26 m 32 318 l 336 318 l 336 294 l 32 294 l 32 318 z "},"Ẽ":{"ha":707,"x_min":136,"x_max":647,"o":"m 136 0 l 136 611 q 138 632 136 625 q 151 639 140 639 l 647 639 l 647 613 l 169 613 l 169 353 l 611 353 l 611 326 l 169 326 l 169 26 l 647 26 l 647 0 l 136 0 m 446 721 q 403 733 424 721 q 360 756 382 744 q 318 767 339 767 q 283 753 296 767 q 264 729 269 740 l 249 740 q 255 753 250 744 q 269 772 260 763 q 290 790 278 782 q 321 797 303 797 q 364 785 343 797 q 405 760 385 772 q 444 749 425 749 q 485 765 472 749 q 503 792 499 781 l 518 778 q 512 765 517 774 q 499 746 507 756 q 477 728 490 736 q 446 721 464 721 z "},"€":{"ha":707,"x_min":40,"x_max":664,"o":"m 110 319 q 128 484 110 419 q 185 584 147 549 q 283 633 224 619 q 425 647 343 647 q 520 644 474 647 q 614 631 567 640 q 654 618 644 625 q 664 600 664 611 l 664 586 q 601 606 644 597 q 510 618 558 614 q 422 622 461 622 q 256 594 317 622 q 169 499 194 565 q 143 319 143 433 q 167 138 143 204 q 251 42 190 71 q 424 14 313 14 q 510 18 461 14 q 601 31 558 22 q 664 49 643 39 l 664 36 q 654 19 664 26 q 614 6 644 11 q 520 -8 567 -4 q 425 -11 474 -11 q 280 3 340 -11 q 182 52 219 17 q 127 152 144 88 q 110 319 110 217 m 61 393 l 547 393 l 539 368 l 51 368 l 61 393 m 49 268 l 535 268 l 526 244 l 40 244 l 49 268 z "},"F":{"ha":699,"x_min":136,"x_max":647,"o":"m 136 0 l 136 611 q 137 626 136 621 q 141 635 138 632 q 151 639 144 639 l 647 639 l 647 613 l 169 613 l 169 353 l 611 353 l 611 326 l 169 326 l 169 0 l 136 0 z "},"G":{"ha":717,"x_min":75,"x_max":658,"o":"m 375 -12 q 230 5 288 -12 q 138 62 172 22 q 90 165 104 101 q 75 319 75 228 q 94 483 75 419 q 153 583 114 547 q 251 633 192 619 q 390 647 310 647 q 488 644 440 647 q 582 631 535 640 q 614 623 603 628 q 628 613 625 618 q 632 600 632 607 l 632 588 q 599 599 621 594 q 551 608 578 604 q 496 616 525 613 q 439 621 467 619 q 389 622 411 622 q 222 594 283 622 q 135 499 161 565 q 110 319 110 433 q 133 140 110 207 q 213 44 156 74 q 374 14 271 14 q 517 33 463 14 q 597 104 571 51 q 625 256 622 157 q 626 294 626 278 q 625 317 625 310 l 347 317 q 349 333 347 328 q 356 341 350 339 q 374 343 363 343 l 658 343 l 658 258 q 641 126 658 178 q 588 43 624 74 q 499 0 553 13 q 375 -12 446 -12 z "},"Ğ":{"ha":717,"x_min":75,"x_max":658,"o":"m 375 -12 q 230 5 288 -12 q 138 62 172 22 q 90 165 104 101 q 75 319 75 228 q 94 483 75 419 q 153 583 114 547 q 251 633 192 619 q 390 647 310 647 q 488 644 440 647 q 582 631 535 640 q 614 623 603 628 q 628 613 625 618 q 632 600 632 607 l 632 588 q 599 599 621 594 q 551 608 578 604 q 496 616 525 613 q 439 621 467 619 q 389 622 411 622 q 222 594 283 622 q 135 499 161 565 q 110 319 110 433 q 133 140 110 207 q 213 44 156 74 q 374 14 271 14 q 517 33 463 14 q 597 104 571 51 q 625 256 622 157 q 626 294 626 278 q 625 317 625 310 l 347 317 q 349 333 347 328 q 356 341 350 339 q 374 343 363 343 l 658 343 l 658 258 q 641 126 658 178 q 588 43 624 74 q 499 0 553 13 q 375 -12 446 -12 m 367 724 q 308 731 336 724 q 260 761 279 738 q 239 832 240 785 l 239 839 l 267 839 l 267 833 q 273 793 267 814 q 300 759 279 772 q 364 746 321 746 q 430 759 408 746 q 458 792 451 772 q 465 833 465 813 l 465 839 l 490 839 l 490 833 q 472 762 490 785 q 425 732 453 739 q 367 724 397 725 z "},"Ǧ":{"ha":717,"x_min":75,"x_max":658,"o":"m 247 840 l 271 840 l 365 749 l 460 840 l 485 840 l 378 724 l 353 724 l 247 840 m 375 -12 q 230 5 288 -12 q 138 62 172 22 q 90 165 104 101 q 75 319 75 228 q 94 483 75 419 q 153 583 114 547 q 251 633 192 619 q 390 647 310 647 q 488 644 440 647 q 582 631 535 640 q 614 623 603 628 q 628 613 625 618 q 632 600 632 607 l 632 588 q 599 599 621 594 q 551 608 578 604 q 496 616 525 613 q 439 621 467 619 q 389 622 411 622 q 222 594 283 622 q 135 499 161 565 q 110 319 110 433 q 133 140 110 207 q 213 44 156 74 q 374 14 271 14 q 517 33 463 14 q 597 104 571 51 q 625 256 622 157 q 626 294 626 278 q 625 317 625 310 l 347 317 q 349 333 347 328 q 356 341 350 339 q 374 343 363 343 l 658 343 l 658 258 q 641 126 658 178 q 588 43 624 74 q 499 0 553 13 q 375 -12 446 -12 z "},"Ģ":{"ha":717,"x_min":75,"x_max":658,"o":"m 375 -12 q 230 5 288 -12 q 138 62 172 22 q 90 165 104 101 q 75 319 75 228 q 94 483 75 419 q 153 583 114 547 q 251 633 192 619 q 390 647 310 647 q 488 644 440 647 q 582 631 535 640 q 614 623 603 628 q 628 613 625 618 q 632 600 632 607 l 632 588 q 599 599 621 594 q 551 608 578 604 q 496 616 525 613 q 439 621 467 619 q 389 622 411 622 q 222 594 283 622 q 135 499 161 565 q 110 319 110 433 q 133 140 110 207 q 213 44 156 74 q 374 14 271 14 q 517 33 463 14 q 597 104 571 51 q 625 256 622 157 q 626 294 626 278 q 625 317 625 310 l 347 317 q 349 333 347 328 q 356 341 350 339 q 374 343 363 343 l 658 343 l 658 258 q 641 126 658 178 q 588 43 624 74 q 499 0 553 13 q 375 -12 446 -12 m 340 -233 q 352 -197 347 -215 q 360 -162 357 -178 q 364 -139 364 -146 q 362 -139 363 -139 q 360 -139 361 -139 q 342 -135 351 -139 q 333 -117 333 -131 q 342 -97 333 -101 q 367 -93 351 -93 q 382 -95 376 -93 q 390 -103 388 -97 q 393 -119 393 -108 q 385 -161 393 -136 q 369 -207 378 -186 q 357 -233 360 -228 l 340 -233 z "},"Ĝ":{"ha":717,"x_min":75,"x_max":658,"o":"m 375 -12 q 230 5 288 -12 q 138 62 172 22 q 90 165 104 101 q 75 319 75 228 q 94 483 75 419 q 153 583 114 547 q 251 633 192 619 q 390 647 310 647 q 488 644 440 647 q 582 631 535 640 q 614 623 603 628 q 628 613 625 618 q 632 600 632 607 l 632 588 q 599 599 621 594 q 551 608 578 604 q 496 616 525 613 q 439 621 467 619 q 389 622 411 622 q 222 594 283 622 q 135 499 161 565 q 110 319 110 433 q 133 140 110 207 q 213 44 156 74 q 374 14 271 14 q 517 33 463 14 q 597 104 571 51 q 625 256 622 157 q 626 294 626 278 q 625 317 625 310 l 347 317 q 349 333 347 328 q 356 341 350 339 q 374 343 363 343 l 658 343 l 658 258 q 641 126 658 178 q 588 43 624 74 q 499 0 553 13 q 375 -12 446 -12 m 247 724 l 353 840 l 378 840 l 485 724 l 460 724 l 365 815 l 271 724 l 247 724 z "},"Ġ":{"ha":717,"x_min":75,"x_max":658,"o":"m 375 -12 q 230 5 288 -12 q 138 62 172 22 q 90 165 104 101 q 75 319 75 228 q 94 483 75 419 q 153 583 114 547 q 251 633 192 619 q 390 647 310 647 q 488 644 440 647 q 582 631 535 640 q 614 623 603 628 q 628 613 625 618 q 632 600 632 607 l 632 588 q 599 599 621 594 q 551 608 578 604 q 496 616 525 613 q 439 621 467 619 q 389 622 411 622 q 222 594 283 622 q 135 499 161 565 q 110 319 110 433 q 133 140 110 207 q 213 44 156 74 q 374 14 271 14 q 517 33 463 14 q 597 104 571 51 q 625 256 622 157 q 626 294 626 278 q 625 317 625 310 l 347 317 q 349 333 347 328 q 356 341 350 339 q 374 343 363 343 l 658 343 l 658 258 q 641 126 658 178 q 588 43 624 74 q 499 0 553 13 q 375 -12 446 -12 m 367 724 q 342 728 351 724 q 332 753 332 733 q 342 780 332 775 q 367 785 351 785 q 390 779 382 785 q 399 753 399 774 q 390 728 399 733 q 367 724 382 724 z "},"ẞ":{"ha":818,"x_min":151,"x_max":675,"o":"m 151 -42 q 151 70 151 18 q 151 173 151 122 q 151 281 151 224 q 151 409 151 339 q 151 571 151 479 q 176 634 153 608 q 234 675 199 660 q 308 697 269 690 q 376 703 346 703 q 459 698 415 703 q 540 679 503 693 q 599 637 578 665 q 613 563 619 608 q 609 553 613 557 q 601 546 606 549 q 591 542 596 543 q 583 540 586 540 q 485 515 539 529 q 383 483 432 501 q 303 438 335 464 q 272 379 272 413 q 317 312 272 325 q 429 299 361 299 q 476 299 460 299 q 504 299 493 299 q 592 290 554 299 q 653 252 631 282 q 675 160 675 222 q 640 54 675 90 q 554 6 606 18 q 451 -7 503 -7 q 401 -6 435 -7 q 333 1 368 -4 q 272 15 297 6 q 247 42 247 25 l 247 54 q 306 29 269 38 q 383 19 343 21 q 450 17 422 17 q 542 26 497 17 q 617 67 588 36 q 647 163 647 99 q 610 254 647 235 q 508 274 574 274 q 477 274 496 274 q 426 274 458 274 q 341 278 383 274 q 271 306 299 283 q 243 378 243 328 q 277 449 243 419 q 364 499 311 478 q 475 536 417 521 q 583 564 533 551 q 568 625 588 601 q 516 661 549 649 q 447 678 483 674 q 379 682 410 682 q 317 676 351 682 q 252 658 283 671 q 201 619 221 644 q 181 554 181 594 l 181 -42 l 151 -42 z "},"H":{"ha":826,"x_min":136,"x_max":690,"o":"m 136 0 l 136 613 q 140 634 136 629 q 154 639 143 639 l 169 639 l 169 343 l 657 343 l 657 639 l 690 639 l 690 26 q 687 5 690 10 q 672 0 683 0 l 657 0 l 657 315 l 169 315 l 169 0 l 136 0 z "},"Ħ":{"ha":826,"x_min":75,"x_max":749,"o":"m 136 0 l 136 613 q 140 634 136 629 q 154 639 143 639 l 169 639 l 169 343 l 657 343 l 657 639 l 690 639 l 690 26 q 687 5 690 10 q 672 0 683 0 l 657 0 l 657 315 l 169 315 l 169 0 l 136 0 m 75 519 l 749 519 l 749 497 l 76 497 l 75 519 z "},"Ĥ":{"ha":826,"x_min":136,"x_max":690,"o":"m 136 0 l 136 613 q 140 634 136 629 q 154 639 143 639 l 169 639 l 169 343 l 657 343 l 657 639 l 690 639 l 690 26 q 687 5 690 10 q 672 0 683 0 l 657 0 l 657 315 l 169 315 l 169 0 l 136 0 m 294 724 l 400 840 l 425 840 l 532 724 l 507 724 l 413 815 l 318 724 l 294 724 z "},"I":{"ha":306,"x_min":136,"x_max":169,"o":"m 136 0 q 136 306 136 153 q 136 611 136 458 q 137 626 136 621 q 141 635 138 632 q 151 639 144 639 l 169 639 l 169 0 l 136 0 z "},"Ĳ":{"ha":664,"x_min":136,"x_max":536,"o":"m 136 0 q 136 306 136 153 q 136 611 136 458 q 137 626 136 621 q 141 635 138 632 q 151 639 144 639 l 169 639 l 169 0 l 136 0 m 535 208 q 535 137 535 179 q 532 69 536 94 q 519 35 529 53 q 490 7 510 18 q 439 -4 471 -4 q 419 -4 432 -4 q 390 -2 406 -4 q 361 3 375 0 l 361 29 q 387 24 368 26 q 417 21 406 21 q 481 38 461 21 q 501 99 501 54 l 501 639 l 519 639 q 530 636 526 639 q 534 628 533 633 q 535 617 535 624 l 535 208 z "},"Í":{"ha":306,"x_min":124,"x_max":278,"o":"m 136 0 q 136 306 136 153 q 136 611 136 458 q 137 626 136 621 q 141 635 138 632 q 151 639 144 639 l 169 639 l 169 0 l 136 0 m 124 724 l 254 840 l 278 814 l 144 724 l 124 724 z "},"Ĭ":{"ha":306,"x_min":26,"x_max":278,"o":"m 136 0 q 136 306 136 153 q 136 611 136 458 q 137 626 136 621 q 141 635 138 632 q 151 639 144 639 l 169 639 l 169 0 l 136 0 m 154 724 q 95 731 124 724 q 47 761 67 738 q 26 832 28 785 l 26 839 l 54 839 l 54 833 q 60 793 54 814 q 88 759 67 772 q 151 746 108 746 q 217 759 196 746 q 246 792 239 772 q 253 833 253 813 l 253 839 l 278 839 l 278 833 q 259 762 278 785 q 213 732 240 739 q 154 724 185 725 z "},"Î":{"ha":306,"x_min":35,"x_max":272,"o":"m 136 0 q 136 306 136 153 q 136 611 136 458 q 137 626 136 621 q 141 635 138 632 q 151 639 144 639 l 169 639 l 169 0 l 136 0 m 35 724 l 140 840 l 165 840 l 272 724 l 247 724 l 153 815 l 58 724 l 35 724 z "},"Ȉ":{"ha":306,"x_min":-11,"x_max":235,"o":"m 136 0 q 136 306 136 153 q 136 611 136 458 q 137 626 136 621 q 141 635 138 632 q 151 639 144 639 l 169 639 l 169 0 l 136 0 m 111 722 l -11 842 l 19 865 l 132 722 l 111 722 m 214 722 l 108 854 l 138 875 l 235 722 l 214 722 z "},"Ï":{"ha":306,"x_min":43,"x_max":261,"o":"m 136 0 q 136 306 136 153 q 136 611 136 458 q 137 626 136 621 q 141 635 138 632 q 151 639 144 639 l 169 639 l 169 0 l 136 0 m 232 724 q 212 728 222 724 q 201 750 201 732 q 212 772 201 768 q 231 775 222 775 q 251 772 240 775 q 261 750 261 768 q 253 728 261 732 q 232 724 244 724 m 74 724 q 52 728 61 724 q 43 751 43 732 q 53 772 43 768 q 72 775 63 775 q 92 772 82 775 q 103 751 103 768 q 94 728 103 733 q 74 724 85 724 z "},"İ":{"ha":306,"x_min":119,"x_max":186,"o":"m 136 0 q 136 306 136 153 q 136 611 136 458 q 137 626 136 621 q 141 635 138 632 q 151 639 144 639 l 169 639 l 169 0 l 136 0 m 154 724 q 129 728 139 724 q 119 753 119 733 q 129 780 119 775 q 154 785 139 785 q 178 779 169 785 q 186 753 186 774 q 178 728 186 733 q 154 724 169 724 z "},"Ị":{"ha":306,"x_min":126,"x_max":179,"o":"m 136 0 q 136 306 136 153 q 136 611 136 458 q 137 626 136 621 q 141 635 138 632 q 151 639 144 639 l 169 639 l 169 0 l 136 0 m 154 -151 q 142 -150 149 -151 q 131 -144 136 -149 q 126 -129 126 -139 q 135 -110 126 -114 q 153 -106 143 -106 q 172 -109 164 -106 q 179 -129 179 -112 q 175 -144 179 -139 q 165 -150 171 -149 q 154 -151 160 -151 z "},"Ì":{"ha":306,"x_min":40,"x_max":194,"o":"m 136 0 q 136 306 136 153 q 136 611 136 458 q 137 626 136 621 q 141 635 138 632 q 151 639 144 639 l 169 639 l 169 0 l 136 0 m 172 724 l 40 814 l 64 840 l 194 724 l 172 724 z "},"Ỉ":{"ha":306,"x_min":92,"x_max":233,"o":"m 136 0 q 136 306 136 153 q 136 611 136 458 q 137 626 136 621 q 141 635 138 632 q 151 639 144 639 l 169 639 l 169 0 l 136 0 m 140 724 l 140 736 q 151 757 140 751 q 174 766 161 763 q 198 776 188 769 q 208 799 208 782 l 208 801 q 196 838 208 828 q 158 849 183 849 q 114 814 124 849 l 92 819 q 114 856 97 843 q 161 869 131 869 q 215 856 197 869 q 233 801 233 842 l 233 799 q 223 765 233 775 q 199 753 213 756 q 174 745 185 750 q 164 728 164 740 l 164 724 l 140 724 z "},"Ȋ":{"ha":306,"x_min":26,"x_max":278,"o":"m 136 0 q 136 306 136 153 q 136 611 136 458 q 137 626 136 621 q 141 635 138 632 q 151 639 144 639 l 169 639 l 169 0 l 136 0 m 26 724 l 26 731 q 47 802 28 779 q 95 833 67 825 q 154 839 124 840 q 213 831 185 839 q 259 801 240 824 q 278 729 278 778 l 278 724 l 253 724 l 253 729 q 246 770 253 750 q 217 803 239 790 q 151 817 196 817 q 88 803 108 817 q 60 770 67 790 q 54 729 54 750 l 54 724 l 26 724 z "},"Ī":{"ha":306,"x_min":17,"x_max":290,"o":"m 136 0 q 136 306 136 153 q 136 611 136 458 q 137 626 136 621 q 141 635 138 632 q 151 639 144 639 l 169 639 l 169 0 l 136 0 m 17 725 l 17 744 l 290 744 l 290 725 l 17 725 z "},"Į":{"ha":306,"x_min":1,"x_max":181,"o":"m 136 0 q 136 306 136 153 q 136 611 136 458 q 137 626 136 621 q 141 635 138 632 q 151 639 144 639 l 169 639 l 169 0 l 136 0 m 129 -235 q 59 -228 88 -235 q 16 -201 31 -221 q 1 -146 1 -182 q 18 -92 1 -118 q 58 -45 35 -67 q 103 -8 81 -24 q 139 15 126 8 l 168 15 q 136 -5 158 11 q 90 -43 114 -21 q 49 -90 67 -65 q 32 -137 32 -115 q 57 -199 32 -185 q 125 -214 82 -214 q 148 -213 136 -214 q 169 -212 160 -212 q 181 -211 178 -211 q 177 -225 181 -219 q 163 -233 174 -231 q 129 -235 153 -235 z "},"Ĩ":{"ha":306,"x_min":18,"x_max":288,"o":"m 136 0 q 136 306 136 153 q 136 611 136 458 q 137 626 136 621 q 141 635 138 632 q 151 639 144 639 l 169 639 l 169 0 l 136 0 m 215 721 q 172 733 193 721 q 130 756 151 744 q 88 767 108 767 q 52 753 65 767 q 33 729 39 740 l 18 740 q 24 753 19 744 q 38 772 29 763 q 60 790 47 782 q 90 797 72 797 q 133 785 113 797 q 174 760 154 772 q 214 749 194 749 q 255 765 242 749 q 272 792 268 781 l 288 778 q 281 765 286 774 q 268 746 276 756 q 247 728 260 736 q 215 721 233 721 z "},"J":{"ha":358,"x_min":56,"x_max":231,"o":"m 229 208 q 230 137 229 179 q 226 69 231 94 q 214 35 224 53 q 185 7 204 18 q 133 -4 165 -4 q 113 -4 126 -4 q 85 -2 100 -4 q 56 3 69 0 l 56 29 q 81 24 63 26 q 111 21 100 21 q 176 38 156 21 q 196 99 196 54 l 196 639 l 214 639 q 224 636 221 639 q 228 628 228 633 q 229 617 229 624 l 229 208 z "},"Ĵ":{"ha":358,"x_min":56,"x_max":332,"o":"m 229 208 q 230 137 229 179 q 226 69 231 94 q 214 35 224 53 q 185 7 204 18 q 133 -4 165 -4 q 113 -4 126 -4 q 85 -2 100 -4 q 56 3 69 0 l 56 29 q 81 24 63 26 q 111 21 100 21 q 176 38 156 21 q 196 99 196 54 l 196 639 l 214 639 q 224 636 221 639 q 228 628 228 633 q 229 617 229 624 l 229 208 m 94 724 l 200 840 l 225 840 l 332 724 l 307 724 l 213 815 l 118 724 l 94 724 z "},"K":{"ha":643,"x_min":136,"x_max":610,"o":"m 593 -1 q 575 3 583 -1 q 556 17 567 7 q 526 52 549 25 q 472 115 503 79 q 410 188 442 151 q 356 253 379 225 q 325 290 333 281 q 301 311 311 306 q 263 318 290 317 l 169 318 l 169 0 l 136 0 l 136 619 q 138 631 136 626 q 142 637 139 635 q 149 639 144 639 q 160 639 156 639 q 169 639 164 639 q 169 579 169 619 q 169 492 169 539 q 169 406 169 446 q 169 346 169 365 l 264 346 q 297 353 288 346 q 319 374 307 360 q 394 457 357 415 q 471 542 432 499 q 547 628 510 585 q 560 638 554 635 q 572 640 567 640 q 584 638 579 640 q 590 633 589 636 q 570 613 588 632 q 531 568 553 593 q 490 524 508 543 q 431 458 461 492 q 372 394 400 425 q 318 336 343 363 l 324 333 q 363 294 333 328 q 433 211 392 261 q 521 106 475 161 q 610 1 567 50 q 606 1 608 1 q 600 -1 603 0 q 593 -1 597 -1 z "},"Ķ":{"ha":643,"x_min":136,"x_max":610,"o":"m 593 -1 q 575 3 583 -1 q 556 17 567 7 q 526 52 549 25 q 472 115 503 79 q 410 188 442 151 q 356 253 379 225 q 325 290 333 281 q 301 311 311 306 q 263 318 290 317 l 169 318 l 169 0 l 136 0 l 136 619 q 138 631 136 626 q 142 637 139 635 q 149 639 144 639 q 160 639 156 639 q 169 639 164 639 q 169 579 169 619 q 169 492 169 539 q 169 406 169 446 q 169 346 169 365 l 264 346 q 297 353 288 346 q 319 374 307 360 q 394 457 357 415 q 471 542 432 499 q 547 628 510 585 q 560 638 554 635 q 572 640 567 640 q 584 638 579 640 q 590 633 589 636 q 570 613 588 632 q 531 568 553 593 q 490 524 508 543 q 431 458 461 492 q 372 394 400 425 q 318 336 343 363 l 324 333 q 363 294 333 328 q 433 211 392 261 q 521 106 475 161 q 610 1 567 50 q 606 1 608 1 q 600 -1 603 0 q 593 -1 597 -1 m 336 -233 q 348 -197 343 -215 q 356 -162 353 -178 q 360 -139 360 -146 q 358 -139 358 -139 q 356 -139 357 -139 q 338 -135 347 -139 q 329 -117 329 -131 q 338 -97 329 -101 q 363 -93 347 -93 q 378 -95 372 -93 q 386 -103 383 -97 q 389 -119 389 -108 q 381 -161 389 -136 q 365 -207 374 -186 q 353 -233 356 -228 l 336 -233 z "},"L":{"ha":621,"x_min":136,"x_max":606,"o":"m 169 639 l 169 26 l 606 26 l 606 0 l 136 0 l 136 611 q 137 626 136 621 q 141 635 138 632 q 151 639 144 639 l 169 639 z "},"Ǉ":{"ha":979,"x_min":136,"x_max":851,"o":"m 169 639 l 169 26 l 606 26 l 606 0 l 136 0 l 136 611 q 137 626 136 621 q 141 635 138 632 q 151 639 144 639 l 169 639 m 850 208 q 851 137 850 179 q 847 69 851 94 q 835 35 844 53 q 806 7 825 18 q 754 -4 786 -4 q 734 -4 747 -4 q 706 -2 721 -4 q 676 3 690 0 l 676 29 q 702 24 683 26 q 732 21 721 21 q 797 38 776 21 q 817 99 817 54 l 817 639 l 835 639 q 845 636 842 639 q 849 628 849 633 q 850 617 850 624 l 850 208 z "},"Ĺ":{"ha":621,"x_min":125,"x_max":606,"o":"m 169 639 l 169 26 l 606 26 l 606 0 l 136 0 l 136 611 q 137 626 136 621 q 141 635 138 632 q 151 639 144 639 l 169 639 m 125 724 l 256 840 l 279 814 l 146 724 l 125 724 z "},"Ľ":{"ha":621,"x_min":136,"x_max":606,"o":"m 169 639 l 169 26 l 606 26 l 606 0 l 136 0 l 136 611 q 137 626 136 621 q 141 635 138 632 q 151 639 144 639 l 169 639 m 363 461 l 354 639 l 382 639 l 382 461 l 363 461 z "},"Ļ":{"ha":621,"x_min":136,"x_max":606,"o":"m 169 639 l 169 26 l 606 26 l 606 0 l 136 0 l 136 611 q 137 626 136 621 q 141 635 138 632 q 151 639 144 639 l 169 639 m 321 -233 q 333 -197 328 -215 q 341 -162 338 -178 q 344 -139 344 -146 q 342 -139 343 -139 q 340 -139 342 -139 q 323 -135 332 -139 q 314 -117 314 -131 q 323 -97 314 -101 q 347 -93 332 -93 q 363 -95 357 -93 q 371 -103 368 -97 q 374 -119 374 -108 q 366 -161 374 -136 q 349 -207 358 -186 q 338 -233 340 -228 l 321 -233 z "},"Ŀ":{"ha":563,"x_min":136,"x_max":606,"o":"m 169 639 l 169 26 l 606 26 l 606 0 l 136 0 l 136 611 q 137 626 136 621 q 141 635 138 632 q 151 639 144 639 l 169 639 m 325 301 q 333 321 325 317 q 351 325 342 325 q 371 321 363 325 q 379 301 379 317 q 375 287 379 292 q 365 281 371 282 q 353 279 358 279 q 341 281 347 279 q 330 287 335 282 q 325 301 325 292 z "},"Ł":{"ha":572,"x_min":0,"x_max":615,"o":"m 256 282 l 261 263 l 7 169 l 0 190 l 256 282 m 179 639 l 179 26 l 615 26 l 615 0 l 146 0 l 146 611 q 147 626 146 621 q 151 635 147 632 q 161 639 154 639 l 179 639 z "},"M":{"ha":907,"x_min":136,"x_max":771,"o":"m 136 0 l 136 594 q 138 633 136 626 q 157 639 140 639 l 175 639 l 446 42 l 449 35 l 450 39 l 453 46 l 725 639 l 744 639 q 765 637 760 639 q 771 615 771 635 l 771 26 q 769 11 771 17 q 765 3 768 6 q 754 0 761 0 l 736 0 l 736 599 l 732 590 l 463 0 l 429 0 l 167 578 l 164 585 l 164 0 l 136 0 z "},"N":{"ha":826,"x_min":136,"x_max":690,"o":"m 136 0 l 136 594 q 138 633 136 626 q 157 639 140 639 l 176 639 l 658 36 l 660 51 l 660 639 l 690 639 q 688 632 689 638 q 688 620 688 626 q 688 607 688 614 l 688 44 q 685 7 688 14 q 665 0 682 0 l 644 0 l 164 603 l 164 592 l 164 0 l 136 0 z "},"Ǌ":{"ha":1185,"x_min":136,"x_max":1057,"o":"m 136 0 l 136 594 q 138 633 136 626 q 157 639 140 639 l 176 639 l 658 36 l 660 51 l 660 639 l 690 639 q 688 632 689 638 q 688 620 688 626 q 688 607 688 614 l 688 44 q 685 7 688 14 q 665 0 682 0 l 644 0 l 164 603 l 164 592 l 164 0 l 136 0 m 1056 208 q 1056 137 1056 179 q 1053 69 1057 94 q 1040 35 1050 53 q 1011 7 1031 18 q 960 -4 992 -4 q 940 -4 953 -4 q 911 -2 926 -4 q 882 3 896 0 l 882 29 q 908 24 889 26 q 938 21 926 21 q 1002 38 982 21 q 1022 99 1022 54 l 1022 639 l 1040 639 q 1051 636 1047 639 q 1055 628 1054 633 q 1056 617 1056 624 l 1056 208 z "},"Ń":{"ha":826,"x_min":136,"x_max":690,"o":"m 136 0 l 136 594 q 138 633 136 626 q 157 639 140 639 l 176 639 l 658 36 l 660 51 l 660 639 l 690 639 q 688 632 689 638 q 688 620 688 626 q 688 607 688 614 l 688 44 q 685 7 688 14 q 665 0 682 0 l 644 0 l 164 603 l 164 592 l 164 0 l 136 0 m 383 724 l 514 840 l 538 814 l 404 724 l 383 724 z "},"Ň":{"ha":826,"x_min":136,"x_max":690,"o":"m 294 840 l 318 840 l 413 749 l 507 840 l 532 840 l 425 724 l 400 724 l 294 840 m 136 0 l 136 594 q 138 633 136 626 q 157 639 140 639 l 176 639 l 658 36 l 660 51 l 660 639 l 690 639 q 688 632 689 638 q 688 620 688 626 q 688 607 688 614 l 688 44 q 685 7 688 14 q 665 0 682 0 l 644 0 l 164 603 l 164 592 l 164 0 l 136 0 z "},"Ņ":{"ha":826,"x_min":136,"x_max":690,"o":"m 136 0 l 136 594 q 138 633 136 626 q 157 639 140 639 l 176 639 l 658 36 l 660 51 l 660 639 l 690 639 q 688 632 689 638 q 688 620 688 626 q 688 607 688 614 l 688 44 q 685 7 688 14 q 665 0 682 0 l 644 0 l 164 603 l 164 592 l 164 0 l 136 0 m 388 -233 q 399 -197 394 -215 q 408 -162 404 -178 q 411 -139 411 -146 q 409 -139 410 -139 q 407 -139 408 -139 q 390 -135 399 -139 q 381 -117 381 -131 q 390 -97 381 -101 q 414 -93 399 -93 q 429 -95 424 -93 q 438 -103 435 -97 q 440 -119 440 -108 q 433 -161 440 -136 q 416 -207 425 -186 q 404 -233 407 -228 l 388 -233 z "},"Ñ":{"ha":826,"x_min":136,"x_max":690,"o":"m 136 0 l 136 594 q 138 633 136 626 q 157 639 140 639 l 176 639 l 658 36 l 660 51 l 660 639 l 690 639 q 688 632 689 638 q 688 620 688 626 q 688 607 688 614 l 688 44 q 685 7 688 14 q 665 0 682 0 l 644 0 l 164 603 l 164 592 l 164 0 l 136 0 m 475 721 q 432 733 453 721 q 390 756 411 744 q 347 767 368 767 q 312 753 325 767 q 293 729 299 740 l 278 740 q 284 753 279 744 q 298 772 289 763 q 319 790 307 782 q 350 797 332 797 q 393 785 372 797 q 434 760 414 772 q 474 749 454 749 q 515 765 501 749 q 532 792 528 781 l 547 778 q 541 765 546 774 q 528 746 536 756 q 506 728 519 736 q 475 721 493 721 z "},"O":{"ha":785,"x_min":75,"x_max":710,"o":"m 385 -10 q 263 1 319 -10 q 165 44 207 11 q 99 142 122 76 q 75 321 75 208 q 101 503 75 436 q 173 601 128 569 q 277 642 218 633 q 400 651 336 651 q 522 641 465 651 q 620 598 578 631 q 686 499 663 565 q 710 321 710 433 q 683 139 710 206 q 612 40 657 72 q 508 -1 567 8 q 385 -10 450 -10 m 390 15 q 510 26 457 15 q 599 67 563 36 q 656 159 636 99 q 675 321 675 219 q 656 482 675 421 q 599 574 636 543 q 510 616 563 606 q 390 626 457 626 q 272 616 324 626 q 183 574 219 606 q 128 482 147 543 q 110 321 110 421 q 128 159 110 219 q 183 67 147 99 q 272 26 219 36 q 390 15 324 15 z "},"Œ":{"ha":1208,"x_min":75,"x_max":1231,"o":"m 385 -10 q 263 1 319 -10 q 165 44 207 11 q 99 142 122 76 q 75 321 75 208 q 101 503 75 436 q 173 601 128 569 q 277 642 218 633 q 400 651 336 651 q 522 641 465 651 q 620 598 578 631 q 686 499 663 565 q 710 321 710 433 q 683 139 710 206 q 612 40 657 72 q 508 -1 567 8 q 385 -10 450 -10 m 390 15 q 510 26 457 15 q 599 67 563 36 q 656 159 636 99 q 675 321 675 219 q 656 482 675 421 q 599 574 636 543 q 510 616 563 606 q 390 626 457 626 q 272 616 324 626 q 183 574 219 606 q 128 482 147 543 q 110 321 110 421 q 128 159 110 219 q 183 67 147 99 q 272 26 219 36 q 390 15 324 15 m 719 0 l 719 611 q 722 632 719 625 q 735 639 724 639 l 1231 639 l 1231 613 l 753 613 l 753 353 l 1194 353 l 1194 326 l 753 326 l 753 26 l 1231 26 l 1231 0 l 719 0 z "},"Ó":{"ha":785,"x_min":75,"x_max":710,"o":"m 385 -10 q 263 1 319 -10 q 165 44 207 11 q 99 142 122 76 q 75 321 75 208 q 101 503 75 436 q 173 601 128 569 q 277 642 218 633 q 400 651 336 651 q 522 641 465 651 q 620 598 578 631 q 686 499 663 565 q 710 321 710 433 q 683 139 710 206 q 612 40 657 72 q 508 -1 567 8 q 385 -10 450 -10 m 390 15 q 510 26 457 15 q 599 67 563 36 q 656 159 636 99 q 675 321 675 219 q 656 482 675 421 q 599 574 636 543 q 510 616 563 606 q 390 626 457 626 q 272 616 324 626 q 183 574 219 606 q 128 482 147 543 q 110 321 110 421 q 128 159 110 219 q 183 67 147 99 q 272 26 219 36 q 390 15 324 15 m 363 724 l 493 840 l 517 814 l 383 724 l 363 724 z "},"Ŏ":{"ha":785,"x_min":75,"x_max":710,"o":"m 385 -10 q 263 1 319 -10 q 165 44 207 11 q 99 142 122 76 q 75 321 75 208 q 101 503 75 436 q 173 601 128 569 q 277 642 218 633 q 400 651 336 651 q 522 641 465 651 q 620 598 578 631 q 686 499 663 565 q 710 321 710 433 q 683 139 710 206 q 612 40 657 72 q 508 -1 567 8 q 385 -10 450 -10 m 390 15 q 510 26 457 15 q 599 67 563 36 q 656 159 636 99 q 675 321 675 219 q 656 482 675 421 q 599 574 636 543 q 510 616 563 606 q 390 626 457 626 q 272 616 324 626 q 183 574 219 606 q 128 482 147 543 q 110 321 110 421 q 128 159 110 219 q 183 67 147 99 q 272 26 219 36 q 390 15 324 15 m 393 724 q 334 731 363 724 q 286 761 306 738 q 265 832 267 785 l 265 839 l 293 839 l 293 833 q 299 793 293 814 q 326 759 306 772 q 390 746 347 746 q 456 759 435 746 q 485 792 478 772 q 492 833 492 813 l 492 839 l 517 839 l 517 833 q 498 762 517 785 q 451 732 479 739 q 393 724 424 725 z "},"Ô":{"ha":785,"x_min":75,"x_max":710,"o":"m 385 -10 q 263 1 319 -10 q 165 44 207 11 q 99 142 122 76 q 75 321 75 208 q 101 503 75 436 q 173 601 128 569 q 277 642 218 633 q 400 651 336 651 q 522 641 465 651 q 620 598 578 631 q 686 499 663 565 q 710 321 710 433 q 683 139 710 206 q 612 40 657 72 q 508 -1 567 8 q 385 -10 450 -10 m 390 15 q 510 26 457 15 q 599 67 563 36 q 656 159 636 99 q 675 321 675 219 q 656 482 675 421 q 599 574 636 543 q 510 616 563 606 q 390 626 457 626 q 272 616 324 626 q 183 574 219 606 q 128 482 147 543 q 110 321 110 421 q 128 159 110 219 q 183 67 147 99 q 272 26 219 36 q 390 15 324 15 m 274 724 l 379 840 l 404 840 l 511 724 l 486 724 l 392 815 l 297 724 l 274 724 z "},"Ố":{"ha":785,"x_min":75,"x_max":710,"o":"m 385 -10 q 263 1 319 -10 q 165 44 207 11 q 99 142 122 76 q 75 321 75 208 q 101 503 75 436 q 173 601 128 569 q 277 642 218 633 q 400 651 336 651 q 522 641 465 651 q 620 598 578 631 q 686 499 663 565 q 710 321 710 433 q 683 139 710 206 q 612 40 657 72 q 508 -1 567 8 q 385 -10 450 -10 m 390 15 q 510 26 457 15 q 599 67 563 36 q 656 159 636 99 q 675 321 675 219 q 656 482 675 421 q 599 574 636 543 q 510 616 563 606 q 390 626 457 626 q 272 616 324 626 q 183 574 219 606 q 128 482 147 543 q 110 321 110 421 q 128 159 110 219 q 183 67 147 99 q 272 26 219 36 q 390 15 324 15 m 274 724 l 379 840 l 404 840 l 511 724 l 486 724 l 392 815 l 297 724 l 274 724 m 508 819 l 639 936 l 663 910 l 529 819 l 508 819 z "},"Ộ":{"ha":785,"x_min":75,"x_max":710,"o":"m 385 -10 q 263 1 319 -10 q 165 44 207 11 q 99 142 122 76 q 75 321 75 208 q 101 503 75 436 q 173 601 128 569 q 277 642 218 633 q 400 651 336 651 q 522 641 465 651 q 620 598 578 631 q 686 499 663 565 q 710 321 710 433 q 683 139 710 206 q 612 40 657 72 q 508 -1 567 8 q 385 -10 450 -10 m 390 15 q 510 26 457 15 q 599 67 563 36 q 656 159 636 99 q 675 321 675 219 q 656 482 675 421 q 599 574 636 543 q 510 616 563 606 q 390 626 457 626 q 272 616 324 626 q 183 574 219 606 q 128 482 147 543 q 110 321 110 421 q 128 159 110 219 q 183 67 147 99 q 272 26 219 36 q 390 15 324 15 m 393 -151 q 381 -150 388 -151 q 370 -144 375 -149 q 365 -129 365 -139 q 374 -110 365 -114 q 392 -106 382 -106 q 410 -109 403 -106 q 418 -129 418 -112 q 414 -144 418 -139 q 404 -150 410 -149 q 393 -151 399 -151 m 274 724 l 379 840 l 404 840 l 511 724 l 486 724 l 392 815 l 297 724 l 274 724 z "},"Ồ":{"ha":785,"x_min":75,"x_max":710,"o":"m 385 -10 q 263 1 319 -10 q 165 44 207 11 q 99 142 122 76 q 75 321 75 208 q 101 503 75 436 q 173 601 128 569 q 277 642 218 633 q 400 651 336 651 q 522 641 465 651 q 620 598 578 631 q 686 499 663 565 q 710 321 710 433 q 683 139 710 206 q 612 40 657 72 q 508 -1 567 8 q 385 -10 450 -10 m 390 15 q 510 26 457 15 q 599 67 563 36 q 656 159 636 99 q 675 321 675 219 q 656 482 675 421 q 599 574 636 543 q 510 616 563 606 q 390 626 457 626 q 272 616 324 626 q 183 574 219 606 q 128 482 147 543 q 110 321 110 421 q 128 159 110 219 q 183 67 147 99 q 272 26 219 36 q 390 15 324 15 m 274 724 l 379 840 l 404 840 l 511 724 l 486 724 l 392 815 l 297 724 l 274 724 m 558 819 l 426 910 l 450 936 l 581 819 l 558 819 z "},"Ổ":{"ha":785,"x_min":75,"x_max":710,"o":"m 385 -10 q 263 1 319 -10 q 165 44 207 11 q 99 142 122 76 q 75 321 75 208 q 101 503 75 436 q 173 601 128 569 q 277 642 218 633 q 400 651 336 651 q 522 641 465 651 q 620 598 578 631 q 686 499 663 565 q 710 321 710 433 q 683 139 710 206 q 612 40 657 72 q 508 -1 567 8 q 385 -10 450 -10 m 390 15 q 510 26 457 15 q 599 67 563 36 q 656 159 636 99 q 675 321 675 219 q 656 482 675 421 q 599 574 636 543 q 510 616 563 606 q 390 626 457 626 q 272 616 324 626 q 183 574 219 606 q 128 482 147 543 q 110 321 110 421 q 128 159 110 219 q 183 67 147 99 q 272 26 219 36 q 390 15 324 15 m 274 724 l 379 840 l 404 840 l 511 724 l 486 724 l 392 815 l 297 724 l 274 724 m 519 797 l 519 810 q 530 831 519 825 q 553 840 540 836 q 577 849 567 843 q 588 872 588 856 l 588 875 q 575 912 588 901 q 538 922 563 922 q 493 888 503 922 l 471 893 q 493 930 476 917 q 540 943 510 943 q 594 929 576 943 q 613 875 613 915 l 613 872 q 602 839 613 849 q 578 826 592 829 q 553 819 564 824 q 543 801 543 814 l 543 797 l 519 797 z "},"Ỗ":{"ha":785,"x_min":75,"x_max":710,"o":"m 385 -10 q 263 1 319 -10 q 165 44 207 11 q 99 142 122 76 q 75 321 75 208 q 101 503 75 436 q 173 601 128 569 q 277 642 218 633 q 400 651 336 651 q 522 641 465 651 q 620 598 578 631 q 686 499 663 565 q 710 321 710 433 q 683 139 710 206 q 612 40 657 72 q 508 -1 567 8 q 385 -10 450 -10 m 390 15 q 510 26 457 15 q 599 67 563 36 q 656 159 636 99 q 675 321 675 219 q 656 482 675 421 q 599 574 636 543 q 510 616 563 606 q 390 626 457 626 q 272 616 324 626 q 183 574 219 606 q 128 482 147 543 q 110 321 110 421 q 128 159 110 219 q 183 67 147 99 q 272 26 219 36 q 390 15 324 15 m 274 724 l 379 840 l 404 840 l 511 724 l 486 724 l 392 815 l 297 724 l 274 724 m 463 868 q 419 880 440 868 q 377 903 399 892 q 335 914 356 914 q 299 901 313 914 q 281 876 286 888 l 265 888 q 272 901 267 892 q 285 919 276 910 q 307 937 294 929 q 338 944 319 944 q 381 932 360 944 q 422 908 401 919 q 461 896 442 896 q 502 912 489 896 q 519 939 515 928 l 535 925 q 528 912 533 921 q 515 893 524 903 q 494 876 507 883 q 463 868 481 868 z "},"Ȍ":{"ha":785,"x_min":75,"x_max":710,"o":"m 385 -10 q 263 1 319 -10 q 165 44 207 11 q 99 142 122 76 q 75 321 75 208 q 101 503 75 436 q 173 601 128 569 q 277 642 218 633 q 400 651 336 651 q 522 641 465 651 q 620 598 578 631 q 686 499 663 565 q 710 321 710 433 q 683 139 710 206 q 612 40 657 72 q 508 -1 567 8 q 385 -10 450 -10 m 390 15 q 510 26 457 15 q 599 67 563 36 q 656 159 636 99 q 675 321 675 219 q 656 482 675 421 q 599 574 636 543 q 510 616 563 606 q 390 626 457 626 q 272 616 324 626 q 183 574 219 606 q 128 482 147 543 q 110 321 110 421 q 128 159 110 219 q 183 67 147 99 q 272 26 219 36 q 390 15 324 15 m 350 722 l 228 842 l 258 865 l 371 722 l 350 722 m 453 722 l 347 854 l 376 875 l 474 722 l 453 722 z "},"Ö":{"ha":785,"x_min":75,"x_max":710,"o":"m 385 -10 q 263 1 319 -10 q 165 44 207 11 q 99 142 122 76 q 75 321 75 208 q 101 503 75 436 q 173 601 128 569 q 277 642 218 633 q 400 651 336 651 q 522 641 465 651 q 620 598 578 631 q 686 499 663 565 q 710 321 710 433 q 683 139 710 206 q 612 40 657 72 q 508 -1 567 8 q 385 -10 450 -10 m 390 15 q 510 26 457 15 q 599 67 563 36 q 656 159 636 99 q 675 321 675 219 q 656 482 675 421 q 599 574 636 543 q 510 616 563 606 q 390 626 457 626 q 272 616 324 626 q 183 574 219 606 q 128 482 147 543 q 110 321 110 421 q 128 159 110 219 q 183 67 147 99 q 272 26 219 36 q 390 15 324 15 m 471 724 q 451 728 461 724 q 440 750 440 732 q 451 772 440 768 q 469 775 461 775 q 490 772 479 775 q 500 750 500 768 q 492 728 500 732 q 471 724 483 724 m 313 724 q 291 728 300 724 q 282 751 282 732 q 292 772 282 768 q 311 775 301 775 q 331 772 321 775 q 342 751 342 768 q 333 728 342 733 q 313 724 324 724 z "},"Ȫ":{"ha":785,"x_min":75,"x_max":710,"o":"m 385 -10 q 263 1 319 -10 q 165 44 207 11 q 99 142 122 76 q 75 321 75 208 q 101 503 75 436 q 173 601 128 569 q 277 642 218 633 q 400 651 336 651 q 522 641 465 651 q 620 598 578 631 q 686 499 663 565 q 710 321 710 433 q 683 139 710 206 q 612 40 657 72 q 508 -1 567 8 q 385 -10 450 -10 m 390 15 q 510 26 457 15 q 599 67 563 36 q 656 159 636 99 q 675 321 675 219 q 656 482 675 421 q 599 574 636 543 q 510 616 563 606 q 390 626 457 626 q 272 616 324 626 q 183 574 219 606 q 128 482 147 543 q 110 321 110 421 q 128 159 110 219 q 183 67 147 99 q 272 26 219 36 q 390 15 324 15 m 471 724 q 451 728 461 724 q 440 750 440 732 q 451 772 440 768 q 469 775 461 775 q 490 772 479 775 q 500 750 500 768 q 492 728 500 732 q 471 724 483 724 m 313 724 q 291 728 300 724 q 282 751 282 732 q 292 772 282 768 q 311 775 301 775 q 331 772 321 775 q 342 751 342 768 q 333 728 342 733 q 313 724 324 724 m 256 851 l 256 871 l 529 871 l 529 851 l 256 851 z "},"Ȱ":{"ha":785,"x_min":75,"x_max":710,"o":"m 385 -10 q 263 1 319 -10 q 165 44 207 11 q 99 142 122 76 q 75 321 75 208 q 101 503 75 436 q 173 601 128 569 q 277 642 218 633 q 400 651 336 651 q 522 641 465 651 q 620 598 578 631 q 686 499 663 565 q 710 321 710 433 q 683 139 710 206 q 612 40 657 72 q 508 -1 567 8 q 385 -10 450 -10 m 390 15 q 510 26 457 15 q 599 67 563 36 q 656 159 636 99 q 675 321 675 219 q 656 482 675 421 q 599 574 636 543 q 510 616 563 606 q 390 626 457 626 q 272 616 324 626 q 183 574 219 606 q 128 482 147 543 q 110 321 110 421 q 128 159 110 219 q 183 67 147 99 q 272 26 219 36 q 390 15 324 15 m 393 724 q 368 728 378 724 q 358 753 358 733 q 368 780 358 775 q 393 785 378 785 q 417 779 408 785 q 425 753 425 774 q 417 728 425 733 q 393 724 408 724 m 256 871 l 256 890 l 529 890 l 529 871 l 256 871 z "},"Ọ":{"ha":785,"x_min":75,"x_max":710,"o":"m 385 -10 q 263 1 319 -10 q 165 44 207 11 q 99 142 122 76 q 75 321 75 208 q 101 503 75 436 q 173 601 128 569 q 277 642 218 633 q 400 651 336 651 q 522 641 465 651 q 620 598 578 631 q 686 499 663 565 q 710 321 710 433 q 683 139 710 206 q 612 40 657 72 q 508 -1 567 8 q 385 -10 450 -10 m 390 15 q 510 26 457 15 q 599 67 563 36 q 656 159 636 99 q 675 321 675 219 q 656 482 675 421 q 599 574 636 543 q 510 616 563 606 q 390 626 457 626 q 272 616 324 626 q 183 574 219 606 q 128 482 147 543 q 110 321 110 421 q 128 159 110 219 q 183 67 147 99 q 272 26 219 36 q 390 15 324 15 m 393 -151 q 381 -150 388 -151 q 370 -144 375 -149 q 365 -129 365 -139 q 374 -110 365 -114 q 392 -106 382 -106 q 410 -109 403 -106 q 418 -129 418 -112 q 414 -144 418 -139 q 404 -150 410 -149 q 393 -151 399 -151 z "},"Ò":{"ha":785,"x_min":75,"x_max":710,"o":"m 385 -10 q 263 1 319 -10 q 165 44 207 11 q 99 142 122 76 q 75 321 75 208 q 101 503 75 436 q 173 601 128 569 q 277 642 218 633 q 400 651 336 651 q 522 641 465 651 q 620 598 578 631 q 686 499 663 565 q 710 321 710 433 q 683 139 710 206 q 612 40 657 72 q 508 -1 567 8 q 385 -10 450 -10 m 390 15 q 510 26 457 15 q 599 67 563 36 q 656 159 636 99 q 675 321 675 219 q 656 482 675 421 q 599 574 636 543 q 510 616 563 606 q 390 626 457 626 q 272 616 324 626 q 183 574 219 606 q 128 482 147 543 q 110 321 110 421 q 128 159 110 219 q 183 67 147 99 q 272 26 219 36 q 390 15 324 15 m 411 724 l 279 814 l 303 840 l 433 724 l 411 724 z "},"Ỏ":{"ha":785,"x_min":75,"x_max":710,"o":"m 385 -10 q 263 1 319 -10 q 165 44 207 11 q 99 142 122 76 q 75 321 75 208 q 101 503 75 436 q 173 601 128 569 q 277 642 218 633 q 400 651 336 651 q 522 641 465 651 q 620 598 578 631 q 686 499 663 565 q 710 321 710 433 q 683 139 710 206 q 612 40 657 72 q 508 -1 567 8 q 385 -10 450 -10 m 390 15 q 510 26 457 15 q 599 67 563 36 q 656 159 636 99 q 675 321 675 219 q 656 482 675 421 q 599 574 636 543 q 510 616 563 606 q 390 626 457 626 q 272 616 324 626 q 183 574 219 606 q 128 482 147 543 q 110 321 110 421 q 128 159 110 219 q 183 67 147 99 q 272 26 219 36 q 390 15 324 15 m 379 724 l 379 736 q 390 757 379 751 q 413 766 400 763 q 437 776 426 769 q 447 799 447 782 l 447 801 q 435 838 447 828 q 397 849 422 849 q 353 814 363 849 l 331 819 q 353 856 336 843 q 400 869 369 869 q 454 856 436 869 q 472 801 472 842 l 472 799 q 462 765 472 775 q 438 753 451 756 q 413 745 424 750 q 403 728 403 740 l 403 724 l 379 724 z "},"Ơ":{"ha":785,"x_min":75,"x_max":710,"o":"m 385 -10 q 263 1 319 -10 q 165 44 207 11 q 99 142 122 76 q 75 321 75 208 q 101 503 75 436 q 173 601 128 569 q 277 642 218 633 q 400 651 336 651 q 522 641 465 651 q 620 598 578 631 q 686 499 663 565 q 710 321 710 433 q 683 139 710 206 q 612 40 657 72 q 508 -1 567 8 q 385 -10 450 -10 m 390 15 q 510 26 457 15 q 599 67 563 36 q 656 159 636 99 q 675 321 675 219 q 656 482 675 421 q 599 574 636 543 q 510 616 563 606 q 390 626 457 626 q 272 616 324 626 q 183 574 219 606 q 128 482 147 543 q 110 321 110 421 q 128 159 110 219 q 183 67 147 99 q 272 26 219 36 q 390 15 324 15 m 542 617 l 535 639 l 564 639 q 598 651 586 639 q 614 679 610 664 q 618 703 618 694 l 618 735 l 647 735 l 647 707 q 619 639 647 664 q 542 617 590 614 z "},"Ớ":{"ha":785,"x_min":75,"x_max":710,"o":"m 385 -10 q 263 1 319 -10 q 165 44 207 11 q 99 142 122 76 q 75 321 75 208 q 101 503 75 436 q 173 601 128 569 q 277 642 218 633 q 400 651 336 651 q 522 641 465 651 q 620 598 578 631 q 686 499 663 565 q 710 321 710 433 q 683 139 710 206 q 612 40 657 72 q 508 -1 567 8 q 385 -10 450 -10 m 390 15 q 510 26 457 15 q 599 67 563 36 q 656 159 636 99 q 675 321 675 219 q 656 482 675 421 q 599 574 636 543 q 510 616 563 606 q 390 626 457 626 q 272 616 324 626 q 183 574 219 606 q 128 482 147 543 q 110 321 110 421 q 128 159 110 219 q 183 67 147 99 q 272 26 219 36 q 390 15 324 15 m 542 617 l 535 639 l 564 639 q 598 651 586 639 q 614 679 610 664 q 618 703 618 694 l 618 735 l 647 735 l 647 707 q 619 639 647 664 q 542 617 590 614 m 363 724 l 493 840 l 517 814 l 383 724 l 363 724 z "},"Ợ":{"ha":785,"x_min":75,"x_max":710,"o":"m 385 -10 q 263 1 319 -10 q 165 44 207 11 q 99 142 122 76 q 75 321 75 208 q 101 503 75 436 q 173 601 128 569 q 277 642 218 633 q 400 651 336 651 q 522 641 465 651 q 620 598 578 631 q 686 499 663 565 q 710 321 710 433 q 683 139 710 206 q 612 40 657 72 q 508 -1 567 8 q 385 -10 450 -10 m 390 15 q 510 26 457 15 q 599 67 563 36 q 656 159 636 99 q 675 321 675 219 q 656 482 675 421 q 599 574 636 543 q 510 616 563 606 q 390 626 457 626 q 272 616 324 626 q 183 574 219 606 q 128 482 147 543 q 110 321 110 421 q 128 159 110 219 q 183 67 147 99 q 272 26 219 36 q 390 15 324 15 m 542 617 l 535 639 l 564 639 q 598 651 586 639 q 614 679 610 664 q 618 703 618 694 l 618 735 l 647 735 l 647 707 q 619 639 647 664 q 542 617 590 614 m 393 -151 q 381 -150 388 -151 q 370 -144 375 -149 q 365 -129 365 -139 q 374 -110 365 -114 q 392 -106 382 -106 q 410 -109 403 -106 q 418 -129 418 -112 q 414 -144 418 -139 q 404 -150 410 -149 q 393 -151 399 -151 z "},"Ờ":{"ha":785,"x_min":75,"x_max":710,"o":"m 385 -10 q 263 1 319 -10 q 165 44 207 11 q 99 142 122 76 q 75 321 75 208 q 101 503 75 436 q 173 601 128 569 q 277 642 218 633 q 400 651 336 651 q 522 641 465 651 q 620 598 578 631 q 686 499 663 565 q 710 321 710 433 q 683 139 710 206 q 612 40 657 72 q 508 -1 567 8 q 385 -10 450 -10 m 390 15 q 510 26 457 15 q 599 67 563 36 q 656 159 636 99 q 675 321 675 219 q 656 482 675 421 q 599 574 636 543 q 510 616 563 606 q 390 626 457 626 q 272 616 324 626 q 183 574 219 606 q 128 482 147 543 q 110 321 110 421 q 128 159 110 219 q 183 67 147 99 q 272 26 219 36 q 390 15 324 15 m 542 617 l 535 639 l 564 639 q 598 651 586 639 q 614 679 610 664 q 618 703 618 694 l 618 735 l 647 735 l 647 707 q 619 639 647 664 q 542 617 590 614 m 411 724 l 279 814 l 303 840 l 433 724 l 411 724 z "},"Ở":{"ha":785,"x_min":75,"x_max":710,"o":"m 385 -10 q 263 1 319 -10 q 165 44 207 11 q 99 142 122 76 q 75 321 75 208 q 101 503 75 436 q 173 601 128 569 q 277 642 218 633 q 400 651 336 651 q 522 641 465 651 q 620 598 578 631 q 686 499 663 565 q 710 321 710 433 q 683 139 710 206 q 612 40 657 72 q 508 -1 567 8 q 385 -10 450 -10 m 390 15 q 510 26 457 15 q 599 67 563 36 q 656 159 636 99 q 675 321 675 219 q 656 482 675 421 q 599 574 636 543 q 510 616 563 606 q 390 626 457 626 q 272 616 324 626 q 183 574 219 606 q 128 482 147 543 q 110 321 110 421 q 128 159 110 219 q 183 67 147 99 q 272 26 219 36 q 390 15 324 15 m 542 617 l 535 639 l 564 639 q 598 651 586 639 q 614 679 610 664 q 618 703 618 694 l 618 735 l 647 735 l 647 707 q 619 639 647 664 q 542 617 590 614 m 379 724 l 379 736 q 390 757 379 751 q 413 766 400 763 q 437 776 426 769 q 447 799 447 782 l 447 801 q 435 838 447 828 q 397 849 422 849 q 353 814 363 849 l 331 819 q 353 856 336 843 q 400 869 369 869 q 454 856 436 869 q 472 801 472 842 l 472 799 q 462 765 472 775 q 438 753 451 756 q 413 745 424 750 q 403 728 403 740 l 403 724 l 379 724 z "},"Ỡ":{"ha":785,"x_min":75,"x_max":710,"o":"m 385 -10 q 263 1 319 -10 q 165 44 207 11 q 99 142 122 76 q 75 321 75 208 q 101 503 75 436 q 173 601 128 569 q 277 642 218 633 q 400 651 336 651 q 522 641 465 651 q 620 598 578 631 q 686 499 663 565 q 710 321 710 433 q 683 139 710 206 q 612 40 657 72 q 508 -1 567 8 q 385 -10 450 -10 m 390 15 q 510 26 457 15 q 599 67 563 36 q 656 159 636 99 q 675 321 675 219 q 656 482 675 421 q 599 574 636 543 q 510 616 563 606 q 390 626 457 626 q 272 616 324 626 q 183 574 219 606 q 128 482 147 543 q 110 321 110 421 q 128 159 110 219 q 183 67 147 99 q 272 26 219 36 q 390 15 324 15 m 542 617 l 535 639 l 564 639 q 598 651 586 639 q 614 679 610 664 q 618 703 618 694 l 618 735 l 647 735 l 647 707 q 619 639 647 664 q 542 617 590 614 m 454 721 q 411 733 432 721 q 369 756 390 744 q 326 767 347 767 q 291 753 304 767 q 272 729 278 740 l 257 740 q 263 753 258 744 q 277 772 268 763 q 299 790 286 782 q 329 797 311 797 q 372 785 351 797 q 413 760 393 772 q 453 749 433 749 q 494 765 481 749 q 511 792 507 781 l 526 778 q 520 765 525 774 q 507 746 515 756 q 485 728 499 736 q 454 721 472 721 z "},"Ő":{"ha":785,"x_min":75,"x_max":710,"o":"m 385 -10 q 263 1 319 -10 q 165 44 207 11 q 99 142 122 76 q 75 321 75 208 q 101 503 75 436 q 173 601 128 569 q 277 642 218 633 q 400 651 336 651 q 522 641 465 651 q 620 598 578 631 q 686 499 663 565 q 710 321 710 433 q 683 139 710 206 q 612 40 657 72 q 508 -1 567 8 q 385 -10 450 -10 m 390 15 q 510 26 457 15 q 599 67 563 36 q 656 159 636 99 q 675 321 675 219 q 656 482 675 421 q 599 574 636 543 q 510 616 563 606 q 390 626 457 626 q 272 616 324 626 q 183 574 219 606 q 128 482 147 543 q 110 321 110 421 q 128 159 110 219 q 183 67 147 99 q 272 26 219 36 q 390 15 324 15 m 453 724 l 478 840 l 517 840 l 472 724 l 453 724 m 319 724 l 346 840 l 382 840 l 340 724 l 319 724 z "},"Ȏ":{"ha":785,"x_min":75,"x_max":710,"o":"m 385 -10 q 263 1 319 -10 q 165 44 207 11 q 99 142 122 76 q 75 321 75 208 q 101 503 75 436 q 173 601 128 569 q 277 642 218 633 q 400 651 336 651 q 522 641 465 651 q 620 598 578 631 q 686 499 663 565 q 710 321 710 433 q 683 139 710 206 q 612 40 657 72 q 508 -1 567 8 q 385 -10 450 -10 m 390 15 q 510 26 457 15 q 599 67 563 36 q 656 159 636 99 q 675 321 675 219 q 656 482 675 421 q 599 574 636 543 q 510 616 563 606 q 390 626 457 626 q 272 616 324 626 q 183 574 219 606 q 128 482 147 543 q 110 321 110 421 q 128 159 110 219 q 183 67 147 99 q 272 26 219 36 q 390 15 324 15 m 265 724 l 265 731 q 286 802 267 779 q 334 833 306 825 q 393 839 363 840 q 451 831 424 839 q 498 801 479 824 q 517 729 517 778 l 517 724 l 492 724 l 492 729 q 485 770 492 750 q 456 803 478 790 q 390 817 435 817 q 326 803 347 817 q 299 770 306 790 q 293 729 293 750 l 293 724 l 265 724 z "},"Ō":{"ha":785,"x_min":75,"x_max":710,"o":"m 385 -10 q 263 1 319 -10 q 165 44 207 11 q 99 142 122 76 q 75 321 75 208 q 101 503 75 436 q 173 601 128 569 q 277 642 218 633 q 400 651 336 651 q 522 641 465 651 q 620 598 578 631 q 686 499 663 565 q 710 321 710 433 q 683 139 710 206 q 612 40 657 72 q 508 -1 567 8 q 385 -10 450 -10 m 390 15 q 510 26 457 15 q 599 67 563 36 q 656 159 636 99 q 675 321 675 219 q 656 482 675 421 q 599 574 636 543 q 510 616 563 606 q 390 626 457 626 q 272 616 324 626 q 183 574 219 606 q 128 482 147 543 q 110 321 110 421 q 128 159 110 219 q 183 67 147 99 q 272 26 219 36 q 390 15 324 15 m 256 725 l 256 744 l 529 744 l 529 725 l 256 725 z "},"Ω":{"ha":767,"x_min":75,"x_max":692,"o":"m 86 0 q 81 14 83 7 q 75 26 78 21 q 169 21 124 21 q 258 18 214 21 q 228 49 253 22 q 173 125 203 76 q 122 244 143 174 q 100 406 100 314 q 141 569 100 510 q 247 653 182 628 q 385 678 313 678 q 524 653 458 678 q 630 569 589 628 q 671 406 671 510 q 649 244 671 314 q 599 125 628 174 q 545 49 569 76 q 514 18 521 22 q 601 21 558 21 q 692 26 644 21 q 685 14 689 21 q 679 0 682 7 q 560 0 619 0 q 440 0 501 0 q 521 56 485 18 q 583 144 557 93 q 624 253 610 194 q 639 374 639 313 q 621 507 639 453 q 569 593 603 561 q 489 640 536 625 q 385 654 442 654 q 281 640 328 654 q 201 593 235 625 q 150 507 168 561 q 132 374 132 453 q 147 253 132 313 q 188 144 161 194 q 251 56 214 93 q 331 0 288 18 q 208 0 269 0 q 86 0 147 0 z "},"Ǫ":{"ha":785,"x_min":75,"x_max":710,"o":"m 385 -10 q 263 1 319 -10 q 165 44 207 11 q 99 142 122 76 q 75 321 75 208 q 101 503 75 436 q 173 601 128 569 q 277 642 218 633 q 400 651 336 651 q 522 641 465 651 q 620 598 578 631 q 686 499 663 565 q 710 321 710 433 q 683 139 710 206 q 612 40 657 72 q 508 -1 567 8 q 385 -10 450 -10 m 390 15 q 510 26 457 15 q 599 67 563 36 q 656 159 636 99 q 675 321 675 219 q 656 482 675 421 q 599 574 636 543 q 510 616 563 606 q 390 626 457 626 q 272 616 324 626 q 183 574 219 606 q 128 482 147 543 q 110 321 110 421 q 128 159 110 219 q 183 67 147 99 q 272 26 219 36 q 390 15 324 15 m 435 -235 q 365 -228 393 -235 q 322 -201 336 -221 q 307 -146 307 -182 q 324 -92 307 -118 q 363 -45 340 -67 q 409 -8 386 -24 q 444 15 432 8 l 474 15 q 442 -5 464 11 q 396 -43 419 -21 q 355 -90 372 -65 q 338 -137 338 -115 q 363 -199 338 -185 q 431 -214 388 -214 q 453 -213 442 -214 q 474 -212 465 -212 q 486 -211 483 -211 q 483 -225 486 -219 q 469 -233 479 -231 q 435 -235 458 -235 z "},"Ø":{"ha":746,"x_min":57,"x_max":690,"o":"m 57 321 q 83 503 57 436 q 156 601 110 569 q 260 642 201 633 q 382 651 318 651 q 503 641 447 651 q 601 599 558 631 q 667 500 643 567 q 690 321 690 433 q 664 139 690 206 q 592 40 638 72 q 488 -1 546 8 q 365 -10 429 -10 q 244 1 300 -10 q 146 43 188 11 q 81 142 104 75 q 57 321 57 208 m 656 319 q 636 482 656 421 q 580 574 617 543 q 491 616 543 606 q 372 626 439 626 q 253 616 306 626 q 165 574 201 606 q 110 482 129 543 q 92 319 92 421 q 110 158 92 219 q 165 67 129 97 q 253 26 201 36 q 372 15 306 15 q 491 26 439 15 q 580 67 543 36 q 636 158 617 97 q 656 319 656 219 m 168 -114 l 492 729 l 518 729 l 192 -114 l 168 -114 z "},"Ǿ":{"ha":746,"x_min":57,"x_max":690,"o":"m 57 321 q 83 503 57 436 q 156 601 110 569 q 260 642 201 633 q 382 651 318 651 q 503 641 447 651 q 601 599 558 631 q 667 500 643 567 q 690 321 690 433 q 664 139 690 206 q 592 40 638 72 q 488 -1 546 8 q 365 -10 429 -10 q 244 1 300 -10 q 146 43 188 11 q 81 142 104 75 q 57 321 57 208 m 656 319 q 636 482 656 421 q 580 574 617 543 q 491 616 543 606 q 372 626 439 626 q 253 616 306 626 q 165 574 201 606 q 110 482 129 543 q 92 319 92 421 q 110 158 92 219 q 165 67 129 97 q 253 26 201 36 q 372 15 306 15 q 491 26 439 15 q 580 67 543 36 q 636 158 617 97 q 656 319 656 219 m 168 -114 l 492 729 l 518 729 l 192 -114 l 168 -114 m 344 724 l 475 840 l 499 814 l 365 724 l 344 724 z "},"Õ":{"ha":785,"x_min":75,"x_max":710,"o":"m 385 -10 q 263 1 319 -10 q 165 44 207 11 q 99 142 122 76 q 75 321 75 208 q 101 503 75 436 q 173 601 128 569 q 277 642 218 633 q 400 651 336 651 q 522 641 465 651 q 620 598 578 631 q 686 499 663 565 q 710 321 710 433 q 683 139 710 206 q 612 40 657 72 q 508 -1 567 8 q 385 -10 450 -10 m 390 15 q 510 26 457 15 q 599 67 563 36 q 656 159 636 99 q 675 321 675 219 q 656 482 675 421 q 599 574 636 543 q 510 616 563 606 q 390 626 457 626 q 272 616 324 626 q 183 574 219 606 q 128 482 147 543 q 110 321 110 421 q 128 159 110 219 q 183 67 147 99 q 272 26 219 36 q 390 15 324 15 m 454 721 q 411 733 432 721 q 369 756 390 744 q 326 767 347 767 q 291 753 304 767 q 272 729 278 740 l 257 740 q 263 753 258 744 q 277 772 268 763 q 299 790 286 782 q 329 797 311 797 q 372 785 351 797 q 413 760 393 772 q 453 749 433 749 q 494 765 481 749 q 511 792 507 781 l 526 778 q 520 765 525 774 q 507 746 515 756 q 485 728 499 736 q 454 721 472 721 z "},"Ȭ":{"ha":785,"x_min":75,"x_max":710,"o":"m 385 -10 q 263 1 319 -10 q 165 44 207 11 q 99 142 122 76 q 75 321 75 208 q 101 503 75 436 q 173 601 128 569 q 277 642 218 633 q 400 651 336 651 q 522 641 465 651 q 620 598 578 631 q 686 499 663 565 q 710 321 710 433 q 683 139 710 206 q 612 40 657 72 q 508 -1 567 8 q 385 -10 450 -10 m 390 15 q 510 26 457 15 q 599 67 563 36 q 656 159 636 99 q 675 321 675 219 q 656 482 675 421 q 599 574 636 543 q 510 616 563 606 q 390 626 457 626 q 272 616 324 626 q 183 574 219 606 q 128 482 147 543 q 110 321 110 421 q 128 159 110 219 q 183 67 147 99 q 272 26 219 36 q 390 15 324 15 m 454 721 q 411 733 432 721 q 369 756 390 744 q 326 767 347 767 q 291 753 304 767 q 272 729 278 740 l 257 740 q 263 753 258 744 q 277 772 268 763 q 299 790 286 782 q 329 797 311 797 q 372 785 351 797 q 413 760 393 772 q 453 749 433 749 q 494 765 481 749 q 511 792 507 781 l 526 778 q 520 765 525 774 q 507 746 515 756 q 485 728 499 736 q 454 721 472 721 m 256 842 l 256 861 l 529 861 l 529 842 l 256 842 z "},"P":{"ha":719,"x_min":129,"x_max":663,"o":"m 129 0 q 129 288 129 144 q 129 574 129 431 q 147 626 129 615 q 194 639 164 638 q 297 641 238 640 q 416 641 357 642 q 513 638 475 640 q 600 613 567 633 q 648 555 633 592 q 663 467 663 518 q 640 362 663 404 q 577 299 618 319 q 478 278 536 278 q 351 278 414 278 q 222 278 288 278 q 223 290 222 285 q 228 300 224 296 q 242 304 232 304 q 300 304 258 304 q 390 304 342 304 q 474 304 438 304 q 549 318 514 304 q 605 368 583 332 q 626 471 626 404 q 600 568 626 532 q 514 610 574 604 q 403 616 465 615 q 287 615 342 617 q 200 613 232 614 q 178 607 194 613 q 163 575 163 601 q 163 288 163 432 q 163 0 163 144 l 129 0 z "},"Q":{"ha":785,"x_min":75,"x_max":710,"o":"m 385 -10 q 263 1 319 -10 q 165 44 207 11 q 99 142 122 76 q 75 321 75 208 q 101 503 75 436 q 173 601 128 569 q 277 642 218 633 q 400 651 336 651 q 522 641 465 651 q 620 598 578 631 q 686 499 663 565 q 710 321 710 433 q 683 139 710 206 q 612 40 657 72 q 508 -1 567 8 q 385 -10 450 -10 m 390 15 q 510 26 457 15 q 599 67 563 36 q 656 159 636 99 q 675 321 675 219 q 656 482 675 421 q 599 574 636 543 q 510 616 563 606 q 390 626 457 626 q 272 616 324 626 q 183 574 219 606 q 128 482 147 543 q 110 321 110 421 q 128 159 110 219 q 183 67 147 99 q 272 26 219 36 q 390 15 324 15 m 635 -104 q 616 -98 625 -104 q 596 -81 607 -92 q 562 -41 586 -69 q 507 24 538 -12 q 446 96 476 60 q 392 159 415 132 q 363 194 369 186 q 371 201 367 200 q 381 203 375 203 q 395 197 388 203 q 411 179 403 190 q 438 148 417 174 q 490 86 460 122 q 551 13 519 50 q 611 -55 583 -25 q 654 -97 639 -85 q 646 -102 650 -100 q 635 -104 642 -104 z "},"R":{"ha":782,"x_min":129,"x_max":686,"o":"m 515 292 q 469 292 515 292 q 343 292 422 292 q 163 290 264 292 l 163 0 l 129 0 l 129 575 q 147 626 129 615 q 194 639 164 638 q 244 640 215 640 q 308 641 274 640 q 378 642 343 642 q 447 642 414 642 q 508 640 481 642 q 553 638 535 639 q 656 588 625 631 q 686 468 686 544 q 665 374 686 413 q 606 317 644 336 q 599 315 604 315 q 592 314 594 314 l 592 313 q 599 313 594 313 q 604 313 603 313 q 669 269 657 303 q 681 203 681 236 l 681 22 q 681 9 681 17 q 683 0 682 1 l 667 0 q 651 4 657 0 q 646 31 646 8 l 646 210 q 627 272 646 253 q 561 292 608 292 l 515 292 m 163 319 q 234 319 186 319 q 338 317 282 318 q 442 317 394 317 q 513 317 490 317 q 608 349 567 317 q 650 471 650 382 q 626 568 650 532 q 550 610 603 604 q 467 615 517 614 q 365 616 418 617 q 268 615 313 615 q 200 613 224 614 q 178 607 194 613 q 163 575 163 601 l 163 319 z "},"Ŕ":{"ha":782,"x_min":129,"x_max":686,"o":"m 515 292 q 469 292 515 292 q 343 292 422 292 q 163 290 264 292 l 163 0 l 129 0 l 129 575 q 147 626 129 615 q 194 639 164 638 q 244 640 215 640 q 308 641 274 640 q 378 642 343 642 q 447 642 414 642 q 508 640 481 642 q 553 638 535 639 q 656 588 625 631 q 686 468 686 544 q 665 374 686 413 q 606 317 644 336 q 599 315 604 315 q 592 314 594 314 l 592 313 q 599 313 594 313 q 604 313 603 313 q 669 269 657 303 q 681 203 681 236 l 681 22 q 681 9 681 17 q 683 0 682 1 l 667 0 q 651 4 657 0 q 646 31 646 8 l 646 210 q 627 272 646 253 q 561 292 608 292 l 515 292 m 163 319 q 234 319 186 319 q 338 317 282 318 q 442 317 394 317 q 513 317 490 317 q 608 349 567 317 q 650 471 650 382 q 626 568 650 532 q 550 610 603 604 q 467 615 517 614 q 365 616 418 617 q 268 615 313 615 q 200 613 224 614 q 178 607 194 613 q 163 575 163 601 l 163 319 m 374 724 l 504 840 l 528 814 l 394 724 l 374 724 z "},"Ř":{"ha":782,"x_min":129,"x_max":686,"o":"m 285 840 l 308 840 l 403 749 l 497 840 l 522 840 l 415 724 l 390 724 l 285 840 m 515 292 q 469 292 515 292 q 343 292 422 292 q 163 290 264 292 l 163 0 l 129 0 l 129 575 q 147 626 129 615 q 194 639 164 638 q 244 640 215 640 q 308 641 274 640 q 378 642 343 642 q 447 642 414 642 q 508 640 481 642 q 553 638 535 639 q 656 588 625 631 q 686 468 686 544 q 665 374 686 413 q 606 317 644 336 q 599 315 604 315 q 592 314 594 314 l 592 313 q 599 313 594 313 q 604 313 603 313 q 669 269 657 303 q 681 203 681 236 l 681 22 q 681 9 681 17 q 683 0 682 1 l 667 0 q 651 4 657 0 q 646 31 646 8 l 646 210 q 627 272 646 253 q 561 292 608 292 l 515 292 m 163 319 q 234 319 186 319 q 338 317 282 318 q 442 317 394 317 q 513 317 490 317 q 608 349 567 317 q 650 471 650 382 q 626 568 650 532 q 550 610 603 604 q 467 615 517 614 q 365 616 418 617 q 268 615 313 615 q 200 613 224 614 q 178 607 194 613 q 163 575 163 601 l 163 319 z "},"Ŗ":{"ha":782,"x_min":129,"x_max":686,"o":"m 515 292 q 469 292 515 292 q 343 292 422 292 q 163 290 264 292 l 163 0 l 129 0 l 129 575 q 147 626 129 615 q 194 639 164 638 q 244 640 215 640 q 308 641 274 640 q 378 642 343 642 q 447 642 414 642 q 508 640 481 642 q 553 638 535 639 q 656 588 625 631 q 686 468 686 544 q 665 374 686 413 q 606 317 644 336 q 599 315 604 315 q 592 314 594 314 l 592 313 q 599 313 594 313 q 604 313 603 313 q 669 269 657 303 q 681 203 681 236 l 681 22 q 681 9 681 17 q 683 0 682 1 l 667 0 q 651 4 657 0 q 646 31 646 8 l 646 210 q 627 272 646 253 q 561 292 608 292 l 515 292 m 163 319 q 234 319 186 319 q 338 317 282 318 q 442 317 394 317 q 513 317 490 317 q 608 349 567 317 q 650 471 650 382 q 626 568 650 532 q 550 610 603 604 q 467 615 517 614 q 365 616 418 617 q 268 615 313 615 q 200 613 224 614 q 178 607 194 613 q 163 575 163 601 l 163 319 m 378 -233 q 390 -197 385 -215 q 398 -162 394 -178 q 401 -139 401 -146 q 399 -139 400 -139 q 397 -139 399 -139 q 380 -135 389 -139 q 371 -117 371 -131 q 380 -97 371 -101 q 404 -93 389 -93 q 419 -95 414 -93 q 428 -103 425 -97 q 431 -119 431 -108 q 423 -161 431 -136 q 406 -207 415 -186 q 394 -233 397 -228 l 378 -233 z "},"Ȑ":{"ha":782,"x_min":129,"x_max":686,"o":"m 515 292 q 469 292 515 292 q 343 292 422 292 q 163 290 264 292 l 163 0 l 129 0 l 129 575 q 147 626 129 615 q 194 639 164 638 q 244 640 215 640 q 308 641 274 640 q 378 642 343 642 q 447 642 414 642 q 508 640 481 642 q 553 638 535 639 q 656 588 625 631 q 686 468 686 544 q 665 374 686 413 q 606 317 644 336 q 599 315 604 315 q 592 314 594 314 l 592 313 q 599 313 594 313 q 604 313 603 313 q 669 269 657 303 q 681 203 681 236 l 681 22 q 681 9 681 17 q 683 0 682 1 l 667 0 q 651 4 657 0 q 646 31 646 8 l 646 210 q 627 272 646 253 q 561 292 608 292 l 515 292 m 163 319 q 234 319 186 319 q 338 317 282 318 q 442 317 394 317 q 513 317 490 317 q 608 349 567 317 q 650 471 650 382 q 626 568 650 532 q 550 610 603 604 q 467 615 517 614 q 365 616 418 617 q 268 615 313 615 q 200 613 224 614 q 178 607 194 613 q 163 575 163 601 l 163 319 m 361 722 l 239 842 l 269 865 l 382 722 l 361 722 m 464 722 l 358 854 l 388 875 l 485 722 l 464 722 z "},"Ȓ":{"ha":782,"x_min":129,"x_max":686,"o":"m 515 292 q 469 292 515 292 q 343 292 422 292 q 163 290 264 292 l 163 0 l 129 0 l 129 575 q 147 626 129 615 q 194 639 164 638 q 244 640 215 640 q 308 641 274 640 q 378 642 343 642 q 447 642 414 642 q 508 640 481 642 q 553 638 535 639 q 656 588 625 631 q 686 468 686 544 q 665 374 686 413 q 606 317 644 336 q 599 315 604 315 q 592 314 594 314 l 592 313 q 599 313 594 313 q 604 313 603 313 q 669 269 657 303 q 681 203 681 236 l 681 22 q 681 9 681 17 q 683 0 682 1 l 667 0 q 651 4 657 0 q 646 31 646 8 l 646 210 q 627 272 646 253 q 561 292 608 292 l 515 292 m 163 319 q 234 319 186 319 q 338 317 282 318 q 442 317 394 317 q 513 317 490 317 q 608 349 567 317 q 650 471 650 382 q 626 568 650 532 q 550 610 603 604 q 467 615 517 614 q 365 616 418 617 q 268 615 313 615 q 200 613 224 614 q 178 607 194 613 q 163 575 163 601 l 163 319 m 276 724 l 276 731 q 297 802 278 779 q 345 833 317 825 q 404 839 374 840 q 463 831 435 839 q 509 801 490 824 q 528 729 528 778 l 528 724 l 503 724 l 503 729 q 496 770 503 750 q 467 803 489 790 q 401 817 446 817 q 338 803 358 817 q 310 770 317 790 q 304 729 304 750 l 304 724 l 276 724 z "},"S":{"ha":707,"x_min":79,"x_max":632,"o":"m 82 64 q 151 33 108 43 q 239 21 193 24 q 318 18 285 18 q 344 18 331 18 q 369 19 357 18 q 488 36 436 22 q 568 85 539 50 q 597 188 597 121 q 556 292 597 269 q 439 315 515 315 q 390 315 415 315 q 340 315 365 315 q 290 315 315 315 q 217 319 254 315 q 148 335 179 322 q 98 378 117 349 q 79 463 79 408 q 103 563 79 526 q 170 617 128 600 q 266 640 213 635 q 378 644 319 644 q 458 642 413 644 q 544 633 503 640 q 610 610 586 626 q 621 601 617 606 q 625 590 625 597 q 625 582 625 586 q 625 574 625 578 q 625 565 625 569 q 582 592 611 582 q 518 608 553 603 q 451 616 483 614 q 400 618 419 618 l 344 618 q 233 609 286 618 q 145 567 179 600 q 111 464 111 535 q 134 383 111 408 q 198 350 157 357 q 292 343 239 343 q 363 343 328 343 q 433 343 399 343 q 535 333 490 343 q 606 290 581 324 q 632 185 632 257 q 598 72 632 113 q 506 14 564 31 q 375 -7 449 -3 q 346 -8 361 -8 q 315 -8 331 -8 q 258 -6 296 -8 q 179 1 219 -4 q 110 18 139 7 q 82 49 82 29 l 82 64 z "},"Ś":{"ha":707,"x_min":79,"x_max":632,"o":"m 82 64 q 151 33 108 43 q 239 21 193 24 q 318 18 285 18 q 344 18 331 18 q 369 19 357 18 q 488 36 436 22 q 568 85 539 50 q 597 188 597 121 q 556 292 597 269 q 439 315 515 315 q 390 315 415 315 q 340 315 365 315 q 290 315 315 315 q 217 319 254 315 q 148 335 179 322 q 98 378 117 349 q 79 463 79 408 q 103 563 79 526 q 170 617 128 600 q 266 640 213 635 q 378 644 319 644 q 458 642 413 644 q 544 633 503 640 q 610 610 586 626 q 621 601 617 606 q 625 590 625 597 q 625 582 625 586 q 625 574 625 578 q 625 565 625 569 q 582 592 611 582 q 518 608 553 603 q 451 616 483 614 q 400 618 419 618 l 344 618 q 233 609 286 618 q 145 567 179 600 q 111 464 111 535 q 134 383 111 408 q 198 350 157 357 q 292 343 239 343 q 363 343 328 343 q 433 343 399 343 q 535 333 490 343 q 606 290 581 324 q 632 185 632 257 q 598 72 632 113 q 506 14 564 31 q 375 -7 449 -3 q 346 -8 361 -8 q 315 -8 331 -8 q 258 -6 296 -8 q 179 1 219 -4 q 110 18 139 7 q 82 49 82 29 l 82 64 m 349 724 l 479 840 l 503 814 l 369 724 l 349 724 z "},"Š":{"ha":707,"x_min":79,"x_max":632,"o":"m 260 840 l 283 840 l 378 749 l 472 840 l 497 840 l 390 724 l 365 724 l 260 840 m 82 64 q 151 33 108 43 q 239 21 193 24 q 318 18 285 18 q 344 18 331 18 q 369 19 357 18 q 488 36 436 22 q 568 85 539 50 q 597 188 597 121 q 556 292 597 269 q 439 315 515 315 q 390 315 415 315 q 340 315 365 315 q 290 315 315 315 q 217 319 254 315 q 148 335 179 322 q 98 378 117 349 q 79 463 79 408 q 103 563 79 526 q 170 617 128 600 q 266 640 213 635 q 378 644 319 644 q 458 642 413 644 q 544 633 503 640 q 610 610 586 626 q 621 601 617 606 q 625 590 625 597 q 625 582 625 586 q 625 574 625 578 q 625 565 625 569 q 582 592 611 582 q 518 608 553 603 q 451 616 483 614 q 400 618 419 618 l 344 618 q 233 609 286 618 q 145 567 179 600 q 111 464 111 535 q 134 383 111 408 q 198 350 157 357 q 292 343 239 343 q 363 343 328 343 q 433 343 399 343 q 535 333 490 343 q 606 290 581 324 q 632 185 632 257 q 598 72 632 113 q 506 14 564 31 q 375 -7 449 -3 q 346 -8 361 -8 q 315 -8 331 -8 q 258 -6 296 -8 q 179 1 219 -4 q 110 18 139 7 q 82 49 82 29 l 82 64 z "},"Ş":{"ha":707,"x_min":79,"x_max":632,"o":"m 82 64 q 151 33 108 43 q 239 21 193 24 q 318 18 285 18 q 344 18 331 18 q 369 19 357 18 q 488 36 436 22 q 568 85 539 50 q 597 188 597 121 q 556 292 597 269 q 439 315 515 315 q 390 315 415 315 q 340 315 365 315 q 290 315 315 315 q 217 319 254 315 q 148 335 179 322 q 98 378 117 349 q 79 463 79 408 q 103 563 79 526 q 170 617 128 600 q 266 640 213 635 q 378 644 319 644 q 458 642 413 644 q 544 633 503 640 q 610 610 586 626 q 621 601 617 606 q 625 590 625 597 q 625 582 625 586 q 625 574 625 578 q 625 565 625 569 q 582 592 611 582 q 518 608 553 603 q 451 616 483 614 q 400 618 419 618 l 344 618 q 233 609 286 618 q 145 567 179 600 q 111 464 111 535 q 134 383 111 408 q 198 350 157 357 q 292 343 239 343 q 363 343 328 343 q 433 343 399 343 q 535 333 490 343 q 606 290 581 324 q 632 185 632 257 q 598 72 632 113 q 506 14 564 31 q 375 -7 449 -3 q 346 -8 361 -8 q 315 -8 331 -8 q 258 -6 296 -8 q 179 1 219 -4 q 110 18 139 7 q 82 49 82 29 l 82 64 m 324 -257 q 277 -253 292 -257 q 263 -236 263 -249 q 296 -236 269 -236 q 358 -236 322 -236 q 414 -223 400 -236 q 428 -183 428 -210 q 416 -135 428 -146 q 353 -124 404 -124 l 311 -124 q 292 -124 303 -124 q 273 -124 282 -124 q 257 -125 264 -125 q 273 -104 260 -121 q 303 -66 286 -87 q 336 -25 321 -44 q 357 3 351 -6 l 374 3 l 297 -107 q 397 -106 363 -103 q 442 -127 431 -110 q 454 -183 454 -144 q 435 -237 454 -222 q 387 -255 417 -253 q 324 -257 357 -257 z "},"Ə":{"ha":660,"x_min":44,"x_max":599,"o":"m 299 651 q 438 638 381 651 q 530 588 494 624 q 582 488 565 553 q 599 319 599 422 q 574 137 599 210 q 484 28 549 64 q 299 -8 419 -8 q 152 19 208 -8 q 70 106 96 47 q 44 254 44 164 q 54 294 44 278 q 83 318 64 310 q 131 326 103 326 l 590 326 q 585 307 590 315 q 563 299 579 299 l 132 299 q 97 286 114 299 q 79 246 79 274 q 131 75 79 128 q 299 22 183 22 q 458 52 400 22 q 539 148 515 82 q 563 319 563 214 q 538 508 563 443 q 455 597 513 574 q 299 621 397 621 q 246 619 274 621 q 190 615 218 618 q 135 607 161 611 q 90 598 110 603 q 57 586 69 593 l 57 597 q 67 617 57 608 q 107 632 76 626 q 198 647 149 642 q 299 651 247 651 z "},"Ŝ":{"ha":707,"x_min":79,"x_max":632,"o":"m 82 64 q 151 33 108 43 q 239 21 193 24 q 318 18 285 18 q 344 18 331 18 q 369 19 357 18 q 488 36 436 22 q 568 85 539 50 q 597 188 597 121 q 556 292 597 269 q 439 315 515 315 q 390 315 415 315 q 340 315 365 315 q 290 315 315 315 q 217 319 254 315 q 148 335 179 322 q 98 378 117 349 q 79 463 79 408 q 103 563 79 526 q 170 617 128 600 q 266 640 213 635 q 378 644 319 644 q 458 642 413 644 q 544 633 503 640 q 610 610 586 626 q 621 601 617 606 q 625 590 625 597 q 625 582 625 586 q 625 574 625 578 q 625 565 625 569 q 582 592 611 582 q 518 608 553 603 q 451 616 483 614 q 400 618 419 618 l 344 618 q 233 609 286 618 q 145 567 179 600 q 111 464 111 535 q 134 383 111 408 q 198 350 157 357 q 292 343 239 343 q 363 343 328 343 q 433 343 399 343 q 535 333 490 343 q 606 290 581 324 q 632 185 632 257 q 598 72 632 113 q 506 14 564 31 q 375 -7 449 -3 q 346 -8 361 -8 q 315 -8 331 -8 q 258 -6 296 -8 q 179 1 219 -4 q 110 18 139 7 q 82 49 82 29 l 82 64 m 260 724 l 365 840 l 390 840 l 497 724 l 472 724 l 378 815 l 283 724 l 260 724 z "},"Ș":{"ha":707,"x_min":79,"x_max":632,"o":"m 82 64 q 151 33 108 43 q 239 21 193 24 q 318 18 285 18 q 344 18 331 18 q 369 19 357 18 q 488 36 436 22 q 568 85 539 50 q 597 188 597 121 q 556 292 597 269 q 439 315 515 315 q 390 315 415 315 q 340 315 365 315 q 290 315 315 315 q 217 319 254 315 q 148 335 179 322 q 98 378 117 349 q 79 463 79 408 q 103 563 79 526 q 170 617 128 600 q 266 640 213 635 q 378 644 319 644 q 458 642 413 644 q 544 633 503 640 q 610 610 586 626 q 621 601 617 606 q 625 590 625 597 q 625 582 625 586 q 625 574 625 578 q 625 565 625 569 q 582 592 611 582 q 518 608 553 603 q 451 616 483 614 q 400 618 419 618 l 344 618 q 233 609 286 618 q 145 567 179 600 q 111 464 111 535 q 134 383 111 408 q 198 350 157 357 q 292 343 239 343 q 363 343 328 343 q 433 343 399 343 q 535 333 490 343 q 606 290 581 324 q 632 185 632 257 q 598 72 632 113 q 506 14 564 31 q 375 -7 449 -3 q 346 -8 361 -8 q 315 -8 331 -8 q 258 -6 296 -8 q 179 1 219 -4 q 110 18 139 7 q 82 49 82 29 l 82 64 m 336 -233 q 348 -197 343 -215 q 356 -162 353 -178 q 360 -139 360 -146 q 358 -139 358 -139 q 356 -139 357 -139 q 338 -135 347 -139 q 329 -117 329 -131 q 338 -97 329 -101 q 363 -93 347 -93 q 378 -95 372 -93 q 386 -103 383 -97 q 389 -119 389 -108 q 381 -161 389 -136 q 365 -207 374 -186 q 353 -233 356 -228 l 336 -233 z "},"T":{"ha":619,"x_min":35,"x_max":586,"o":"m 35 639 l 586 639 l 586 613 l 326 613 l 326 28 q 324 7 326 14 q 311 0 322 0 l 293 0 l 293 613 l 35 613 l 35 639 z "},"Ŧ":{"ha":607,"x_min":28,"x_max":579,"o":"m 104 426 l 286 426 l 286 613 l 28 613 l 28 639 l 579 639 l 579 613 l 321 613 l 321 426 l 506 426 l 506 414 l 321 414 l 321 28 q 318 7 321 14 q 304 0 315 0 l 286 0 l 286 414 l 104 414 l 104 426 z "},"Ť":{"ha":619,"x_min":35,"x_max":586,"o":"m 192 840 l 215 840 l 310 749 l 404 840 l 429 840 l 322 724 l 297 724 l 192 840 m 35 639 l 586 639 l 586 613 l 326 613 l 326 28 q 324 7 326 14 q 311 0 322 0 l 293 0 l 293 613 l 35 613 l 35 639 z "},"Ţ":{"ha":619,"x_min":35,"x_max":586,"o":"m 35 639 l 586 639 l 586 613 l 326 613 l 326 28 q 324 7 326 14 q 311 0 322 0 l 293 0 l 293 613 l 35 613 l 35 639 m 272 -257 q 226 -253 240 -257 q 211 -236 211 -249 q 244 -236 218 -236 q 307 -236 271 -236 q 363 -223 349 -236 q 376 -183 376 -210 q 365 -135 376 -146 q 301 -124 353 -124 l 260 -124 q 241 -124 251 -124 q 222 -124 231 -124 q 206 -125 213 -125 q 222 -104 208 -121 q 252 -66 235 -87 q 285 -25 269 -44 q 306 3 300 -6 l 322 3 l 246 -107 q 345 -106 311 -103 q 391 -127 379 -110 q 403 -183 403 -144 q 384 -237 403 -222 q 335 -255 365 -253 q 272 -257 306 -257 z "},"Ț":{"ha":619,"x_min":35,"x_max":586,"o":"m 35 639 l 586 639 l 586 613 l 326 613 l 326 28 q 324 7 326 14 q 311 0 322 0 l 293 0 l 293 613 l 35 613 l 35 639 m 285 -233 q 297 -197 292 -215 q 305 -162 301 -178 q 308 -139 308 -146 q 306 -139 307 -139 q 304 -139 306 -139 q 287 -135 296 -139 q 278 -117 278 -131 q 287 -97 278 -101 q 311 -93 296 -93 q 326 -95 321 -93 q 335 -103 332 -97 q 338 -119 338 -108 q 330 -161 338 -136 q 313 -207 322 -186 q 301 -233 304 -228 l 285 -233 z "},"Þ":{"ha":635,"x_min":57,"x_max":553,"o":"m 57 638 q 59 683 57 669 q 75 697 61 697 l 89 697 l 89 569 l 392 569 q 488 549 453 569 q 538 485 524 528 q 553 376 553 443 q 535 268 553 313 q 478 201 517 224 q 378 178 440 178 l 89 178 l 89 0 l 57 0 l 57 638 m 89 549 l 89 199 l 394 199 q 457 213 428 199 q 505 265 486 226 q 524 378 524 304 q 504 487 524 450 q 453 536 485 524 q 389 549 422 549 l 89 549 z "},"U":{"ha":771,"x_min":122,"x_max":649,"o":"m 649 247 q 644 156 649 201 q 617 75 640 111 q 538 17 593 39 q 382 -4 483 -4 q 255 10 304 -4 q 178 49 206 24 q 140 105 151 74 q 125 172 128 136 q 122 244 122 208 l 122 611 q 123 628 122 622 q 128 637 124 635 q 139 639 132 639 l 156 639 l 156 194 q 178 93 156 131 q 251 39 201 56 q 382 22 301 22 q 560 63 506 22 q 615 196 615 104 l 615 639 l 631 639 q 643 637 639 639 q 648 628 647 635 q 649 611 649 622 l 649 247 z "},"Ú":{"ha":771,"x_min":122,"x_max":649,"o":"m 649 247 q 644 156 649 201 q 617 75 640 111 q 538 17 593 39 q 382 -4 483 -4 q 255 10 304 -4 q 178 49 206 24 q 140 105 151 74 q 125 172 128 136 q 122 244 122 208 l 122 611 q 123 628 122 622 q 128 637 124 635 q 139 639 132 639 l 156 639 l 156 194 q 178 93 156 131 q 251 39 201 56 q 382 22 301 22 q 560 63 506 22 q 615 196 615 104 l 615 639 l 631 639 q 643 637 639 639 q 648 628 647 635 q 649 611 649 622 l 649 247 m 356 724 l 486 840 l 510 814 l 376 724 l 356 724 z "},"Ŭ":{"ha":771,"x_min":122,"x_max":649,"o":"m 649 247 q 644 156 649 201 q 617 75 640 111 q 538 17 593 39 q 382 -4 483 -4 q 255 10 304 -4 q 178 49 206 24 q 140 105 151 74 q 125 172 128 136 q 122 244 122 208 l 122 611 q 123 628 122 622 q 128 637 124 635 q 139 639 132 639 l 156 639 l 156 194 q 178 93 156 131 q 251 39 201 56 q 382 22 301 22 q 560 63 506 22 q 615 196 615 104 l 615 639 l 631 639 q 643 637 639 639 q 648 628 647 635 q 649 611 649 622 l 649 247 m 386 724 q 327 731 356 724 q 279 761 299 738 q 258 832 260 785 l 258 839 l 286 839 l 286 833 q 292 793 286 814 q 319 759 299 772 q 383 746 340 746 q 449 759 428 746 q 478 792 471 772 q 485 833 485 813 l 485 839 l 510 839 l 510 833 q 491 762 510 785 q 444 732 472 739 q 386 724 417 725 z "},"Û":{"ha":771,"x_min":122,"x_max":649,"o":"m 649 247 q 644 156 649 201 q 617 75 640 111 q 538 17 593 39 q 382 -4 483 -4 q 255 10 304 -4 q 178 49 206 24 q 140 105 151 74 q 125 172 128 136 q 122 244 122 208 l 122 611 q 123 628 122 622 q 128 637 124 635 q 139 639 132 639 l 156 639 l 156 194 q 178 93 156 131 q 251 39 201 56 q 382 22 301 22 q 560 63 506 22 q 615 196 615 104 l 615 639 l 631 639 q 643 637 639 639 q 648 628 647 635 q 649 611 649 622 l 649 247 m 267 724 l 372 840 l 397 840 l 504 724 l 479 724 l 385 815 l 290 724 l 267 724 z "},"Ȕ":{"ha":771,"x_min":122,"x_max":649,"o":"m 649 247 q 644 156 649 201 q 617 75 640 111 q 538 17 593 39 q 382 -4 483 -4 q 255 10 304 -4 q 178 49 206 24 q 140 105 151 74 q 125 172 128 136 q 122 244 122 208 l 122 611 q 123 628 122 622 q 128 637 124 635 q 139 639 132 639 l 156 639 l 156 194 q 178 93 156 131 q 251 39 201 56 q 382 22 301 22 q 560 63 506 22 q 615 196 615 104 l 615 639 l 631 639 q 643 637 639 639 q 648 628 647 635 q 649 611 649 622 l 649 247 m 343 722 l 221 842 l 251 865 l 364 722 l 343 722 m 446 722 l 340 854 l 369 875 l 467 722 l 446 722 z "},"Ü":{"ha":771,"x_min":122,"x_max":649,"o":"m 649 247 q 644 156 649 201 q 617 75 640 111 q 538 17 593 39 q 382 -4 483 -4 q 255 10 304 -4 q 178 49 206 24 q 140 105 151 74 q 125 172 128 136 q 122 244 122 208 l 122 611 q 123 628 122 622 q 128 637 124 635 q 139 639 132 639 l 156 639 l 156 194 q 178 93 156 131 q 251 39 201 56 q 382 22 301 22 q 560 63 506 22 q 615 196 615 104 l 615 639 l 631 639 q 643 637 639 639 q 648 628 647 635 q 649 611 649 622 l 649 247 m 464 724 q 444 728 454 724 q 433 750 433 732 q 444 772 433 768 q 463 775 454 775 q 483 772 472 775 q 493 750 493 768 q 485 728 493 732 q 464 724 476 724 m 306 724 q 284 728 293 724 q 275 751 275 732 q 285 772 275 768 q 304 775 294 775 q 324 772 314 775 q 335 751 335 768 q 326 728 335 733 q 306 724 317 724 z "},"Ụ":{"ha":771,"x_min":122,"x_max":649,"o":"m 649 247 q 644 156 649 201 q 617 75 640 111 q 538 17 593 39 q 382 -4 483 -4 q 255 10 304 -4 q 178 49 206 24 q 140 105 151 74 q 125 172 128 136 q 122 244 122 208 l 122 611 q 123 628 122 622 q 128 637 124 635 q 139 639 132 639 l 156 639 l 156 194 q 178 93 156 131 q 251 39 201 56 q 382 22 301 22 q 560 63 506 22 q 615 196 615 104 l 615 639 l 631 639 q 643 637 639 639 q 648 628 647 635 q 649 611 649 622 l 649 247 m 386 -151 q 374 -150 381 -151 q 363 -144 368 -149 q 358 -129 358 -139 q 367 -110 358 -114 q 385 -106 375 -106 q 403 -109 396 -106 q 411 -129 411 -112 q 407 -144 411 -139 q 397 -150 403 -149 q 386 -151 392 -151 z "},"Ù":{"ha":771,"x_min":122,"x_max":649,"o":"m 649 247 q 644 156 649 201 q 617 75 640 111 q 538 17 593 39 q 382 -4 483 -4 q 255 10 304 -4 q 178 49 206 24 q 140 105 151 74 q 125 172 128 136 q 122 244 122 208 l 122 611 q 123 628 122 622 q 128 637 124 635 q 139 639 132 639 l 156 639 l 156 194 q 178 93 156 131 q 251 39 201 56 q 382 22 301 22 q 560 63 506 22 q 615 196 615 104 l 615 639 l 631 639 q 643 637 639 639 q 648 628 647 635 q 649 611 649 622 l 649 247 m 404 724 l 272 814 l 296 840 l 426 724 l 404 724 z "},"Ủ":{"ha":771,"x_min":122,"x_max":649,"o":"m 649 247 q 644 156 649 201 q 617 75 640 111 q 538 17 593 39 q 382 -4 483 -4 q 255 10 304 -4 q 178 49 206 24 q 140 105 151 74 q 125 172 128 136 q 122 244 122 208 l 122 611 q 123 628 122 622 q 128 637 124 635 q 139 639 132 639 l 156 639 l 156 194 q 178 93 156 131 q 251 39 201 56 q 382 22 301 22 q 560 63 506 22 q 615 196 615 104 l 615 639 l 631 639 q 643 637 639 639 q 648 628 647 635 q 649 611 649 622 l 649 247 m 372 724 l 372 736 q 383 757 372 751 q 406 766 393 763 q 430 776 419 769 q 440 799 440 782 l 440 801 q 428 838 440 828 q 390 849 415 849 q 346 814 356 849 l 324 819 q 346 856 329 843 q 393 869 363 869 q 447 856 429 869 q 465 801 465 842 l 465 799 q 455 765 465 775 q 431 753 444 756 q 406 745 417 750 q 396 728 396 740 l 396 724 l 372 724 z "},"Ư":{"ha":771,"x_min":122,"x_max":731,"o":"m 649 247 q 644 156 649 201 q 617 75 640 111 q 538 17 593 39 q 382 -4 483 -4 q 255 10 304 -4 q 178 49 206 24 q 140 105 151 74 q 125 172 128 136 q 122 244 122 208 l 122 611 q 123 628 122 622 q 128 637 124 635 q 139 639 132 639 l 156 639 l 156 194 q 178 93 156 131 q 251 39 201 56 q 382 22 301 22 q 560 63 506 22 q 615 196 615 104 l 615 639 l 631 639 q 643 637 639 639 q 648 628 647 635 q 649 611 649 622 l 649 247 m 625 617 l 618 639 l 647 639 q 681 651 669 639 q 697 679 693 664 q 701 703 701 694 l 701 735 l 731 735 l 731 707 q 702 639 731 664 q 625 617 674 614 z "},"Ứ":{"ha":771,"x_min":122,"x_max":731,"o":"m 649 247 q 644 156 649 201 q 617 75 640 111 q 538 17 593 39 q 382 -4 483 -4 q 255 10 304 -4 q 178 49 206 24 q 140 105 151 74 q 125 172 128 136 q 122 244 122 208 l 122 611 q 123 628 122 622 q 128 637 124 635 q 139 639 132 639 l 156 639 l 156 194 q 178 93 156 131 q 251 39 201 56 q 382 22 301 22 q 560 63 506 22 q 615 196 615 104 l 615 639 l 631 639 q 643 637 639 639 q 648 628 647 635 q 649 611 649 622 l 649 247 m 625 617 l 618 639 l 647 639 q 681 651 669 639 q 697 679 693 664 q 701 703 701 694 l 701 735 l 731 735 l 731 707 q 702 639 731 664 q 625 617 674 614 m 356 724 l 486 840 l 510 814 l 376 724 l 356 724 z "},"Ự":{"ha":771,"x_min":122,"x_max":731,"o":"m 649 247 q 644 156 649 201 q 617 75 640 111 q 538 17 593 39 q 382 -4 483 -4 q 255 10 304 -4 q 178 49 206 24 q 140 105 151 74 q 125 172 128 136 q 122 244 122 208 l 122 611 q 123 628 122 622 q 128 637 124 635 q 139 639 132 639 l 156 639 l 156 194 q 178 93 156 131 q 251 39 201 56 q 382 22 301 22 q 560 63 506 22 q 615 196 615 104 l 615 639 l 631 639 q 643 637 639 639 q 648 628 647 635 q 649 611 649 622 l 649 247 m 625 617 l 618 639 l 647 639 q 681 651 669 639 q 697 679 693 664 q 701 703 701 694 l 701 735 l 731 735 l 731 707 q 702 639 731 664 q 625 617 674 614 m 386 -151 q 374 -150 381 -151 q 363 -144 368 -149 q 358 -129 358 -139 q 367 -110 358 -114 q 385 -106 375 -106 q 403 -109 396 -106 q 411 -129 411 -112 q 407 -144 411 -139 q 397 -150 403 -149 q 386 -151 392 -151 z "},"Ừ":{"ha":771,"x_min":122,"x_max":731,"o":"m 649 247 q 644 156 649 201 q 617 75 640 111 q 538 17 593 39 q 382 -4 483 -4 q 255 10 304 -4 q 178 49 206 24 q 140 105 151 74 q 125 172 128 136 q 122 244 122 208 l 122 611 q 123 628 122 622 q 128 637 124 635 q 139 639 132 639 l 156 639 l 156 194 q 178 93 156 131 q 251 39 201 56 q 382 22 301 22 q 560 63 506 22 q 615 196 615 104 l 615 639 l 631 639 q 643 637 639 639 q 648 628 647 635 q 649 611 649 622 l 649 247 m 625 617 l 618 639 l 647 639 q 681 651 669 639 q 697 679 693 664 q 701 703 701 694 l 701 735 l 731 735 l 731 707 q 702 639 731 664 q 625 617 674 614 m 404 724 l 272 814 l 296 840 l 426 724 l 404 724 z "},"Ử":{"ha":771,"x_min":122,"x_max":731,"o":"m 649 247 q 644 156 649 201 q 617 75 640 111 q 538 17 593 39 q 382 -4 483 -4 q 255 10 304 -4 q 178 49 206 24 q 140 105 151 74 q 125 172 128 136 q 122 244 122 208 l 122 611 q 123 628 122 622 q 128 637 124 635 q 139 639 132 639 l 156 639 l 156 194 q 178 93 156 131 q 251 39 201 56 q 382 22 301 22 q 560 63 506 22 q 615 196 615 104 l 615 639 l 631 639 q 643 637 639 639 q 648 628 647 635 q 649 611 649 622 l 649 247 m 625 617 l 618 639 l 647 639 q 681 651 669 639 q 697 679 693 664 q 701 703 701 694 l 701 735 l 731 735 l 731 707 q 702 639 731 664 q 625 617 674 614 m 372 724 l 372 736 q 383 757 372 751 q 406 766 393 763 q 430 776 419 769 q 440 799 440 782 l 440 801 q 428 838 440 828 q 390 849 415 849 q 346 814 356 849 l 324 819 q 346 856 329 843 q 393 869 363 869 q 447 856 429 869 q 465 801 465 842 l 465 799 q 455 765 465 775 q 431 753 444 756 q 406 745 417 750 q 396 728 396 740 l 396 724 l 372 724 z "},"Ữ":{"ha":771,"x_min":122,"x_max":731,"o":"m 649 247 q 644 156 649 201 q 617 75 640 111 q 538 17 593 39 q 382 -4 483 -4 q 255 10 304 -4 q 178 49 206 24 q 140 105 151 74 q 125 172 128 136 q 122 244 122 208 l 122 611 q 123 628 122 622 q 128 637 124 635 q 139 639 132 639 l 156 639 l 156 194 q 178 93 156 131 q 251 39 201 56 q 382 22 301 22 q 560 63 506 22 q 615 196 615 104 l 615 639 l 631 639 q 643 637 639 639 q 648 628 647 635 q 649 611 649 622 l 649 247 m 625 617 l 618 639 l 647 639 q 681 651 669 639 q 697 679 693 664 q 701 703 701 694 l 701 735 l 731 735 l 731 707 q 702 639 731 664 q 625 617 674 614 m 447 721 q 404 733 425 721 q 362 756 383 744 q 319 767 340 767 q 284 753 297 767 q 265 729 271 740 l 250 740 q 256 753 251 744 q 270 772 261 763 q 292 790 279 782 q 322 797 304 797 q 365 785 344 797 q 406 760 386 772 q 446 749 426 749 q 487 765 474 749 q 504 792 500 781 l 519 778 q 513 765 518 774 q 500 746 508 756 q 478 728 492 736 q 447 721 465 721 z "},"Ű":{"ha":771,"x_min":122,"x_max":649,"o":"m 649 247 q 644 156 649 201 q 617 75 640 111 q 538 17 593 39 q 382 -4 483 -4 q 255 10 304 -4 q 178 49 206 24 q 140 105 151 74 q 125 172 128 136 q 122 244 122 208 l 122 611 q 123 628 122 622 q 128 637 124 635 q 139 639 132 639 l 156 639 l 156 194 q 178 93 156 131 q 251 39 201 56 q 382 22 301 22 q 560 63 506 22 q 615 196 615 104 l 615 639 l 631 639 q 643 637 639 639 q 648 628 647 635 q 649 611 649 622 l 649 247 m 446 724 l 471 840 l 510 840 l 465 724 l 446 724 m 313 724 l 339 840 l 375 840 l 333 724 l 313 724 z "},"Ȗ":{"ha":771,"x_min":122,"x_max":649,"o":"m 649 247 q 644 156 649 201 q 617 75 640 111 q 538 17 593 39 q 382 -4 483 -4 q 255 10 304 -4 q 178 49 206 24 q 140 105 151 74 q 125 172 128 136 q 122 244 122 208 l 122 611 q 123 628 122 622 q 128 637 124 635 q 139 639 132 639 l 156 639 l 156 194 q 178 93 156 131 q 251 39 201 56 q 382 22 301 22 q 560 63 506 22 q 615 196 615 104 l 615 639 l 631 639 q 643 637 639 639 q 648 628 647 635 q 649 611 649 622 l 649 247 m 258 724 l 258 731 q 279 802 260 779 q 327 833 299 825 q 386 839 356 840 q 444 831 417 839 q 491 801 472 824 q 510 729 510 778 l 510 724 l 485 724 l 485 729 q 478 770 485 750 q 449 803 471 790 q 383 817 428 817 q 319 803 340 817 q 292 770 299 790 q 286 729 286 750 l 286 724 l 258 724 z "},"Ū":{"ha":771,"x_min":122,"x_max":649,"o":"m 649 247 q 644 156 649 201 q 617 75 640 111 q 538 17 593 39 q 382 -4 483 -4 q 255 10 304 -4 q 178 49 206 24 q 140 105 151 74 q 125 172 128 136 q 122 244 122 208 l 122 611 q 123 628 122 622 q 128 637 124 635 q 139 639 132 639 l 156 639 l 156 194 q 178 93 156 131 q 251 39 201 56 q 382 22 301 22 q 560 63 506 22 q 615 196 615 104 l 615 639 l 631 639 q 643 637 639 639 q 648 628 647 635 q 649 611 649 622 l 649 247 m 249 725 l 249 744 l 522 744 l 522 725 l 249 725 z "},"Ų":{"ha":771,"x_min":122,"x_max":649,"o":"m 649 247 q 644 156 649 201 q 617 75 640 111 q 538 17 593 39 q 382 -4 483 -4 q 255 10 304 -4 q 178 49 206 24 q 140 105 151 74 q 125 172 128 136 q 122 244 122 208 l 122 611 q 123 628 122 622 q 128 637 124 635 q 139 639 132 639 l 156 639 l 156 194 q 178 93 156 131 q 251 39 201 56 q 382 22 301 22 q 560 63 506 22 q 615 196 615 104 l 615 639 l 631 639 q 643 637 639 639 q 648 628 647 635 q 649 611 649 622 l 649 247 m 417 -235 q 347 -228 375 -235 q 303 -201 318 -221 q 289 -146 289 -182 q 306 -92 289 -118 q 345 -45 322 -67 q 391 -8 368 -24 q 426 15 414 8 l 456 15 q 424 -5 446 11 q 378 -43 401 -21 q 337 -90 354 -65 q 319 -137 319 -115 q 344 -199 319 -185 q 413 -214 369 -214 q 435 -213 424 -214 q 456 -212 447 -212 q 468 -211 465 -211 q 465 -225 468 -219 q 451 -233 461 -231 q 417 -235 440 -235 z "},"Ů":{"ha":771,"x_min":122,"x_max":649,"o":"m 649 247 q 644 156 649 201 q 617 75 640 111 q 538 17 593 39 q 382 -4 483 -4 q 255 10 304 -4 q 178 49 206 24 q 140 105 151 74 q 125 172 128 136 q 122 244 122 208 l 122 611 q 123 628 122 622 q 128 637 124 635 q 139 639 132 639 l 156 639 l 156 194 q 178 93 156 131 q 251 39 201 56 q 382 22 301 22 q 560 63 506 22 q 615 196 615 104 l 615 639 l 631 639 q 643 637 639 639 q 648 628 647 635 q 649 611 649 622 l 649 247 m 385 725 q 333 732 351 725 q 308 751 315 739 q 301 782 301 764 q 308 813 301 800 q 333 831 315 825 q 385 838 351 838 q 438 831 419 838 q 462 813 456 825 q 468 782 468 800 q 462 751 468 764 q 438 732 456 739 q 385 725 419 725 m 385 743 q 428 751 413 743 q 443 782 443 758 q 428 813 443 806 q 385 821 413 821 q 342 813 358 821 q 326 782 326 806 q 342 751 326 758 q 385 743 357 743 z "},"Ũ":{"ha":771,"x_min":122,"x_max":649,"o":"m 649 247 q 644 156 649 201 q 617 75 640 111 q 538 17 593 39 q 382 -4 483 -4 q 255 10 304 -4 q 178 49 206 24 q 140 105 151 74 q 125 172 128 136 q 122 244 122 208 l 122 611 q 123 628 122 622 q 128 637 124 635 q 139 639 132 639 l 156 639 l 156 194 q 178 93 156 131 q 251 39 201 56 q 382 22 301 22 q 560 63 506 22 q 615 196 615 104 l 615 639 l 631 639 q 643 637 639 639 q 648 628 647 635 q 649 611 649 622 l 649 247 m 447 721 q 404 733 425 721 q 362 756 383 744 q 319 767 340 767 q 284 753 297 767 q 265 729 271 740 l 250 740 q 256 753 251 744 q 270 772 261 763 q 292 790 279 782 q 322 797 304 797 q 365 785 344 797 q 406 760 386 772 q 446 749 426 749 q 487 765 474 749 q 504 792 500 781 l 519 778 q 513 765 518 774 q 500 746 508 756 q 478 728 492 736 q 447 721 465 721 z "},"V":{"ha":601,"x_min":38,"x_max":556,"o":"m 304 0 q 233 27 257 0 q 193 104 208 54 l 38 639 l 69 639 l 226 99 q 262 42 239 57 q 310 28 285 28 l 338 28 l 526 639 l 556 639 l 357 0 l 304 0 z "},"W":{"ha":910,"x_min":69,"x_max":822,"o":"m 261 0 q 198 4 222 0 q 160 32 174 8 q 139 113 147 56 l 69 639 l 104 639 l 172 106 q 193 44 179 60 q 247 29 207 29 l 299 29 l 428 639 l 464 639 l 596 29 l 651 29 q 699 41 682 29 q 719 82 715 53 l 790 639 l 822 639 l 753 104 q 731 29 746 51 q 689 3 715 7 q 622 0 663 0 l 572 0 l 454 546 l 446 583 l 436 544 l 322 0 l 261 0 z "},"Ẃ":{"ha":910,"x_min":69,"x_max":822,"o":"m 261 0 q 198 4 222 0 q 160 32 174 8 q 139 113 147 56 l 69 639 l 104 639 l 172 106 q 193 44 179 60 q 247 29 207 29 l 299 29 l 428 639 l 464 639 l 596 29 l 651 29 q 699 41 682 29 q 719 82 715 53 l 790 639 l 822 639 l 753 104 q 731 29 746 51 q 689 3 715 7 q 622 0 663 0 l 572 0 l 454 546 l 446 583 l 436 544 l 322 0 l 261 0 m 419 724 l 550 840 l 574 814 l 440 724 l 419 724 z "},"Ŵ":{"ha":910,"x_min":69,"x_max":822,"o":"m 261 0 q 198 4 222 0 q 160 32 174 8 q 139 113 147 56 l 69 639 l 104 639 l 172 106 q 193 44 179 60 q 247 29 207 29 l 299 29 l 428 639 l 464 639 l 596 29 l 651 29 q 699 41 682 29 q 719 82 715 53 l 790 639 l 822 639 l 753 104 q 731 29 746 51 q 689 3 715 7 q 622 0 663 0 l 572 0 l 454 546 l 446 583 l 436 544 l 322 0 l 261 0 m 331 724 l 436 840 l 461 840 l 568 724 l 543 724 l 449 815 l 354 724 l 331 724 z "},"Ẅ":{"ha":910,"x_min":69,"x_max":822,"o":"m 261 0 q 198 4 222 0 q 160 32 174 8 q 139 113 147 56 l 69 639 l 104 639 l 172 106 q 193 44 179 60 q 247 29 207 29 l 299 29 l 428 639 l 464 639 l 596 29 l 651 29 q 699 41 682 29 q 719 82 715 53 l 790 639 l 822 639 l 753 104 q 731 29 746 51 q 689 3 715 7 q 622 0 663 0 l 572 0 l 454 546 l 446 583 l 436 544 l 322 0 l 261 0 m 528 724 q 508 728 518 724 q 497 750 497 732 q 508 772 497 768 q 526 775 518 775 q 547 772 536 775 q 557 750 557 768 q 549 728 557 732 q 528 724 540 724 m 369 724 q 348 728 357 724 q 339 751 339 732 q 349 772 339 768 q 368 775 358 775 q 388 772 378 775 q 399 751 399 768 q 390 728 399 733 q 369 724 381 724 z "},"Ẁ":{"ha":910,"x_min":69,"x_max":822,"o":"m 261 0 q 198 4 222 0 q 160 32 174 8 q 139 113 147 56 l 69 639 l 104 639 l 172 106 q 193 44 179 60 q 247 29 207 29 l 299 29 l 428 639 l 464 639 l 596 29 l 651 29 q 699 41 682 29 q 719 82 715 53 l 790 639 l 822 639 l 753 104 q 731 29 746 51 q 689 3 715 7 q 622 0 663 0 l 572 0 l 454 546 l 446 583 l 436 544 l 322 0 l 261 0 m 468 724 l 336 814 l 360 840 l 490 724 l 468 724 z "},"X":{"ha":601,"x_min":26,"x_max":564,"o":"m 539 0 q 528 2 533 0 q 518 8 522 4 q 510 15 514 11 l 282 308 l 33 640 l 75 640 l 301 338 l 526 50 q 549 20 542 31 q 564 0 557 10 l 539 0 m 47 0 l 26 0 q 42 19 35 10 q 57 38 49 28 l 283 329 l 526 640 l 563 640 l 306 310 l 75 15 q 63 5 71 10 q 47 0 56 0 z "},"Y":{"ha":564,"x_min":26,"x_max":538,"o":"m 261 0 l 261 264 l 50 604 l 26 639 l 64 639 l 279 292 l 506 639 l 538 639 l 511 601 l 294 264 l 294 28 q 294 13 294 19 q 290 3 293 7 q 278 0 286 0 l 261 0 z "},"Ý":{"ha":564,"x_min":26,"x_max":538,"o":"m 261 0 l 261 264 l 50 604 l 26 639 l 64 639 l 279 292 l 506 639 l 538 639 l 511 601 l 294 264 l 294 28 q 294 13 294 19 q 290 3 293 7 q 278 0 286 0 l 261 0 m 264 724 l 394 840 l 418 814 l 285 724 l 264 724 z "},"Ŷ":{"ha":564,"x_min":26,"x_max":538,"o":"m 261 0 l 261 264 l 50 604 l 26 639 l 64 639 l 279 292 l 506 639 l 538 639 l 511 601 l 294 264 l 294 28 q 294 13 294 19 q 290 3 293 7 q 278 0 286 0 l 261 0 m 175 724 l 281 840 l 306 840 l 413 724 l 388 724 l 293 815 l 199 724 l 175 724 z "},"Ÿ":{"ha":564,"x_min":26,"x_max":538,"o":"m 261 0 l 261 264 l 50 604 l 26 639 l 64 639 l 279 292 l 506 639 l 538 639 l 511 601 l 294 264 l 294 28 q 294 13 294 19 q 290 3 293 7 q 278 0 286 0 l 261 0 m 372 724 q 352 728 363 724 q 342 750 342 732 q 352 772 342 768 q 371 775 363 775 q 391 772 381 775 q 401 750 401 768 q 393 728 401 732 q 372 724 385 724 m 214 724 q 192 728 201 724 q 183 751 183 732 q 193 772 183 768 q 213 775 203 775 q 233 772 222 775 q 243 751 243 768 q 234 728 243 733 q 214 724 225 724 z "},"Ỵ":{"ha":564,"x_min":26,"x_max":538,"o":"m 261 0 l 261 264 l 50 604 l 26 639 l 64 639 l 279 292 l 506 639 l 538 639 l 511 601 l 294 264 l 294 28 q 294 13 294 19 q 290 3 293 7 q 278 0 286 0 l 261 0 m 293 -151 q 281 -150 288 -151 q 270 -144 275 -149 q 265 -129 265 -139 q 274 -110 265 -114 q 292 -106 282 -106 q 310 -109 303 -106 q 318 -129 318 -112 q 314 -144 318 -139 q 304 -150 310 -149 q 293 -151 299 -151 z "},"Ỳ":{"ha":564,"x_min":26,"x_max":538,"o":"m 261 0 l 261 264 l 50 604 l 26 639 l 64 639 l 279 292 l 506 639 l 538 639 l 511 601 l 294 264 l 294 28 q 294 13 294 19 q 290 3 293 7 q 278 0 286 0 l 261 0 m 313 724 l 181 814 l 204 840 l 335 724 l 313 724 z "},"Ỷ":{"ha":564,"x_min":26,"x_max":538,"o":"m 261 0 l 261 264 l 50 604 l 26 639 l 64 639 l 279 292 l 506 639 l 538 639 l 511 601 l 294 264 l 294 28 q 294 13 294 19 q 290 3 293 7 q 278 0 286 0 l 261 0 m 281 724 l 281 736 q 291 757 281 751 q 315 766 301 763 q 338 776 328 769 q 349 799 349 782 l 349 801 q 336 838 349 828 q 299 849 324 849 q 254 814 264 849 l 232 819 q 254 856 238 843 q 301 869 271 869 q 356 856 338 869 q 374 801 374 842 l 374 799 q 363 765 374 775 q 339 753 353 756 q 315 745 325 750 q 304 728 304 740 l 304 724 l 281 724 z "},"Ȳ":{"ha":564,"x_min":26,"x_max":538,"o":"m 261 0 l 261 264 l 50 604 l 26 639 l 64 639 l 279 292 l 506 639 l 538 639 l 511 601 l 294 264 l 294 28 q 294 13 294 19 q 290 3 293 7 q 278 0 286 0 l 261 0 m 157 725 l 157 744 l 431 744 l 431 725 l 157 725 z "},"Ỹ":{"ha":564,"x_min":26,"x_max":538,"o":"m 261 0 l 261 264 l 50 604 l 26 639 l 64 639 l 279 292 l 506 639 l 538 639 l 511 601 l 294 264 l 294 28 q 294 13 294 19 q 290 3 293 7 q 278 0 286 0 l 261 0 m 356 721 q 313 733 333 721 q 270 756 292 744 q 228 767 249 767 q 192 753 206 767 q 174 729 179 740 l 158 740 q 165 753 160 744 q 178 772 169 763 q 200 790 188 782 q 231 797 213 797 q 274 785 253 797 q 315 760 294 772 q 354 749 335 749 q 395 765 382 749 q 413 792 408 781 l 428 778 q 422 765 426 774 q 408 746 417 756 q 387 728 400 736 q 356 721 374 721 z "},"Z":{"ha":592,"x_min":33,"x_max":558,"o":"m 72 26 l 558 26 q 557 13 558 18 q 552 4 556 7 q 542 1 549 1 q 522 0 535 0 l 33 0 l 33 32 q 56 60 33 32 q 118 134 79 88 q 205 238 157 181 q 302 353 253 294 q 395 465 351 413 q 469 556 439 518 q 499 592 488 576 q 515 613 511 607 l 60 613 q 60 626 60 621 q 66 635 61 632 q 82 639 71 639 l 553 639 q 552 631 553 638 q 549 616 551 625 q 542 597 547 607 q 529 576 538 586 l 82 38 l 72 26 z "},"Ź":{"ha":592,"x_min":33,"x_max":558,"o":"m 72 26 l 558 26 q 557 13 558 18 q 552 4 556 7 q 542 1 549 1 q 522 0 535 0 l 33 0 l 33 32 q 56 60 33 32 q 118 134 79 88 q 205 238 157 181 q 302 353 253 294 q 395 465 351 413 q 469 556 439 518 q 499 592 488 576 q 515 613 511 607 l 60 613 q 60 626 60 621 q 66 635 61 632 q 82 639 71 639 l 553 639 q 552 631 553 638 q 549 616 551 625 q 542 597 547 607 q 529 576 538 586 l 82 38 l 72 26 m 265 724 l 396 840 l 419 814 l 286 724 l 265 724 z "},"Ž":{"ha":592,"x_min":33,"x_max":558,"o":"m 176 840 l 200 840 l 294 749 l 389 840 l 414 840 l 307 724 l 282 724 l 176 840 m 72 26 l 558 26 q 557 13 558 18 q 552 4 556 7 q 542 1 549 1 q 522 0 535 0 l 33 0 l 33 32 q 56 60 33 32 q 118 134 79 88 q 205 238 157 181 q 302 353 253 294 q 395 465 351 413 q 469 556 439 518 q 499 592 488 576 q 515 613 511 607 l 60 613 q 60 626 60 621 q 66 635 61 632 q 82 639 71 639 l 553 639 q 552 631 553 638 q 549 616 551 625 q 542 597 547 607 q 529 576 538 586 l 82 38 l 72 26 z "},"Ż":{"ha":592,"x_min":33,"x_max":558,"o":"m 72 26 l 558 26 q 557 13 558 18 q 552 4 556 7 q 542 1 549 1 q 522 0 535 0 l 33 0 l 33 32 q 56 60 33 32 q 118 134 79 88 q 205 238 157 181 q 302 353 253 294 q 395 465 351 413 q 469 556 439 518 q 499 592 488 576 q 515 613 511 607 l 60 613 q 60 626 60 621 q 66 635 61 632 q 82 639 71 639 l 553 639 q 552 631 553 638 q 549 616 551 625 q 542 597 547 607 q 529 576 538 586 l 82 38 l 72 26 m 296 724 q 271 728 281 724 q 261 753 261 733 q 271 780 261 775 q 296 785 281 785 q 319 779 311 785 q 328 753 328 774 q 319 728 328 733 q 296 724 311 724 z "},"a":{"ha":629,"x_min":67,"x_max":544,"o":"m 300 -11 q 182 -1 228 -11 q 111 29 136 8 q 76 83 86 50 q 67 164 67 117 q 85 272 67 235 q 149 324 104 310 q 272 338 194 338 q 345 335 307 338 q 419 331 383 333 q 479 324 454 328 q 513 318 504 321 q 500 439 514 394 q 460 504 486 483 q 395 531 433 525 q 311 538 357 538 q 220 533 265 538 q 140 519 175 529 q 93 493 106 510 l 93 503 q 112 535 93 526 q 147 547 131 543 q 215 558 171 554 q 301 563 258 563 q 403 556 358 563 q 478 528 447 550 q 526 463 510 507 q 543 343 543 419 l 544 50 q 492 3 544 18 q 300 -11 440 -11 m 300 13 q 425 17 381 13 q 490 32 469 22 q 514 56 510 42 l 513 292 q 464 302 501 297 q 383 311 426 307 q 306 315 339 315 q 185 308 231 315 q 119 268 139 300 q 99 165 99 236 q 112 80 99 114 q 168 29 125 46 q 300 13 211 13 z "},"á":{"ha":629,"x_min":67,"x_max":544,"o":"m 300 -11 q 182 -1 228 -11 q 111 29 136 8 q 76 83 86 50 q 67 164 67 117 q 85 272 67 235 q 149 324 104 310 q 272 338 194 338 q 345 335 307 338 q 419 331 383 333 q 479 324 454 328 q 513 318 504 321 q 500 439 514 394 q 460 504 486 483 q 395 531 433 525 q 311 538 357 538 q 220 533 265 538 q 140 519 175 529 q 93 493 106 510 l 93 503 q 112 535 93 526 q 147 547 131 543 q 215 558 171 554 q 301 563 258 563 q 403 556 358 563 q 478 528 447 550 q 526 463 510 507 q 543 343 543 419 l 544 50 q 492 3 544 18 q 300 -11 440 -11 m 300 13 q 425 17 381 13 q 490 32 469 22 q 514 56 510 42 l 513 292 q 464 302 501 297 q 383 311 426 307 q 306 315 339 315 q 185 308 231 315 q 119 268 139 300 q 99 165 99 236 q 112 80 99 114 q 168 29 125 46 q 300 13 211 13 m 281 639 l 415 782 l 440 756 l 301 639 l 281 639 z "},"ă":{"ha":629,"x_min":67,"x_max":544,"o":"m 300 -11 q 182 -1 228 -11 q 111 29 136 8 q 76 83 86 50 q 67 164 67 117 q 85 272 67 235 q 149 324 104 310 q 272 338 194 338 q 345 335 307 338 q 419 331 383 333 q 479 324 454 328 q 513 318 504 321 q 500 439 514 394 q 460 504 486 483 q 395 531 433 525 q 311 538 357 538 q 220 533 265 538 q 140 519 175 529 q 93 493 106 510 l 93 503 q 112 535 93 526 q 147 547 131 543 q 215 558 171 554 q 301 563 258 563 q 403 556 358 563 q 478 528 447 550 q 526 463 510 507 q 543 343 543 419 l 544 50 q 492 3 544 18 q 300 -11 440 -11 m 300 13 q 425 17 381 13 q 490 32 469 22 q 514 56 510 42 l 513 292 q 464 302 501 297 q 383 311 426 307 q 306 315 339 315 q 185 308 231 315 q 119 268 139 300 q 99 165 99 236 q 112 80 99 114 q 168 29 125 46 q 300 13 211 13 m 304 636 q 235 652 263 636 q 194 698 207 668 q 181 768 181 728 l 201 768 q 228 690 201 717 q 304 663 254 663 q 385 690 363 663 q 407 768 407 717 l 428 768 q 416 698 428 728 q 377 652 404 668 q 304 636 350 636 z "},"ắ":{"ha":629,"x_min":67,"x_max":544,"o":"m 300 -11 q 182 -1 228 -11 q 111 29 136 8 q 76 83 86 50 q 67 164 67 117 q 85 272 67 235 q 149 324 104 310 q 272 338 194 338 q 345 335 307 338 q 419 331 383 333 q 479 324 454 328 q 513 318 504 321 q 500 439 514 394 q 460 504 486 483 q 395 531 433 525 q 311 538 357 538 q 220 533 265 538 q 140 519 175 529 q 93 493 106 510 l 93 503 q 112 535 93 526 q 147 547 131 543 q 215 558 171 554 q 301 563 258 563 q 403 556 358 563 q 478 528 447 550 q 526 463 510 507 q 543 343 543 419 l 544 50 q 492 3 544 18 q 300 -11 440 -11 m 300 13 q 425 17 381 13 q 490 32 469 22 q 514 56 510 42 l 513 292 q 464 302 501 297 q 383 311 426 307 q 306 315 339 315 q 185 308 231 315 q 119 268 139 300 q 99 165 99 236 q 112 80 99 114 q 168 29 125 46 q 300 13 211 13 m 304 636 q 235 652 263 636 q 194 698 207 668 q 181 768 181 728 l 201 768 q 228 690 201 717 q 304 663 254 663 q 385 690 363 663 q 407 768 407 717 l 428 768 q 416 698 428 728 q 377 652 404 668 q 304 636 350 636 m 281 810 l 415 953 l 440 926 l 301 810 l 281 810 z "},"ặ":{"ha":629,"x_min":67,"x_max":544,"o":"m 300 -11 q 182 -1 228 -11 q 111 29 136 8 q 76 83 86 50 q 67 164 67 117 q 85 272 67 235 q 149 324 104 310 q 272 338 194 338 q 345 335 307 338 q 419 331 383 333 q 479 324 454 328 q 513 318 504 321 q 500 439 514 394 q 460 504 486 483 q 395 531 433 525 q 311 538 357 538 q 220 533 265 538 q 140 519 175 529 q 93 493 106 510 l 93 503 q 112 535 93 526 q 147 547 131 543 q 215 558 171 554 q 301 563 258 563 q 403 556 358 563 q 478 528 447 550 q 526 463 510 507 q 543 343 543 419 l 544 50 q 492 3 544 18 q 300 -11 440 -11 m 300 13 q 425 17 381 13 q 490 32 469 22 q 514 56 510 42 l 513 292 q 464 302 501 297 q 383 311 426 307 q 306 315 339 315 q 185 308 231 315 q 119 268 139 300 q 99 165 99 236 q 112 80 99 114 q 168 29 125 46 q 300 13 211 13 m 306 -151 q 294 -150 300 -151 q 283 -144 288 -149 q 278 -129 278 -139 q 286 -110 278 -114 q 304 -106 294 -106 q 323 -109 315 -106 q 331 -129 331 -112 q 326 -144 331 -139 q 317 -150 322 -149 q 306 -151 311 -151 m 304 636 q 235 652 263 636 q 194 698 207 668 q 181 768 181 728 l 201 768 q 228 690 201 717 q 304 663 254 663 q 385 690 363 663 q 407 768 407 717 l 428 768 q 416 698 428 728 q 377 652 404 668 q 304 636 350 636 z "},"ằ":{"ha":629,"x_min":67,"x_max":544,"o":"m 300 -11 q 182 -1 228 -11 q 111 29 136 8 q 76 83 86 50 q 67 164 67 117 q 85 272 67 235 q 149 324 104 310 q 272 338 194 338 q 345 335 307 338 q 419 331 383 333 q 479 324 454 328 q 513 318 504 321 q 500 439 514 394 q 460 504 486 483 q 395 531 433 525 q 311 538 357 538 q 220 533 265 538 q 140 519 175 529 q 93 493 106 510 l 93 503 q 112 535 93 526 q 147 547 131 543 q 215 558 171 554 q 301 563 258 563 q 403 556 358 563 q 478 528 447 550 q 526 463 510 507 q 543 343 543 419 l 544 50 q 492 3 544 18 q 300 -11 440 -11 m 300 13 q 425 17 381 13 q 490 32 469 22 q 514 56 510 42 l 513 292 q 464 302 501 297 q 383 311 426 307 q 306 315 339 315 q 185 308 231 315 q 119 268 139 300 q 99 165 99 236 q 112 80 99 114 q 168 29 125 46 q 300 13 211 13 m 304 636 q 235 652 263 636 q 194 698 207 668 q 181 768 181 728 l 201 768 q 228 690 201 717 q 304 663 254 663 q 385 690 363 663 q 407 768 407 717 l 428 768 q 416 698 428 728 q 377 652 404 668 q 304 636 350 636 m 304 810 l 167 926 l 190 953 l 326 810 l 304 810 z "},"ẳ":{"ha":629,"x_min":67,"x_max":544,"o":"m 300 -11 q 182 -1 228 -11 q 111 29 136 8 q 76 83 86 50 q 67 164 67 117 q 85 272 67 235 q 149 324 104 310 q 272 338 194 338 q 345 335 307 338 q 419 331 383 333 q 479 324 454 328 q 513 318 504 321 q 500 439 514 394 q 460 504 486 483 q 395 531 433 525 q 311 538 357 538 q 220 533 265 538 q 140 519 175 529 q 93 493 106 510 l 93 503 q 112 535 93 526 q 147 547 131 543 q 215 558 171 554 q 301 563 258 563 q 403 556 358 563 q 478 528 447 550 q 526 463 510 507 q 543 343 543 419 l 544 50 q 492 3 544 18 q 300 -11 440 -11 m 300 13 q 425 17 381 13 q 490 32 469 22 q 514 56 510 42 l 513 292 q 464 302 501 297 q 383 311 426 307 q 306 315 339 315 q 185 308 231 315 q 119 268 139 300 q 99 165 99 236 q 112 80 99 114 q 168 29 125 46 q 300 13 211 13 m 304 636 q 235 652 263 636 q 194 698 207 668 q 181 768 181 728 l 201 768 q 228 690 201 717 q 304 663 254 663 q 385 690 363 663 q 407 768 407 717 l 428 768 q 416 698 428 728 q 377 652 404 668 q 304 636 350 636 m 299 803 l 299 815 q 314 838 299 829 q 344 860 329 847 q 360 893 360 872 l 360 896 q 350 936 360 926 q 308 946 340 946 q 270 934 279 946 q 257 908 261 922 l 239 914 q 310 967 250 967 q 369 953 350 967 q 388 897 388 940 l 388 894 q 370 854 388 868 q 335 831 353 840 q 318 807 318 822 l 318 803 l 299 803 z "},"ẵ":{"ha":629,"x_min":67,"x_max":544,"o":"m 300 -11 q 182 -1 228 -11 q 111 29 136 8 q 76 83 86 50 q 67 164 67 117 q 85 272 67 235 q 149 324 104 310 q 272 338 194 338 q 345 335 307 338 q 419 331 383 333 q 479 324 454 328 q 513 318 504 321 q 500 439 514 394 q 460 504 486 483 q 395 531 433 525 q 311 538 357 538 q 220 533 265 538 q 140 519 175 529 q 93 493 106 510 l 93 503 q 112 535 93 526 q 147 547 131 543 q 215 558 171 554 q 301 563 258 563 q 403 556 358 563 q 478 528 447 550 q 526 463 510 507 q 543 343 543 419 l 544 50 q 492 3 544 18 q 300 -11 440 -11 m 300 13 q 425 17 381 13 q 490 32 469 22 q 514 56 510 42 l 513 292 q 464 302 501 297 q 383 311 426 307 q 306 315 339 315 q 185 308 231 315 q 119 268 139 300 q 99 165 99 236 q 112 80 99 114 q 168 29 125 46 q 300 13 211 13 m 304 636 q 235 652 263 636 q 194 698 207 668 q 181 768 181 728 l 201 768 q 228 690 201 717 q 304 663 254 663 q 385 690 363 663 q 407 768 407 717 l 428 768 q 416 698 428 728 q 377 652 404 668 q 304 636 350 636 m 367 806 q 324 817 344 806 q 281 841 303 829 q 239 853 260 853 q 206 838 217 853 q 190 811 196 822 l 172 821 q 179 836 175 826 q 192 856 183 846 q 212 874 200 867 q 242 881 224 881 q 285 868 264 881 q 326 844 306 856 q 365 832 346 832 q 406 849 393 832 q 424 875 419 865 l 442 865 q 434 850 439 860 q 420 830 429 840 q 398 813 411 819 q 367 806 385 806 z "},"â":{"ha":629,"x_min":67,"x_max":544,"o":"m 300 -11 q 182 -1 228 -11 q 111 29 136 8 q 76 83 86 50 q 67 164 67 117 q 85 272 67 235 q 149 324 104 310 q 272 338 194 338 q 345 335 307 338 q 419 331 383 333 q 479 324 454 328 q 513 318 504 321 q 500 439 514 394 q 460 504 486 483 q 395 531 433 525 q 311 538 357 538 q 220 533 265 538 q 140 519 175 529 q 93 493 106 510 l 93 503 q 112 535 93 526 q 147 547 131 543 q 215 558 171 554 q 301 563 258 563 q 403 556 358 563 q 478 528 447 550 q 526 463 510 507 q 543 343 543 419 l 544 50 q 492 3 544 18 q 300 -11 440 -11 m 300 13 q 425 17 381 13 q 490 32 469 22 q 514 56 510 42 l 513 292 q 464 302 501 297 q 383 311 426 307 q 306 315 339 315 q 185 308 231 315 q 119 268 139 300 q 99 165 99 236 q 112 80 99 114 q 168 29 125 46 q 300 13 211 13 m 183 639 l 292 782 l 315 782 l 424 639 l 400 639 l 303 756 l 207 639 l 183 639 z "},"ấ":{"ha":629,"x_min":67,"x_max":607,"o":"m 300 -11 q 182 -1 228 -11 q 111 29 136 8 q 76 83 86 50 q 67 164 67 117 q 85 272 67 235 q 149 324 104 310 q 272 338 194 338 q 345 335 307 338 q 419 331 383 333 q 479 324 454 328 q 513 318 504 321 q 500 439 514 394 q 460 504 486 483 q 395 531 433 525 q 311 538 357 538 q 220 533 265 538 q 140 519 175 529 q 93 493 106 510 l 93 503 q 112 535 93 526 q 147 547 131 543 q 215 558 171 554 q 301 563 258 563 q 403 556 358 563 q 478 528 447 550 q 526 463 510 507 q 543 343 543 419 l 544 50 q 492 3 544 18 q 300 -11 440 -11 m 300 13 q 425 17 381 13 q 490 32 469 22 q 514 56 510 42 l 513 292 q 464 302 501 297 q 383 311 426 307 q 306 315 339 315 q 185 308 231 315 q 119 268 139 300 q 99 165 99 236 q 112 80 99 114 q 168 29 125 46 q 300 13 211 13 m 183 639 l 292 782 l 315 782 l 424 639 l 400 639 l 303 756 l 207 639 l 183 639 m 447 735 l 582 878 l 607 851 l 468 735 l 447 735 z "},"ậ":{"ha":629,"x_min":67,"x_max":544,"o":"m 300 -11 q 182 -1 228 -11 q 111 29 136 8 q 76 83 86 50 q 67 164 67 117 q 85 272 67 235 q 149 324 104 310 q 272 338 194 338 q 345 335 307 338 q 419 331 383 333 q 479 324 454 328 q 513 318 504 321 q 500 439 514 394 q 460 504 486 483 q 395 531 433 525 q 311 538 357 538 q 220 533 265 538 q 140 519 175 529 q 93 493 106 510 l 93 503 q 112 535 93 526 q 147 547 131 543 q 215 558 171 554 q 301 563 258 563 q 403 556 358 563 q 478 528 447 550 q 526 463 510 507 q 543 343 543 419 l 544 50 q 492 3 544 18 q 300 -11 440 -11 m 300 13 q 425 17 381 13 q 490 32 469 22 q 514 56 510 42 l 513 292 q 464 302 501 297 q 383 311 426 307 q 306 315 339 315 q 185 308 231 315 q 119 268 139 300 q 99 165 99 236 q 112 80 99 114 q 168 29 125 46 q 300 13 211 13 m 306 -151 q 294 -150 300 -151 q 283 -144 288 -149 q 278 -129 278 -139 q 286 -110 278 -114 q 304 -106 294 -106 q 323 -109 315 -106 q 331 -129 331 -112 q 326 -144 331 -139 q 317 -150 322 -149 q 306 -151 311 -151 m 183 639 l 292 782 l 315 782 l 424 639 l 400 639 l 303 756 l 207 639 l 183 639 z "},"ầ":{"ha":629,"x_min":67,"x_max":544,"o":"m 300 -11 q 182 -1 228 -11 q 111 29 136 8 q 76 83 86 50 q 67 164 67 117 q 85 272 67 235 q 149 324 104 310 q 272 338 194 338 q 345 335 307 338 q 419 331 383 333 q 479 324 454 328 q 513 318 504 321 q 500 439 514 394 q 460 504 486 483 q 395 531 433 525 q 311 538 357 538 q 220 533 265 538 q 140 519 175 529 q 93 493 106 510 l 93 503 q 112 535 93 526 q 147 547 131 543 q 215 558 171 554 q 301 563 258 563 q 403 556 358 563 q 478 528 447 550 q 526 463 510 507 q 543 343 543 419 l 544 50 q 492 3 544 18 q 300 -11 440 -11 m 300 13 q 425 17 381 13 q 490 32 469 22 q 514 56 510 42 l 513 292 q 464 302 501 297 q 383 311 426 307 q 306 315 339 315 q 185 308 231 315 q 119 268 139 300 q 99 165 99 236 q 112 80 99 114 q 168 29 125 46 q 300 13 211 13 m 183 639 l 292 782 l 315 782 l 424 639 l 400 639 l 303 756 l 207 639 l 183 639 m 471 735 l 333 851 l 357 878 l 493 735 l 471 735 z "},"ẩ":{"ha":629,"x_min":67,"x_max":554,"o":"m 300 -11 q 182 -1 228 -11 q 111 29 136 8 q 76 83 86 50 q 67 164 67 117 q 85 272 67 235 q 149 324 104 310 q 272 338 194 338 q 345 335 307 338 q 419 331 383 333 q 479 324 454 328 q 513 318 504 321 q 500 439 514 394 q 460 504 486 483 q 395 531 433 525 q 311 538 357 538 q 220 533 265 538 q 140 519 175 529 q 93 493 106 510 l 93 503 q 112 535 93 526 q 147 547 131 543 q 215 558 171 554 q 301 563 258 563 q 403 556 358 563 q 478 528 447 550 q 526 463 510 507 q 543 343 543 419 l 544 50 q 492 3 544 18 q 300 -11 440 -11 m 300 13 q 425 17 381 13 q 490 32 469 22 q 514 56 510 42 l 513 292 q 464 302 501 297 q 383 311 426 307 q 306 315 339 315 q 185 308 231 315 q 119 268 139 300 q 99 165 99 236 q 112 80 99 114 q 168 29 125 46 q 300 13 211 13 m 183 639 l 292 782 l 315 782 l 424 639 l 400 639 l 303 756 l 207 639 l 183 639 m 465 728 l 465 740 q 481 763 465 754 q 511 785 496 772 q 526 818 526 797 l 526 821 q 517 861 526 851 q 475 871 507 871 q 437 859 446 871 q 424 833 428 847 l 406 839 q 476 892 417 892 q 535 878 517 892 q 554 822 554 865 l 554 819 q 537 779 554 793 q 502 756 519 765 q 485 732 485 747 l 485 728 l 465 728 z "},"ẫ":{"ha":629,"x_min":67,"x_max":544,"o":"m 300 -11 q 182 -1 228 -11 q 111 29 136 8 q 76 83 86 50 q 67 164 67 117 q 85 272 67 235 q 149 324 104 310 q 272 338 194 338 q 345 335 307 338 q 419 331 383 333 q 479 324 454 328 q 513 318 504 321 q 500 439 514 394 q 460 504 486 483 q 395 531 433 525 q 311 538 357 538 q 220 533 265 538 q 140 519 175 529 q 93 493 106 510 l 93 503 q 112 535 93 526 q 147 547 131 543 q 215 558 171 554 q 301 563 258 563 q 403 556 358 563 q 478 528 447 550 q 526 463 510 507 q 543 343 543 419 l 544 50 q 492 3 544 18 q 300 -11 440 -11 m 300 13 q 425 17 381 13 q 490 32 469 22 q 514 56 510 42 l 513 292 q 464 302 501 297 q 383 311 426 307 q 306 315 339 315 q 185 308 231 315 q 119 268 139 300 q 99 165 99 236 q 112 80 99 114 q 168 29 125 46 q 300 13 211 13 m 183 639 l 292 782 l 315 782 l 424 639 l 400 639 l 303 756 l 207 639 l 183 639 m 363 825 q 319 837 340 825 q 277 860 299 849 q 235 872 256 872 q 202 857 213 872 q 186 831 192 842 l 168 840 q 175 856 171 846 q 188 876 179 865 q 208 893 196 886 q 238 900 219 900 q 281 888 260 900 q 322 863 301 875 q 361 851 342 851 q 402 868 389 851 q 419 894 415 885 l 438 885 q 430 869 435 879 q 416 849 425 860 q 394 832 407 839 q 363 825 381 825 z "},"´":{"ha":318,"x_min":4,"x_max":164,"o":"m 4 639 l 139 782 l 164 756 l 25 639 l 4 639 z "},"́":{"ha":0,"x_min":4,"x_max":164,"o":"m 4 639 l 139 782 l 164 756 l 25 639 l 4 639 z "},"ȁ":{"ha":629,"x_min":67,"x_max":544,"o":"m 300 -11 q 182 -1 228 -11 q 111 29 136 8 q 76 83 86 50 q 67 164 67 117 q 85 272 67 235 q 149 324 104 310 q 272 338 194 338 q 345 335 307 338 q 419 331 383 333 q 479 324 454 328 q 513 318 504 321 q 500 439 514 394 q 460 504 486 483 q 395 531 433 525 q 311 538 357 538 q 220 533 265 538 q 140 519 175 529 q 93 493 106 510 l 93 503 q 112 535 93 526 q 147 547 131 543 q 215 558 171 554 q 301 563 258 563 q 403 556 358 563 q 478 528 447 550 q 526 463 510 507 q 543 343 543 419 l 544 50 q 492 3 544 18 q 300 -11 440 -11 m 300 13 q 425 17 381 13 q 490 32 469 22 q 514 56 510 42 l 513 292 q 464 302 501 297 q 383 311 426 307 q 306 315 339 315 q 185 308 231 315 q 119 268 139 300 q 99 165 99 236 q 112 80 99 114 q 168 29 125 46 q 300 13 211 13 m 263 638 l 140 757 l 171 781 l 283 638 l 263 638 m 365 638 l 260 769 l 289 790 l 386 638 l 365 638 z "},"ä":{"ha":629,"x_min":67,"x_max":544,"o":"m 300 -11 q 182 -1 228 -11 q 111 29 136 8 q 76 83 86 50 q 67 164 67 117 q 85 272 67 235 q 149 324 104 310 q 272 338 194 338 q 345 335 307 338 q 419 331 383 333 q 479 324 454 328 q 513 318 504 321 q 500 439 514 394 q 460 504 486 483 q 395 531 433 525 q 311 538 357 538 q 220 533 265 538 q 140 519 175 529 q 93 493 106 510 l 93 503 q 112 535 93 526 q 147 547 131 543 q 215 558 171 554 q 301 563 258 563 q 403 556 358 563 q 478 528 447 550 q 526 463 510 507 q 543 343 543 419 l 544 50 q 492 3 544 18 q 300 -11 440 -11 m 300 13 q 425 17 381 13 q 490 32 469 22 q 514 56 510 42 l 513 292 q 464 302 501 297 q 383 311 426 307 q 306 315 339 315 q 185 308 231 315 q 119 268 139 300 q 99 165 99 236 q 112 80 99 114 q 168 29 125 46 q 300 13 211 13 m 383 639 q 363 643 374 639 q 353 665 353 647 q 363 687 353 683 q 382 690 374 690 q 402 687 392 690 q 413 665 413 683 q 404 643 413 647 q 383 639 396 639 m 225 639 q 203 643 213 639 q 194 667 194 647 q 204 687 194 683 q 224 690 214 690 q 244 687 233 690 q 254 667 254 683 q 245 644 254 649 q 225 639 236 639 z "},"ạ":{"ha":629,"x_min":67,"x_max":544,"o":"m 300 -11 q 182 -1 228 -11 q 111 29 136 8 q 76 83 86 50 q 67 164 67 117 q 85 272 67 235 q 149 324 104 310 q 272 338 194 338 q 345 335 307 338 q 419 331 383 333 q 479 324 454 328 q 513 318 504 321 q 500 439 514 394 q 460 504 486 483 q 395 531 433 525 q 311 538 357 538 q 220 533 265 538 q 140 519 175 529 q 93 493 106 510 l 93 503 q 112 535 93 526 q 147 547 131 543 q 215 558 171 554 q 301 563 258 563 q 403 556 358 563 q 478 528 447 550 q 526 463 510 507 q 543 343 543 419 l 544 50 q 492 3 544 18 q 300 -11 440 -11 m 300 13 q 425 17 381 13 q 490 32 469 22 q 514 56 510 42 l 513 292 q 464 302 501 297 q 383 311 426 307 q 306 315 339 315 q 185 308 231 315 q 119 268 139 300 q 99 165 99 236 q 112 80 99 114 q 168 29 125 46 q 300 13 211 13 m 306 -151 q 294 -150 300 -151 q 283 -144 288 -149 q 278 -129 278 -139 q 286 -110 278 -114 q 304 -106 294 -106 q 323 -109 315 -106 q 331 -129 331 -112 q 326 -144 331 -139 q 317 -150 322 -149 q 306 -151 311 -151 z "},"æ":{"ha":1089,"x_min":67,"x_max":1006,"o":"m 300 -11 q 182 -1 228 -11 q 111 29 136 8 q 76 83 86 50 q 67 164 67 117 q 85 272 67 235 q 149 324 104 310 q 272 338 194 338 q 345 335 307 338 q 419 331 383 333 q 479 324 454 328 q 513 318 504 321 q 500 439 514 394 q 460 504 486 483 q 395 531 433 525 q 311 538 357 538 q 220 533 265 538 q 140 519 175 529 q 93 493 106 510 l 93 503 q 112 535 93 526 q 147 547 131 543 q 215 558 171 554 q 301 563 258 563 q 403 556 358 563 q 478 528 447 550 q 526 463 510 507 q 543 343 543 419 l 544 50 q 492 3 544 18 q 300 -11 440 -11 m 300 13 q 425 17 381 13 q 490 32 469 22 q 514 56 510 42 l 513 292 q 464 302 501 297 q 383 311 426 307 q 306 315 339 315 q 185 308 231 315 q 119 268 139 300 q 99 165 99 236 q 112 80 99 114 q 168 29 125 46 q 300 13 211 13 m 786 -10 q 665 2 715 -10 q 584 45 615 14 q 539 133 553 76 q 525 278 525 189 q 547 437 525 374 q 625 531 568 500 q 785 563 682 563 q 913 539 864 563 q 983 465 961 515 q 1006 335 1006 414 l 1006 272 l 610 272 q 615 289 610 282 q 635 296 621 296 l 976 296 l 975 342 q 929 490 972 444 q 785 536 886 536 q 649 510 699 536 q 578 427 599 483 q 557 278 557 371 q 579 115 557 171 q 651 38 601 58 q 786 17 701 17 q 844 19 814 17 q 904 25 875 21 q 958 35 933 29 q 994 47 982 40 l 994 36 q 987 19 994 26 q 951 6 979 13 q 874 -6 917 -1 q 786 -10 831 -10 z "},"ǽ":{"ha":1089,"x_min":67,"x_max":1006,"o":"m 300 -11 q 182 -1 228 -11 q 111 29 136 8 q 76 83 86 50 q 67 164 67 117 q 85 272 67 235 q 149 324 104 310 q 272 338 194 338 q 345 335 307 338 q 419 331 383 333 q 479 324 454 328 q 513 318 504 321 q 500 439 514 394 q 460 504 486 483 q 395 531 433 525 q 311 538 357 538 q 220 533 265 538 q 140 519 175 529 q 93 493 106 510 l 93 503 q 112 535 93 526 q 147 547 131 543 q 215 558 171 554 q 301 563 258 563 q 403 556 358 563 q 478 528 447 550 q 526 463 510 507 q 543 343 543 419 l 544 50 q 492 3 544 18 q 300 -11 440 -11 m 300 13 q 425 17 381 13 q 490 32 469 22 q 514 56 510 42 l 513 292 q 464 302 501 297 q 383 311 426 307 q 306 315 339 315 q 185 308 231 315 q 119 268 139 300 q 99 165 99 236 q 112 80 99 114 q 168 29 125 46 q 300 13 211 13 m 786 -10 q 665 2 715 -10 q 584 45 615 14 q 539 133 553 76 q 525 278 525 189 q 547 437 525 374 q 625 531 568 500 q 785 563 682 563 q 913 539 864 563 q 983 465 961 515 q 1006 335 1006 414 l 1006 272 l 610 272 q 615 289 610 282 q 635 296 621 296 l 976 296 l 975 342 q 929 490 972 444 q 785 536 886 536 q 649 510 699 536 q 578 427 599 483 q 557 278 557 371 q 579 115 557 171 q 651 38 601 58 q 786 17 701 17 q 844 19 814 17 q 904 25 875 21 q 958 35 933 29 q 994 47 982 40 l 994 36 q 987 19 994 26 q 951 6 979 13 q 874 -6 917 -1 q 786 -10 831 -10 m 521 639 l 656 782 l 681 756 l 542 639 l 521 639 z "},"à":{"ha":629,"x_min":67,"x_max":544,"o":"m 300 -11 q 182 -1 228 -11 q 111 29 136 8 q 76 83 86 50 q 67 164 67 117 q 85 272 67 235 q 149 324 104 310 q 272 338 194 338 q 345 335 307 338 q 419 331 383 333 q 479 324 454 328 q 513 318 504 321 q 500 439 514 394 q 460 504 486 483 q 395 531 433 525 q 311 538 357 538 q 220 533 265 538 q 140 519 175 529 q 93 493 106 510 l 93 503 q 112 535 93 526 q 147 547 131 543 q 215 558 171 554 q 301 563 258 563 q 403 556 358 563 q 478 528 447 550 q 526 463 510 507 q 543 343 543 419 l 544 50 q 492 3 544 18 q 300 -11 440 -11 m 300 13 q 425 17 381 13 q 490 32 469 22 q 514 56 510 42 l 513 292 q 464 302 501 297 q 383 311 426 307 q 306 315 339 315 q 185 308 231 315 q 119 268 139 300 q 99 165 99 236 q 112 80 99 114 q 168 29 125 46 q 300 13 211 13 m 304 639 l 167 756 l 190 782 l 326 639 l 304 639 z "},"ả":{"ha":629,"x_min":67,"x_max":544,"o":"m 300 -11 q 182 -1 228 -11 q 111 29 136 8 q 76 83 86 50 q 67 164 67 117 q 85 272 67 235 q 149 324 104 310 q 272 338 194 338 q 345 335 307 338 q 419 331 383 333 q 479 324 454 328 q 513 318 504 321 q 500 439 514 394 q 460 504 486 483 q 395 531 433 525 q 311 538 357 538 q 220 533 265 538 q 140 519 175 529 q 93 493 106 510 l 93 503 q 112 535 93 526 q 147 547 131 543 q 215 558 171 554 q 301 563 258 563 q 403 556 358 563 q 478 528 447 550 q 526 463 510 507 q 543 343 543 419 l 544 50 q 492 3 544 18 q 300 -11 440 -11 m 300 13 q 425 17 381 13 q 490 32 469 22 q 514 56 510 42 l 513 292 q 464 302 501 297 q 383 311 426 307 q 306 315 339 315 q 185 308 231 315 q 119 268 139 300 q 99 165 99 236 q 112 80 99 114 q 168 29 125 46 q 300 13 211 13 m 299 632 l 299 644 q 314 667 299 658 q 344 689 329 676 q 360 722 360 701 l 360 725 q 350 765 360 756 q 308 775 340 775 q 270 763 279 775 q 257 738 261 751 l 239 743 q 310 796 250 796 q 369 783 350 796 q 388 726 388 769 l 388 724 q 370 683 388 697 q 335 660 353 669 q 318 636 318 651 l 318 632 l 299 632 z "},"ȃ":{"ha":629,"x_min":67,"x_max":544,"o":"m 304 767 q 377 751 350 767 q 416 706 404 735 q 428 635 428 676 l 407 635 q 385 713 407 686 q 304 740 363 740 q 228 713 254 740 q 201 635 201 686 l 181 635 q 194 706 181 676 q 235 751 207 735 q 304 767 263 767 m 300 -11 q 182 -1 228 -11 q 111 29 136 8 q 76 83 86 50 q 67 164 67 117 q 85 272 67 235 q 149 324 104 310 q 272 338 194 338 q 345 335 307 338 q 419 331 383 333 q 479 324 454 328 q 513 318 504 321 q 500 439 514 394 q 460 504 486 483 q 395 531 433 525 q 311 538 357 538 q 220 533 265 538 q 140 519 175 529 q 93 493 106 510 l 93 503 q 112 535 93 526 q 147 547 131 543 q 215 558 171 554 q 301 563 258 563 q 403 556 358 563 q 478 528 447 550 q 526 463 510 507 q 543 343 543 419 l 544 50 q 492 3 544 18 q 300 -11 440 -11 m 300 13 q 425 17 381 13 q 490 32 469 22 q 514 56 510 42 l 513 292 q 464 302 501 297 q 383 311 426 307 q 306 315 339 315 q 185 308 231 315 q 119 268 139 300 q 99 165 99 236 q 112 80 99 114 q 168 29 125 46 q 300 13 211 13 z "},"ā":{"ha":629,"x_min":67,"x_max":544,"o":"m 300 -11 q 182 -1 228 -11 q 111 29 136 8 q 76 83 86 50 q 67 164 67 117 q 85 272 67 235 q 149 324 104 310 q 272 338 194 338 q 345 335 307 338 q 419 331 383 333 q 479 324 454 328 q 513 318 504 321 q 500 439 514 394 q 460 504 486 483 q 395 531 433 525 q 311 538 357 538 q 220 533 265 538 q 140 519 175 529 q 93 493 106 510 l 93 503 q 112 535 93 526 q 147 547 131 543 q 215 558 171 554 q 301 563 258 563 q 403 556 358 563 q 478 528 447 550 q 526 463 510 507 q 543 343 543 419 l 544 50 q 492 3 544 18 q 300 -11 440 -11 m 300 13 q 425 17 381 13 q 490 32 469 22 q 514 56 510 42 l 513 292 q 464 302 501 297 q 383 311 426 307 q 306 315 339 315 q 185 308 231 315 q 119 268 139 300 q 99 165 99 236 q 112 80 99 114 q 168 29 125 46 q 300 13 211 13 m 174 640 l 174 665 l 436 665 l 436 640 l 174 640 z "},"&":{"ha":697,"x_min":57,"x_max":663,"o":"m 663 0 q 621 27 649 7 q 556 75 593 47 q 521 28 544 44 q 465 3 497 11 q 375 -10 428 -7 q 269 -10 322 -12 q 176 0 215 -7 q 112 26 139 7 q 71 87 85 44 q 57 206 57 129 q 67 283 57 244 q 98 348 78 321 q 146 381 118 375 q 107 425 122 400 q 92 497 92 450 q 114 580 92 550 q 172 624 136 610 q 248 641 207 638 q 328 644 289 644 q 375 644 351 644 q 422 642 399 643 q 467 638 446 640 q 506 631 486 635 q 538 616 525 626 q 551 585 551 606 q 494 606 533 599 q 410 616 454 613 q 336 619 367 619 q 268 617 304 619 q 199 602 232 614 q 146 565 167 590 q 125 496 125 540 q 144 429 125 457 q 196 375 164 401 l 533 126 l 533 363 q 556 359 549 363 q 565 350 563 356 q 567 335 567 344 q 567 253 567 297 q 566 170 567 210 q 563 106 565 131 l 663 33 l 663 0 m 165 360 q 120 326 136 354 q 98 265 104 299 q 92 208 92 231 q 117 72 92 110 q 192 24 142 35 q 273 14 226 17 q 367 14 319 11 q 450 25 415 17 q 486 38 469 31 q 515 58 503 46 q 531 90 526 71 q 348 226 439 158 q 165 360 257 293 z "},"ą":{"ha":629,"x_min":67,"x_max":544,"o":"m 300 -11 q 182 -1 228 -11 q 111 29 136 8 q 76 83 86 50 q 67 164 67 117 q 85 272 67 235 q 149 324 104 310 q 272 338 194 338 q 345 335 307 338 q 419 331 383 333 q 479 324 454 328 q 513 318 504 321 q 500 439 514 394 q 460 504 486 483 q 395 531 433 525 q 311 538 357 538 q 220 533 265 538 q 140 519 175 529 q 93 493 106 510 l 93 503 q 112 535 93 526 q 147 547 131 543 q 215 558 171 554 q 301 563 258 563 q 403 556 358 563 q 478 528 447 550 q 526 463 510 507 q 543 343 543 419 l 544 50 q 492 3 544 18 q 300 -11 440 -11 m 300 13 q 425 17 381 13 q 490 32 469 22 q 514 56 510 42 l 513 292 q 464 302 501 297 q 383 311 426 307 q 306 315 339 315 q 185 308 231 315 q 119 268 139 300 q 99 165 99 236 q 112 80 99 114 q 168 29 125 46 q 300 13 211 13 m 478 -235 q 408 -228 436 -235 q 365 -201 379 -221 q 350 -146 350 -182 q 367 -92 350 -118 q 406 -45 383 -67 q 452 -8 429 -24 q 488 15 475 8 l 517 15 q 485 -5 507 11 q 439 -43 463 -21 q 398 -90 415 -65 q 381 -137 381 -115 q 406 -199 381 -185 q 474 -214 431 -214 q 497 -213 485 -214 q 517 -212 508 -212 q 529 -211 526 -211 q 526 -225 529 -219 q 512 -233 522 -231 q 478 -235 501 -235 z "},"ʼ":{"ha":90,"x_min":0,"x_max":90,"o":"m 60 740 l 90 740 l 22 554 l 0 554 l 60 740 z "},"":{"ha":553,"x_min":72,"x_max":481,"o":"m 385 464 q 380 442 383 453 q 369 422 376 432 q 336 389 356 400 q 286 375 314 375 q 285 389 285 381 q 286 410 285 397 q 306 456 290 435 q 344 490 321 478 q 376 497 368 501 q 385 464 388 485 m 481 133 q 474 112 478 124 q 464 89 469 100 q 436 47 453 64 q 403 15 421 26 q 385 6 394 10 q 367 3 376 3 q 338 8 347 3 q 329 13 333 11 q 322 17 325 15 q 283 25 308 25 q 244 17 260 25 q 229 8 240 13 q 200 3 219 3 q 165 18 181 3 q 151 33 160 25 q 132 53 142 42 q 114 79 122 65 q 99 110 106 93 q 76 181 83 142 q 74 216 75 197 q 74 253 72 235 q 93 317 76 286 q 108 340 100 331 q 126 358 117 350 q 161 378 147 374 q 177 382 169 381 q 192 383 185 383 q 210 381 207 383 q 221 378 214 381 q 233 374 228 376 l 263 364 q 286 361 276 360 q 294 362 290 361 q 304 364 299 363 l 333 374 q 347 378 342 376 q 356 381 351 381 l 374 385 q 403 381 386 385 q 419 376 411 379 q 438 365 428 372 q 468 332 453 356 q 431 296 447 319 q 414 228 410 268 q 435 171 414 199 q 481 133 454 146 z "},"≈":{"ha":439,"x_min":68,"x_max":381,"o":"m 68 172 q 94 214 85 201 q 115 233 103 226 q 148 235 126 239 q 192 224 169 231 q 214 219 203 222 q 233 213 225 215 q 280 201 265 204 q 300 197 294 199 q 338 207 322 192 q 357 235 354 222 q 369 235 364 235 q 381 235 375 235 q 367 213 374 222 q 357 197 361 204 q 344 185 350 190 q 331 176 338 179 q 318 172 325 174 q 305 173 313 172 q 286 175 297 174 q 222 193 249 186 q 179 204 196 200 q 149 210 160 208 q 135 211 139 211 q 104 200 118 211 q 92 172 92 188 q 81 172 86 172 q 68 172 75 172 m 68 313 q 94 354 85 342 q 115 374 103 367 q 148 374 126 378 q 192 364 169 371 q 220 357 207 360 q 242 351 233 354 q 272 343 250 349 q 300 338 294 338 q 341 350 328 338 q 357 374 354 363 q 369 374 364 374 q 381 375 375 374 q 369 355 375 364 q 360 339 364 346 q 345 325 353 331 q 331 317 338 319 q 315 313 324 314 q 303 313 310 311 q 286 315 296 314 q 236 329 258 324 q 197 339 214 335 q 153 349 167 346 q 135 351 140 351 q 110 343 121 351 q 92 313 94 332 q 81 313 86 313 q 68 313 75 313 z "},"å":{"ha":629,"x_min":67,"x_max":544,"o":"m 300 -11 q 182 -1 228 -11 q 111 29 136 8 q 76 83 86 50 q 67 164 67 117 q 85 272 67 235 q 149 324 104 310 q 272 338 194 338 q 345 335 307 338 q 419 331 383 333 q 479 324 454 328 q 513 318 504 321 q 500 439 514 394 q 460 504 486 483 q 395 531 433 525 q 311 538 357 538 q 220 533 265 538 q 140 519 175 529 q 93 493 106 510 l 93 503 q 112 535 93 526 q 147 547 131 543 q 215 558 171 554 q 301 563 258 563 q 403 556 358 563 q 478 528 447 550 q 526 463 510 507 q 543 343 543 419 l 544 50 q 492 3 544 18 q 300 -11 440 -11 m 300 13 q 425 17 381 13 q 490 32 469 22 q 514 56 510 42 l 513 292 q 464 302 501 297 q 383 311 426 307 q 306 315 339 315 q 185 308 231 315 q 119 268 139 300 q 99 165 99 236 q 112 80 99 114 q 168 29 125 46 q 300 13 211 13 m 292 640 q 224 657 240 640 q 208 711 208 674 q 224 764 208 747 q 292 781 240 781 q 360 764 344 781 q 375 711 375 747 q 360 657 375 674 q 292 640 344 640 m 292 658 q 335 667 319 658 q 350 711 350 676 q 335 753 350 744 q 292 763 319 763 q 249 753 265 763 q 233 711 233 744 q 249 667 233 676 q 292 658 264 658 z "},"ǻ":{"ha":629,"x_min":67,"x_max":544,"o":"m 300 -11 q 182 -1 228 -11 q 111 29 136 8 q 76 83 86 50 q 67 164 67 117 q 85 272 67 235 q 149 324 104 310 q 272 338 194 338 q 345 335 307 338 q 419 331 383 333 q 479 324 454 328 q 513 318 504 321 q 500 439 514 394 q 460 504 486 483 q 395 531 433 525 q 311 538 357 538 q 220 533 265 538 q 140 519 175 529 q 93 493 106 510 l 93 503 q 112 535 93 526 q 147 547 131 543 q 215 558 171 554 q 301 563 258 563 q 403 556 358 563 q 478 528 447 550 q 526 463 510 507 q 543 343 543 419 l 544 50 q 492 3 544 18 q 300 -11 440 -11 m 300 13 q 425 17 381 13 q 490 32 469 22 q 514 56 510 42 l 513 292 q 464 302 501 297 q 383 311 426 307 q 306 315 339 315 q 185 308 231 315 q 119 268 139 300 q 99 165 99 236 q 112 80 99 114 q 168 29 125 46 q 300 13 211 13 m 292 640 q 224 657 240 640 q 208 711 208 674 q 224 764 208 747 q 292 781 240 781 q 360 764 344 781 q 375 711 375 747 q 360 657 375 674 q 292 640 344 640 m 292 658 q 335 667 319 658 q 350 711 350 676 q 335 753 350 744 q 292 763 319 763 q 249 753 265 763 q 233 711 233 744 q 249 667 233 676 q 292 658 264 658 m 275 814 l 410 957 l 435 931 l 296 814 l 275 814 z "},"^":{"ha":438,"x_min":58,"x_max":379,"o":"m 81 318 l 58 318 l 204 639 l 231 639 l 379 318 l 351 318 l 218 613 l 81 318 z "},"~":{"ha":489,"x_min":68,"x_max":418,"o":"m 68 683 q 74 695 68 683 q 92 722 81 707 q 122 749 104 738 q 161 761 139 761 q 203 754 182 761 q 244 738 224 747 q 285 721 265 728 q 324 714 304 714 q 368 726 353 714 q 391 753 383 739 q 403 775 399 768 l 418 765 q 412 753 418 765 q 394 726 406 742 q 366 699 383 711 q 325 688 349 688 q 283 694 304 688 q 242 711 263 701 q 201 728 221 721 q 160 736 181 736 q 118 724 133 736 q 95 697 103 711 q 83 675 88 682 l 68 683 z "},"*":{"ha":714,"x_min":93,"x_max":664,"o":"m 529 101 l 379 335 l 229 101 l 186 132 l 363 347 l 93 417 l 110 467 l 368 367 l 351 643 l 404 643 l 389 367 l 647 468 l 664 418 l 397 347 l 572 133 l 529 101 z "},"@":{"ha":1051,"x_min":110,"x_max":942,"o":"m 513 628 q 337 614 408 628 q 222 564 265 600 q 160 463 179 528 q 140 296 140 399 q 164 126 140 189 q 235 31 188 63 q 356 -11 283 -1 q 526 -21 429 -21 q 649 -15 588 -21 q 765 1 710 -10 q 867 24 821 11 q 942 53 913 38 q 942 35 942 43 q 942 18 942 28 q 837 -11 901 4 q 694 -37 772 -26 q 535 -47 617 -47 q 447 -46 489 -47 q 369 -40 406 -44 q 301 -28 333 -36 q 244 -7 269 -19 q 197 24 218 6 q 132 126 154 61 q 110 296 110 192 q 135 482 110 411 q 210 590 160 553 q 337 639 261 626 q 514 651 413 651 q 686 643 613 651 q 809 608 760 635 q 884 524 858 581 q 910 372 910 468 q 907 298 910 339 q 892 219 904 257 q 851 158 879 182 q 771 135 822 135 q 715 144 736 135 q 686 169 694 154 q 676 197 678 183 q 642 164 664 178 q 593 140 621 150 q 538 130 568 133 q 476 126 508 126 q 369 140 411 126 q 306 192 326 154 q 286 304 286 231 q 313 425 286 388 q 391 472 339 463 q 521 478 443 481 q 578 475 549 476 q 634 472 607 474 q 681 469 661 471 q 710 467 701 468 q 708 446 708 464 q 707 404 707 428 q 707 307 707 356 q 707 210 707 258 q 728 167 707 175 q 774 158 749 158 q 840 186 817 158 q 872 263 863 214 q 881 376 881 313 q 854 517 881 467 q 779 592 828 568 q 663 622 731 615 q 513 628 596 628 m 675 447 q 638 450 667 449 q 572 453 608 451 q 503 456 535 456 q 391 443 431 456 q 335 399 351 431 q 319 310 319 368 q 333 212 319 246 q 385 165 347 178 q 493 151 422 151 q 548 155 517 151 q 608 172 579 158 q 656 216 638 186 q 675 297 675 246 l 675 447 z "},"ã":{"ha":629,"x_min":67,"x_max":544,"o":"m 300 -11 q 182 -1 228 -11 q 111 29 136 8 q 76 83 86 50 q 67 164 67 117 q 85 272 67 235 q 149 324 104 310 q 272 338 194 338 q 345 335 307 338 q 419 331 383 333 q 479 324 454 328 q 513 318 504 321 q 500 439 514 394 q 460 504 486 483 q 395 531 433 525 q 311 538 357 538 q 220 533 265 538 q 140 519 175 529 q 93 493 106 510 l 93 503 q 112 535 93 526 q 147 547 131 543 q 215 558 171 554 q 301 563 258 563 q 403 556 358 563 q 478 528 447 550 q 526 463 510 507 q 543 343 543 419 l 544 50 q 492 3 544 18 q 300 -11 440 -11 m 300 13 q 425 17 381 13 q 490 32 469 22 q 514 56 510 42 l 513 292 q 464 302 501 297 q 383 311 426 307 q 306 315 339 315 q 185 308 231 315 q 119 268 139 300 q 99 165 99 236 q 112 80 99 114 q 168 29 125 46 q 300 13 211 13 m 367 635 q 324 647 344 635 q 281 670 303 658 q 239 682 260 682 q 206 667 217 682 q 190 640 196 651 l 172 650 q 179 665 175 656 q 192 685 183 675 q 212 703 200 696 q 242 710 224 710 q 285 697 264 710 q 326 673 306 685 q 365 661 346 661 q 406 678 393 661 q 424 704 419 694 l 442 694 q 434 679 439 689 q 420 659 429 669 q 398 642 411 649 q 367 635 385 635 z "},"b":{"ha":640,"x_min":92,"x_max":569,"o":"m 313 -3 q 199 6 243 -3 q 133 41 156 14 q 101 122 110 68 q 93 268 93 176 l 92 701 l 122 701 l 122 547 q 150 549 125 547 q 210 551 175 550 q 276 554 244 553 q 325 556 308 556 q 471 529 418 556 q 546 442 524 503 q 569 282 568 382 q 550 117 569 175 q 496 33 531 58 q 414 2 461 7 q 313 -3 367 -3 m 313 22 q 447 40 399 22 q 517 115 496 58 q 539 282 539 171 q 517 426 539 372 q 451 506 496 481 q 335 531 406 531 q 279 530 313 531 q 211 528 246 529 q 152 525 176 526 q 124 524 128 524 l 124 267 q 129 139 124 188 q 153 65 135 90 q 209 31 171 40 q 313 22 247 22 z "},"\\":{"ha":483,"x_min":76,"x_max":404,"o":"m 99 789 l 404 -35 l 383 -35 l 76 789 l 99 789 z "},"|":{"ha":146,"x_min":57,"x_max":89,"o":"m 89 639 l 89 -221 l 57 -221 l 57 639 l 89 639 z "},"{":{"ha":375,"x_min":58,"x_max":317,"o":"m 161 72 q 182 -10 161 11 q 247 -32 203 -32 q 281 -32 257 -32 q 317 -32 304 -32 q 317 -38 317 -35 q 317 -45 317 -42 q 317 -53 317 -49 q 209 -49 247 -53 q 153 -28 171 -46 q 133 30 136 -11 q 129 144 129 71 q 122 265 129 228 q 98 313 114 303 q 58 322 82 322 q 58 328 58 325 q 58 335 58 332 q 58 342 58 339 q 98 353 82 342 q 122 406 114 365 q 129 528 129 446 q 133 642 129 601 q 155 701 138 683 q 210 722 172 718 q 317 725 249 725 q 317 719 317 722 q 317 712 317 715 q 317 704 317 708 l 250 704 q 184 685 207 704 q 161 600 161 667 l 161 501 q 150 398 161 433 q 124 349 139 363 q 96 333 108 336 q 124 319 108 331 q 150 276 139 307 q 161 185 161 246 l 161 72 z "},"}":{"ha":375,"x_min":58,"x_max":317,"o":"m 214 72 l 214 185 q 225 276 214 246 q 251 319 236 307 q 279 333 267 331 q 252 349 268 336 q 225 398 236 363 q 214 501 214 433 l 214 600 q 192 685 214 667 q 125 704 169 704 l 58 704 q 58 712 58 708 q 58 719 58 715 q 58 725 58 722 q 165 722 126 725 q 219 701 203 718 q 240 642 236 683 q 244 528 244 601 q 253 406 244 446 q 277 353 261 365 q 317 342 293 342 q 317 335 317 339 q 317 328 317 332 q 317 322 317 325 q 277 313 293 322 q 253 265 261 303 q 244 144 244 228 q 241 30 244 71 q 221 -28 238 -11 q 166 -49 204 -46 q 58 -53 128 -53 q 58 -45 58 -49 q 58 -38 58 -42 q 58 -32 58 -35 q 94 -32 71 -32 q 126 -32 117 -32 q 192 -10 171 -32 q 214 72 214 11 z "},"[":{"ha":332,"x_min":57,"x_max":206,"o":"m 90 -51 q 103 -100 90 -86 q 153 -114 115 -114 l 206 -114 l 206 -135 q 182 -135 194 -135 q 157 -135 169 -135 q 131 -135 144 -135 q 106 -136 118 -136 q 81 -136 93 -136 q 57 -136 68 -136 l 57 742 l 206 742 l 206 721 l 153 721 q 103 706 115 721 q 90 656 90 690 l 90 -51 z "},"]":{"ha":332,"x_min":57,"x_max":206,"o":"m 171 656 q 159 706 171 690 q 110 721 147 721 l 57 721 l 57 742 l 206 742 l 206 -136 l 57 -135 l 57 -114 l 110 -114 q 159 -100 147 -114 q 171 -51 171 -86 l 171 656 z "},"˘":{"ha":339,"x_min":3,"x_max":250,"o":"m 126 636 q 57 652 85 636 q 16 698 29 668 q 3 768 3 728 l 24 768 q 50 690 24 717 q 126 663 76 663 q 207 690 185 663 q 229 768 229 717 l 250 768 q 238 698 250 728 q 199 652 226 668 q 126 636 172 636 z "},"̮":{"ha":0,"x_min":3,"x_max":250,"o":"m 126 -167 q 57 -151 85 -167 q 16 -105 29 -135 q 3 -35 3 -75 l 24 -35 q 50 -113 24 -86 q 126 -140 76 -140 q 207 -113 185 -140 q 229 -35 229 -86 l 250 -35 q 238 -105 250 -75 q 199 -151 226 -135 q 126 -167 172 -167 z "},"̆":{"ha":0,"x_min":3,"x_max":250,"o":"m 126 636 q 57 652 85 636 q 16 698 29 668 q 3 768 3 728 l 24 768 q 50 690 24 717 q 126 663 76 663 q 207 690 185 663 q 229 768 229 717 l 250 768 q 238 698 250 728 q 199 652 226 668 q 126 636 172 636 z "},"̑":{"ha":0,"x_min":3,"x_max":250,"o":"m 126 768 q 199 752 172 768 q 238 707 226 736 q 250 636 250 678 l 229 636 q 207 715 229 688 q 126 742 185 742 q 50 715 76 742 q 24 636 24 688 l 3 636 q 16 707 3 678 q 57 752 29 736 q 126 768 85 768 z "},"¦":{"ha":208,"x_min":67,"x_max":99,"o":"m 99 122 l 99 -221 l 67 -221 l 67 122 l 99 122 m 99 639 l 99 289 l 67 289 l 67 639 l 99 639 z "},"•":{"ha":683,"x_min":156,"x_max":528,"o":"m 156 368 q 181 456 156 417 q 248 517 206 494 q 342 540 290 540 q 435 517 393 540 q 503 456 478 494 q 528 368 528 417 q 503 281 528 321 q 435 219 478 242 q 342 196 393 196 q 248 219 290 196 q 181 281 206 242 q 156 368 156 321 z "},"∙":{"ha":406,"x_min":110,"x_max":296,"o":"m 110 285 q 122 328 110 308 q 156 359 135 347 q 203 371 178 371 q 250 359 229 371 q 283 328 271 347 q 296 285 296 308 q 283 240 296 260 q 250 210 271 221 q 203 199 229 199 q 156 210 178 199 q 122 240 135 221 q 110 285 110 260 z "},"c":{"ha":572,"x_min":71,"x_max":528,"o":"m 346 -7 q 186 15 247 -7 q 98 99 125 38 q 71 278 71 160 q 98 456 71 394 q 186 540 125 517 q 346 563 247 563 q 412 560 382 563 q 476 550 442 557 q 508 542 497 547 q 524 528 519 536 q 528 507 528 521 q 478 522 511 515 q 410 533 446 529 q 344 536 374 536 q 201 512 254 536 q 126 431 149 488 q 104 278 104 375 q 126 124 104 181 q 199 43 147 67 q 344 19 251 19 q 422 24 388 19 q 484 35 457 28 q 528 50 511 42 l 528 35 q 506 14 528 24 q 443 -1 483 4 q 346 -7 403 -7 z "},"ć":{"ha":572,"x_min":71,"x_max":528,"o":"m 346 -7 q 186 15 247 -7 q 98 99 125 38 q 71 278 71 160 q 98 456 71 394 q 186 540 125 517 q 346 563 247 563 q 412 560 382 563 q 476 550 442 557 q 508 542 497 547 q 524 528 519 536 q 528 507 528 521 q 478 522 511 515 q 410 533 446 529 q 344 536 374 536 q 201 512 254 536 q 126 431 149 488 q 104 278 104 375 q 126 124 104 181 q 199 43 147 67 q 344 19 251 19 q 422 24 388 19 q 484 35 457 28 q 528 50 511 42 l 528 35 q 506 14 528 24 q 443 -1 483 4 q 346 -7 403 -7 m 319 639 l 454 782 l 479 756 l 340 639 l 319 639 z "},"ˇ":{"ha":372,"x_min":1,"x_max":242,"o":"m 1 782 l 25 782 l 121 665 l 218 782 l 242 782 l 133 639 l 110 639 l 1 782 z "},"̌":{"ha":0,"x_min":1,"x_max":242,"o":"m 1 782 l 25 782 l 121 665 l 218 782 l 242 782 l 133 639 l 110 639 l 1 782 z "},"č":{"ha":572,"x_min":71,"x_max":528,"o":"m 224 782 l 247 782 l 343 665 l 440 782 l 464 782 l 356 639 l 332 639 l 224 782 m 346 -7 q 186 15 247 -7 q 98 99 125 38 q 71 278 71 160 q 98 456 71 394 q 186 540 125 517 q 346 563 247 563 q 412 560 382 563 q 476 550 442 557 q 508 542 497 547 q 524 528 519 536 q 528 507 528 521 q 478 522 511 515 q 410 533 446 529 q 344 536 374 536 q 201 512 254 536 q 126 431 149 488 q 104 278 104 375 q 126 124 104 181 q 199 43 147 67 q 344 19 251 19 q 422 24 388 19 q 484 35 457 28 q 528 50 511 42 l 528 35 q 506 14 528 24 q 443 -1 483 4 q 346 -7 403 -7 z "},"ç":{"ha":572,"x_min":71,"x_max":528,"o":"m 346 -7 q 186 15 247 -7 q 98 99 125 38 q 71 278 71 160 q 98 456 71 394 q 186 540 125 517 q 346 563 247 563 q 412 560 382 563 q 476 550 442 557 q 508 542 497 547 q 524 528 519 536 q 528 507 528 521 q 478 522 511 515 q 410 533 446 529 q 344 536 374 536 q 201 512 254 536 q 126 431 149 488 q 104 278 104 375 q 126 124 104 181 q 199 43 147 67 q 344 19 251 19 q 422 24 388 19 q 484 35 457 28 q 528 50 511 42 l 528 35 q 506 14 528 24 q 443 -1 483 4 q 346 -7 403 -7 m 306 -257 q 259 -253 274 -257 q 244 -236 244 -249 q 278 -236 251 -236 q 340 -236 304 -236 q 396 -223 382 -236 q 410 -183 410 -210 q 398 -135 410 -146 q 335 -124 386 -124 l 293 -124 q 274 -124 285 -124 q 255 -124 264 -124 q 239 -125 246 -125 q 255 -104 242 -121 q 285 -66 268 -87 q 318 -25 303 -44 q 339 3 333 -6 l 356 3 l 279 -107 q 378 -106 344 -103 q 424 -127 413 -110 q 436 -183 436 -144 q 417 -237 436 -222 q 369 -255 399 -253 q 306 -257 339 -257 z "},"ĉ":{"ha":572,"x_min":71,"x_max":528,"o":"m 346 -7 q 186 15 247 -7 q 98 99 125 38 q 71 278 71 160 q 98 456 71 394 q 186 540 125 517 q 346 563 247 563 q 412 560 382 563 q 476 550 442 557 q 508 542 497 547 q 524 528 519 536 q 528 507 528 521 q 478 522 511 515 q 410 533 446 529 q 344 536 374 536 q 201 512 254 536 q 126 431 149 488 q 104 278 104 375 q 126 124 104 181 q 199 43 147 67 q 344 19 251 19 q 422 24 388 19 q 484 35 457 28 q 528 50 511 42 l 528 35 q 506 14 528 24 q 443 -1 483 4 q 346 -7 403 -7 m 222 639 l 331 782 l 354 782 l 463 639 l 439 639 l 342 756 l 246 639 l 222 639 z "},"ċ":{"ha":572,"x_min":71,"x_max":528,"o":"m 346 -7 q 186 15 247 -7 q 98 99 125 38 q 71 278 71 160 q 98 456 71 394 q 186 540 125 517 q 346 563 247 563 q 412 560 382 563 q 476 550 442 557 q 508 542 497 547 q 524 528 519 536 q 528 507 528 521 q 478 522 511 515 q 410 533 446 529 q 344 536 374 536 q 201 512 254 536 q 126 431 149 488 q 104 278 104 375 q 126 124 104 181 q 199 43 147 67 q 344 19 251 19 q 422 24 388 19 q 484 35 457 28 q 528 50 511 42 l 528 35 q 506 14 528 24 q 443 -1 483 4 q 346 -7 403 -7 m 344 639 q 319 644 329 639 q 310 668 310 649 q 319 695 310 690 q 344 700 329 700 q 368 694 360 700 q 376 668 376 689 q 368 644 376 649 q 344 639 360 639 z "},"₵":{"ha":674,"x_min":75,"x_max":631,"o":"m 285 -106 l 457 754 l 488 754 l 315 -106 l 285 -106 m 75 319 q 94 483 75 419 q 151 583 113 547 q 250 633 190 619 q 392 647 310 647 q 487 644 440 647 q 581 631 533 640 q 622 618 613 625 q 631 600 631 611 l 631 586 q 568 606 611 597 q 476 618 525 614 q 390 622 428 622 q 223 594 285 622 q 135 499 161 565 q 110 319 110 433 q 133 138 110 204 q 218 42 157 71 q 390 14 279 14 q 476 18 428 14 q 567 31 525 22 q 631 49 610 39 l 631 36 q 622 19 631 26 q 581 6 613 11 q 487 -8 533 -4 q 392 -11 440 -11 q 245 3 306 -11 q 147 52 185 17 q 92 152 110 88 q 75 319 75 217 z "},"¸":{"ha":361,"x_min":13,"x_max":210,"o":"m 79 -257 q 33 -253 47 -257 q 18 -236 18 -249 q 51 -236 25 -236 q 114 -236 78 -236 q 169 -223 156 -236 q 183 -183 183 -210 q 172 -135 183 -146 q 108 -124 160 -124 l 67 -124 q 48 -124 58 -124 q 28 -124 38 -124 q 13 -125 19 -125 q 28 -104 15 -121 q 59 -66 42 -87 q 92 -25 76 -44 q 113 3 107 -6 l 129 3 l 53 -107 q 152 -106 118 -103 q 198 -127 186 -110 q 210 -183 210 -144 q 191 -237 210 -222 q 142 -255 172 -253 q 79 -257 113 -257 z "},"̧":{"ha":0,"x_min":13,"x_max":210,"o":"m 79 -257 q 33 -253 47 -257 q 18 -236 18 -249 q 51 -236 25 -236 q 114 -236 78 -236 q 169 -223 156 -236 q 183 -183 183 -210 q 172 -135 183 -146 q 108 -124 160 -124 l 67 -124 q 48 -124 58 -124 q 28 -124 38 -124 q 13 -125 19 -125 q 28 -104 15 -121 q 59 -66 42 -87 q 92 -25 76 -44 q 113 3 107 -6 l 129 3 l 53 -107 q 152 -106 118 -103 q 198 -127 186 -110 q 210 -183 210 -144 q 191 -237 210 -222 q 142 -255 172 -253 q 79 -257 113 -257 z "},"¢":{"ha":613,"x_min":71,"x_max":568,"o":"m 329 72 q 221 86 269 72 q 139 131 172 100 q 88 217 106 163 q 71 353 71 272 q 92 503 71 438 q 168 608 113 569 q 329 646 224 646 q 440 635 394 646 q 515 600 486 624 q 556 539 543 576 q 568 449 568 501 l 539 449 q 490 585 540 549 q 331 622 439 622 q 192 590 242 622 q 122 497 142 557 q 101 354 101 436 q 131 193 103 249 q 210 117 158 138 q 329 97 261 97 q 442 109 396 97 q 514 158 489 121 q 539 267 539 194 l 568 267 q 551 166 568 204 q 501 107 533 128 q 426 79 469 86 q 329 72 382 72 m 150 0 l 460 726 l 483 726 l 176 0 l 150 0 z "},"":{"ha":604,"x_min":71,"x_max":568,"o":"m 329 -11 q 221 3 269 -11 q 139 48 172 17 q 88 134 106 79 q 71 269 71 189 q 92 420 71 354 q 168 524 113 486 q 329 563 224 563 q 440 551 394 563 q 515 517 486 540 q 556 456 543 493 q 568 365 568 418 l 539 365 q 490 502 540 465 q 331 539 439 539 q 192 506 242 539 q 122 413 142 474 q 101 271 101 353 q 131 110 103 165 q 210 34 158 54 q 329 14 261 14 q 442 26 396 14 q 514 74 489 38 q 539 183 539 111 l 568 183 q 551 83 568 121 q 501 24 533 44 q 426 -4 469 3 q 329 -11 382 -11 m 150 -83 l 460 643 l 483 643 l 176 -83 l 150 -83 z "},"":{"ha":511,"x_min":76,"x_max":449,"o":"m 269 54 q 189 65 225 54 q 128 99 153 75 q 90 163 103 122 q 76 264 76 203 q 92 376 76 326 q 149 455 107 426 q 269 483 190 483 q 353 475 319 483 q 408 449 388 467 q 439 403 429 432 q 449 336 449 375 l 426 336 q 390 438 428 411 q 271 465 353 465 q 167 441 204 465 q 115 372 129 417 q 100 265 100 326 q 121 144 100 186 q 180 88 142 103 q 269 72 218 72 q 355 81 319 72 q 408 117 390 90 q 426 200 426 144 l 449 200 q 435 124 449 153 q 399 81 422 96 q 342 60 375 65 q 269 54 310 54 m 136 0 l 368 543 l 385 543 l 156 0 l 136 0 z "},"":{"ha":496,"x_min":76,"x_max":433,"o":"m 261 403 q 184 413 218 403 q 126 445 150 422 q 89 507 101 468 q 76 604 76 546 q 92 711 76 664 q 147 786 107 758 q 261 814 186 814 q 341 806 308 814 q 394 781 374 797 q 424 737 414 764 q 433 672 433 710 l 411 672 q 376 769 413 743 q 263 796 340 796 q 163 773 199 796 q 113 707 128 750 q 99 604 99 664 q 120 490 100 529 q 176 435 140 450 q 261 421 213 421 q 342 429 308 421 q 394 464 376 438 q 411 542 411 490 l 433 542 q 421 469 433 497 q 385 428 408 442 q 331 408 363 414 q 261 403 300 403 m 133 351 l 356 871 l 372 871 l 153 351 l 133 351 z "},"ˆ":{"ha":375,"x_min":1,"x_max":242,"o":"m 1 639 l 110 782 l 133 782 l 242 639 l 218 639 l 121 756 l 25 639 l 1 639 z "},"̂":{"ha":0,"x_min":1,"x_max":242,"o":"m 1 639 l 110 782 l 133 782 l 242 639 l 218 639 l 121 756 l 25 639 l 1 639 z "},":":{"ha":238,"x_min":89,"x_max":144,"o":"m 90 22 q 99 42 90 38 q 117 46 107 46 q 136 42 128 46 q 144 22 144 39 q 140 8 144 13 q 130 1 136 3 q 118 0 124 0 q 106 1 113 0 q 95 8 100 3 q 90 22 90 13 m 89 436 q 92 452 89 447 q 102 458 96 457 q 115 460 108 460 q 135 456 126 460 q 143 436 143 453 q 139 422 143 426 q 128 415 135 417 q 117 414 122 414 q 105 415 111 414 q 94 422 99 417 q 89 436 89 426 z "},"₡":{"ha":674,"x_min":75,"x_max":631,"o":"m 75 319 q 94 483 75 419 q 151 583 113 547 q 250 633 190 619 q 392 647 310 647 q 487 644 440 647 q 581 631 533 640 q 622 618 613 625 q 631 600 631 611 l 631 586 q 568 606 611 597 q 476 618 525 614 q 390 622 428 622 q 223 594 285 622 q 135 499 161 565 q 110 319 110 433 q 133 138 110 204 q 218 42 157 71 q 390 14 279 14 q 476 18 428 14 q 567 31 525 22 q 631 49 610 39 l 631 36 q 622 19 631 26 q 581 6 613 11 q 487 -8 533 -4 q 392 -11 440 -11 q 245 3 306 -11 q 147 52 185 17 q 92 152 110 88 q 75 319 75 217 m 215 -106 l 389 754 l 418 754 l 244 -106 l 215 -106 m 331 -106 l 504 754 l 533 754 l 360 -106 l 331 -106 z "},",":{"ha":226,"x_min":83,"x_max":143,"o":"m 89 -96 q 106 -40 100 -69 q 114 0 113 -11 q 112 0 113 0 q 108 0 111 0 q 92 3 101 0 q 83 22 83 7 q 88 38 83 33 q 99 44 92 43 q 115 46 106 46 q 137 40 131 46 q 143 19 143 35 q 135 -24 143 1 q 119 -69 128 -49 q 108 -96 111 -90 l 89 -96 z "},"̦":{"ha":0,"x_min":0,"x_max":60,"o":"m 7 -233 q 19 -197 14 -215 q 27 -162 24 -178 q 31 -139 31 -146 q 28 -139 29 -139 q 26 -139 28 -139 q 9 -135 18 -139 q 0 -117 0 -131 q 9 -97 0 -101 q 33 -93 18 -93 q 49 -95 43 -93 q 57 -103 54 -97 q 60 -119 60 -108 q 52 -161 60 -136 q 35 -207 44 -186 q 24 -233 26 -228 l 7 -233 z "},"":{"ha":218,"x_min":83,"x_max":135,"o":"m 88 -110 q 103 -62 97 -87 q 110 -28 108 -37 q 108 -28 108 -28 q 104 -28 107 -28 q 91 -25 99 -28 q 83 -8 83 -22 q 87 4 83 0 q 97 10 90 8 q 111 11 103 11 q 129 6 124 11 q 135 -11 135 1 q 128 -48 135 -26 q 114 -87 121 -69 q 104 -110 107 -106 l 88 -110 z "},"":{"ha":226,"x_min":83,"x_max":143,"o":"m 89 269 q 106 325 100 296 q 114 365 113 354 q 112 365 113 365 q 108 365 111 365 q 92 369 101 365 q 83 388 83 372 q 88 403 83 399 q 99 410 92 408 q 115 411 106 411 q 137 406 131 411 q 143 385 143 400 q 135 342 143 367 q 119 296 128 317 q 108 269 111 275 l 89 269 z "},"̒":{"ha":0,"x_min":0,"x_max":60,"o":"m 26 640 q 12 642 18 640 q 3 651 6 644 q 0 667 0 657 q 8 710 0 685 q 24 756 15 735 q 35 781 32 776 l 53 781 q 40 744 46 764 q 32 710 35 725 q 29 686 29 694 q 31 686 31 686 q 33 686 32 686 q 50 683 40 686 q 60 664 60 679 q 51 644 60 649 q 26 640 42 640 z "},"⁒":{"ha":725,"x_min":110,"x_max":657,"o":"m 471 190 q 483 233 471 214 q 517 265 496 253 q 564 276 539 276 q 611 265 590 276 q 644 233 632 253 q 657 190 657 214 q 644 146 657 165 q 611 115 632 126 q 564 104 590 104 q 517 115 539 104 q 483 146 496 126 q 471 190 471 165 m 110 503 q 122 546 110 526 q 156 577 135 565 q 203 589 178 589 q 250 577 229 589 q 283 546 271 565 q 296 503 296 526 q 283 458 296 478 q 250 428 271 439 q 203 417 229 417 q 156 428 178 417 q 122 458 135 439 q 110 503 110 478 m 194 -53 l 517 807 l 547 807 l 225 -53 l 194 -53 z "},"©":{"ha":799,"x_min":38,"x_max":757,"o":"m 38 338 q 86 512 38 438 q 217 627 135 586 q 397 668 299 668 q 578 627 497 668 q 708 512 660 586 q 757 338 757 438 q 708 160 757 239 q 578 37 660 82 q 397 -8 497 -8 q 217 37 299 -8 q 86 160 135 82 q 38 338 38 239 m 60 338 q 106 169 60 243 q 228 52 151 94 q 397 10 304 10 q 567 52 490 10 q 688 169 643 94 q 733 338 733 243 q 688 503 733 433 q 567 610 643 572 q 397 649 490 649 q 228 610 304 649 q 106 503 151 572 q 60 338 60 433 m 393 529 q 473 522 438 529 q 530 490 508 514 q 551 413 551 465 q 551 406 551 410 q 551 399 551 401 l 533 399 q 524 463 533 439 q 494 497 514 486 q 451 513 476 510 q 392 517 425 517 q 318 504 349 517 q 271 468 288 492 q 245 411 253 446 q 238 336 238 376 q 248 258 238 293 q 282 200 258 224 q 392 163 317 163 q 453 167 426 163 q 497 183 479 171 q 524 213 514 194 q 533 263 533 232 q 533 270 533 267 q 533 278 533 274 l 551 278 q 551 273 551 275 q 551 268 551 271 q 531 191 551 217 q 474 158 510 165 q 392 150 438 150 q 290 170 328 150 q 234 231 251 190 q 217 335 217 272 q 231 435 217 392 q 284 504 246 479 q 393 529 322 529 z "},"¤":{"ha":675,"x_min":72,"x_max":603,"o":"m 504 651 q 544 566 535 619 q 546 458 554 513 q 513 368 538 404 l 603 260 l 576 260 l 465 332 q 387 315 433 319 q 294 316 340 311 q 211 333 247 321 l 99 260 l 72 260 l 164 372 q 134 458 142 407 q 136 560 126 508 q 172 646 146 611 l 72 771 l 99 771 l 225 682 q 333 699 275 700 q 451 685 392 699 l 576 771 l 603 771 l 504 651 m 163 506 q 186 394 163 431 q 251 347 210 358 q 343 336 292 336 q 433 347 394 336 q 493 395 471 358 q 515 506 515 432 q 493 617 515 581 q 433 664 471 653 q 343 675 394 675 q 251 664 292 675 q 186 617 210 653 q 163 506 163 581 z "},"d":{"ha":631,"x_min":71,"x_max":549,"o":"m 71 282 q 99 453 71 394 q 181 534 126 513 q 315 556 236 556 q 370 554 336 556 q 440 551 404 553 q 501 547 475 549 q 535 543 528 544 l 519 533 l 519 701 l 549 701 l 547 279 q 538 130 547 186 q 503 45 528 74 q 431 7 478 17 q 311 -3 385 -3 q 197 6 243 -3 q 122 43 150 15 q 83 128 94 71 q 71 282 71 185 m 293 22 q 415 31 369 22 q 483 65 460 39 q 513 140 506 90 q 519 272 519 189 l 519 521 q 463 524 500 522 q 387 528 426 526 q 318 531 347 531 q 195 510 243 531 q 124 434 147 489 q 101 276 101 379 q 118 113 101 167 q 177 40 135 58 q 293 22 219 22 z "},"†":{"ha":393,"x_min":58,"x_max":269,"o":"m 58 614 l 147 614 l 147 832 l 179 832 l 179 614 l 269 614 l 269 593 l 179 593 l 179 -26 l 147 -26 l 147 593 l 58 593 l 58 614 z "},"‡":{"ha":394,"x_min":72,"x_max":285,"o":"m 72 615 l 161 615 l 161 833 l 194 833 l 194 615 l 285 615 l 285 594 l 194 594 l 194 431 l 285 431 l 285 410 l 194 410 l 194 -26 l 161 -26 l 161 410 l 72 410 l 72 431 l 161 431 l 161 594 l 72 594 l 72 615 z "},"̏":{"ha":0,"x_min":0,"x_max":246,"o":"m 122 639 l 0 758 l 31 782 l 143 639 l 122 639 m 225 639 l 119 771 l 149 792 l 246 639 l 225 639 z "},"ď":{"ha":631,"x_min":71,"x_max":672,"o":"m 71 282 q 99 453 71 394 q 181 534 126 513 q 315 556 236 556 q 370 554 336 556 q 440 551 404 553 q 501 547 475 549 q 535 543 528 544 l 519 533 l 519 701 l 549 701 l 547 279 q 538 130 547 186 q 503 45 528 74 q 431 7 478 17 q 311 -3 385 -3 q 197 6 243 -3 q 122 43 150 15 q 83 128 94 71 q 71 282 71 185 m 293 22 q 415 31 369 22 q 483 65 460 39 q 513 140 506 90 q 519 272 519 189 l 519 521 q 463 524 500 522 q 387 528 426 526 q 318 531 347 531 q 195 510 243 531 q 124 434 147 489 q 101 276 101 379 q 118 113 101 167 q 177 40 135 58 q 293 22 219 22 m 636 524 l 644 701 l 672 701 l 656 524 l 636 524 z "},"đ":{"ha":644,"x_min":71,"x_max":672,"o":"m 396 721 l 518 721 l 518 821 l 547 821 l 547 721 l 672 721 l 672 700 l 547 700 l 546 279 q 537 128 546 185 q 504 44 528 72 q 435 6 481 15 q 318 -3 390 -3 q 198 6 246 -3 q 122 44 150 15 q 83 129 94 72 q 71 282 71 186 q 99 453 71 394 q 181 534 126 513 q 315 556 235 556 q 364 554 332 556 q 431 551 396 553 q 490 549 465 550 q 518 547 515 547 l 518 700 l 396 700 l 396 721 m 293 19 q 408 25 364 19 q 476 54 453 31 q 509 129 500 78 q 518 272 518 181 l 518 522 q 491 524 514 522 q 435 528 468 526 q 371 531 403 529 q 317 532 339 532 q 181 505 228 532 q 118 421 135 478 q 101 276 101 364 q 120 108 101 163 q 181 36 139 53 q 293 19 224 19 z "},"°":{"ha":394,"x_min":63,"x_max":338,"o":"m 63 697 q 81 781 63 746 q 131 836 100 817 q 200 856 163 856 q 269 836 238 856 q 319 781 300 817 q 338 697 338 746 q 319 613 338 650 q 269 553 300 575 q 200 532 238 532 q 131 553 163 532 q 81 613 100 575 q 63 697 63 650 m 113 697 q 138 619 113 649 q 200 589 164 589 q 261 619 236 589 q 286 697 286 649 q 261 771 286 743 q 200 799 236 799 q 138 772 164 799 q 113 697 113 744 z "},"¨":{"ha":557,"x_min":0,"x_max":218,"o":"m 189 639 q 169 643 179 639 q 158 665 158 647 q 169 687 158 683 q 188 690 179 690 q 208 687 197 690 q 218 665 218 683 q 210 643 218 647 q 189 639 201 639 m 31 639 q 9 643 18 639 q 0 667 0 647 q 10 687 0 683 q 29 690 19 690 q 49 687 39 690 q 60 667 60 683 q 51 644 60 649 q 31 639 42 639 z "},"̤":{"ha":0,"x_min":0,"x_max":218,"o":"m 189 -140 q 169 -136 179 -140 q 158 -114 158 -132 q 169 -92 158 -96 q 188 -89 179 -89 q 208 -92 197 -89 q 218 -114 218 -96 q 210 -136 218 -132 q 189 -140 201 -140 m 31 -140 q 9 -136 18 -140 q 0 -112 0 -132 q 10 -92 0 -96 q 29 -89 19 -89 q 49 -92 39 -89 q 60 -112 60 -96 q 51 -135 60 -131 q 31 -140 42 -140 z "},"̈":{"ha":0,"x_min":0,"x_max":218,"o":"m 189 639 q 169 643 179 639 q 158 665 158 647 q 169 687 158 683 q 188 690 179 690 q 208 687 197 690 q 218 665 218 683 q 210 643 218 647 q 189 639 201 639 m 31 639 q 9 643 18 639 q 0 667 0 647 q 10 687 0 683 q 29 690 19 690 q 49 687 39 690 q 60 667 60 683 q 51 644 60 649 q 31 639 42 639 z "},"÷":{"ha":567,"x_min":72,"x_max":485,"o":"m 72 279 l 485 279 l 485 250 l 72 250 l 72 279 m 254 46 q 263 65 254 61 q 281 69 271 69 q 299 65 290 69 q 307 46 307 61 q 303 31 307 36 q 293 25 299 26 q 282 24 288 24 q 270 25 276 24 q 259 31 264 26 q 254 46 254 36 m 253 460 q 261 479 253 475 q 279 483 269 483 q 297 480 289 483 q 306 460 306 476 q 301 445 306 450 q 292 439 297 440 q 281 438 286 438 q 269 439 275 438 q 258 445 263 440 q 253 460 253 450 z "},"∕":{"ha":483,"x_min":65,"x_max":418,"o":"m 65 -53 l 388 807 l 418 807 l 96 -53 l 65 -53 z "},"$":{"ha":600,"x_min":67,"x_max":547,"o":"m 75 -115 q 107 -51 88 -90 q 145 26 126 -12 q 176 89 164 65 q 112 119 136 100 q 77 169 88 138 q 67 246 67 200 q 81 246 74 246 q 94 246 88 246 q 116 153 94 185 q 182 112 138 122 q 294 101 226 101 q 376 104 336 101 q 447 120 415 107 q 498 163 479 133 q 517 247 517 193 q 487 337 517 315 q 388 358 457 358 q 302 358 344 358 q 217 358 260 358 q 170 360 196 358 q 121 374 144 363 q 83 413 97 386 q 68 486 68 439 q 101 594 68 561 q 190 637 135 628 q 310 646 244 646 q 356 644 333 646 q 399 640 378 643 q 439 719 418 679 q 478 799 460 760 l 504 799 q 464 719 485 760 q 424 638 443 678 q 490 612 465 632 q 524 559 514 592 q 535 479 535 526 q 521 479 528 479 q 507 479 514 479 q 490 565 507 535 q 429 609 472 596 q 310 622 386 622 q 201 614 249 622 q 126 577 153 606 q 99 488 99 549 q 130 406 99 426 q 217 386 161 386 q 302 386 260 386 q 388 386 344 386 q 463 381 426 386 q 524 346 500 375 q 547 246 547 317 q 513 131 547 165 q 423 87 479 96 q 297 78 367 78 q 241 80 267 78 q 201 83 215 82 l 103 -115 l 75 -115 z "},"":{"ha":576,"x_min":57,"x_max":538,"o":"m 65 -194 q 97 -131 78 -169 q 135 -53 117 -92 q 167 10 154 -14 q 102 40 126 21 q 67 90 78 58 q 57 167 57 121 q 71 167 64 167 q 85 167 78 167 q 106 74 85 106 q 172 33 128 43 q 285 22 217 22 q 366 25 326 22 q 438 41 406 28 q 488 84 469 54 q 507 168 507 114 q 477 258 507 236 q 378 279 447 279 q 292 279 335 279 q 207 279 250 279 q 160 281 186 279 q 111 295 135 283 q 73 333 88 307 q 58 407 58 360 q 92 515 58 482 q 180 558 125 549 q 300 567 235 567 q 346 565 324 567 q 389 561 368 564 q 429 640 408 600 q 468 719 450 681 l 494 719 q 454 640 475 681 q 414 558 433 599 q 480 533 456 553 q 515 480 504 513 q 525 400 525 447 q 511 400 518 400 q 497 400 504 400 q 480 486 497 456 q 419 530 463 517 q 300 543 376 543 q 191 535 239 543 q 116 498 143 526 q 89 408 89 469 q 120 327 89 347 q 207 307 151 307 q 292 307 250 307 q 378 307 335 307 q 453 301 417 307 q 514 267 490 296 q 538 167 538 238 q 503 51 538 86 q 413 8 469 17 q 288 -1 357 -1 q 231 1 257 -1 q 192 4 206 3 l 93 -194 l 65 -194 z "},"":{"ha":497,"x_min":69,"x_max":429,"o":"m 75 -86 q 99 -39 85 -68 q 128 19 114 -10 q 151 67 142 49 q 103 88 121 74 q 77 126 85 103 q 69 183 69 150 q 80 183 75 183 q 90 183 85 183 q 106 115 90 138 q 156 84 122 92 q 240 76 189 76 q 300 78 271 76 q 353 90 329 81 q 392 122 378 100 q 406 185 406 144 q 383 252 406 236 q 310 268 361 268 q 246 268 278 268 q 182 268 214 268 q 147 269 165 268 q 110 280 128 271 q 82 308 93 289 q 71 364 71 328 q 95 444 71 419 q 161 476 119 469 q 251 483 203 483 q 285 482 269 483 q 318 479 301 481 q 347 538 332 507 q 376 597 363 568 l 396 597 q 367 537 382 568 q 336 476 351 506 q 385 458 367 472 q 411 418 403 443 q 419 358 419 393 q 409 358 414 358 q 399 358 404 358 q 385 422 399 399 q 340 456 372 446 q 251 465 308 465 q 169 459 204 465 q 113 431 133 453 q 93 364 93 410 q 117 303 93 318 q 182 289 140 289 q 246 289 214 289 q 310 289 278 289 q 366 285 339 289 q 411 258 393 281 q 429 183 429 236 q 403 97 429 124 q 335 65 378 71 q 242 58 293 58 q 200 60 219 58 q 169 63 181 61 l 96 -86 l 75 -86 z "},"":{"ha":528,"x_min":83,"x_max":444,"o":"m 90 263 q 113 310 99 281 q 142 368 128 339 q 165 415 157 397 q 118 438 136 424 q 92 475 100 451 q 83 533 83 499 q 94 533 89 533 q 104 533 99 533 q 120 464 104 488 q 169 433 136 440 q 254 425 203 425 q 315 427 285 425 q 369 439 344 429 q 407 472 393 449 q 421 535 421 494 q 398 601 421 585 q 324 618 375 618 q 260 618 292 618 q 196 618 228 618 q 160 619 179 618 q 124 629 142 621 q 96 658 107 638 q 85 714 85 678 q 110 794 85 769 q 176 826 135 819 q 265 833 217 833 q 300 833 283 833 q 332 829 317 832 q 362 889 346 858 q 392 947 378 919 l 411 947 q 381 888 397 918 q 351 826 365 857 q 400 808 382 822 q 426 768 418 793 q 435 708 435 743 q 424 708 429 708 q 414 708 419 708 q 401 772 414 749 q 356 806 388 796 q 265 815 324 815 q 183 809 219 815 q 127 781 147 803 q 107 714 107 760 q 131 653 107 668 q 196 639 154 639 q 260 639 228 639 q 324 639 292 639 q 381 634 353 639 q 426 608 408 629 q 444 533 444 586 q 419 447 444 474 q 351 413 393 419 q 257 407 308 407 q 214 408 233 407 q 185 411 194 410 l 111 263 l 90 263 z "},"₫":{"ha":644,"x_min":71,"x_max":672,"o":"m 396 721 l 518 721 l 518 821 l 547 821 l 547 721 l 672 721 l 672 700 l 547 700 l 546 279 q 537 128 546 185 q 504 44 528 72 q 435 6 481 15 q 318 -3 390 -3 q 198 6 246 -3 q 122 44 150 15 q 83 129 94 72 q 71 282 71 186 q 99 453 71 394 q 181 534 126 513 q 315 556 235 556 q 364 554 332 556 q 431 551 396 553 q 490 549 465 550 q 518 547 515 547 l 518 700 l 396 700 l 396 721 m 293 19 q 408 25 364 19 q 476 54 453 31 q 509 129 500 78 q 518 272 518 181 l 518 522 q 491 524 514 522 q 435 528 468 526 q 371 531 403 529 q 317 532 339 532 q 181 505 228 532 q 118 421 135 478 q 101 276 101 364 q 120 108 101 163 q 181 36 139 53 q 293 19 224 19 m 179 -103 l 454 -103 l 454 -124 l 179 -124 l 179 -103 z "},"˙":{"ha":224,"x_min":0,"x_max":67,"o":"m 35 639 q 10 644 19 639 q 0 668 0 649 q 10 695 0 690 q 35 700 19 700 q 58 694 50 700 q 67 668 67 689 q 58 644 67 649 q 35 639 50 639 z "},"̇":{"ha":0,"x_min":0,"x_max":67,"o":"m 35 639 q 10 644 19 639 q 0 668 0 649 q 10 695 0 690 q 35 700 19 700 q 58 694 50 700 q 67 668 67 689 q 58 644 67 649 q 35 639 50 639 z "},"̣":{"ha":0,"x_min":0,"x_max":53,"o":"m 28 -151 q 16 -150 22 -151 q 5 -144 10 -149 q 0 -129 0 -139 q 8 -110 0 -114 q 26 -106 17 -106 q 45 -109 38 -106 q 53 -129 53 -112 q 49 -144 53 -139 q 39 -150 44 -149 q 28 -151 33 -151 z "},"ʺ":{"ha":825,"x_min":-4,"x_max":286,"o":"m 56 740 l 86 740 l 18 554 l -4 554 l 56 740 m 256 740 l 286 740 l 218 554 l 196 554 l 256 740 z "},"ǆ":{"ha":1129,"x_min":71,"x_max":1113,"o":"m 760 782 l 783 782 l 879 665 l 976 782 l 1000 782 l 892 639 l 868 639 l 760 782 m 71 282 q 99 453 71 394 q 181 534 126 513 q 315 556 236 556 q 370 554 336 556 q 440 551 404 553 q 501 547 475 549 q 535 543 528 544 l 519 533 l 519 701 l 549 701 l 547 279 q 538 130 547 186 q 503 45 528 74 q 431 7 478 17 q 311 -3 385 -3 q 197 6 243 -3 q 122 43 150 15 q 83 128 94 71 q 71 282 71 185 m 293 22 q 415 31 369 22 q 483 65 460 39 q 513 140 506 90 q 519 272 519 189 l 519 521 q 463 524 500 522 q 387 528 426 526 q 318 531 347 531 q 195 510 243 531 q 124 434 147 489 q 101 276 101 379 q 118 113 101 167 q 177 40 135 58 q 293 22 219 22 m 685 25 l 1100 25 l 1106 18 q 1106 6 1113 11 q 1086 0 1099 0 l 651 0 l 651 28 l 1064 529 l 674 529 l 674 533 q 678 549 674 544 q 694 554 682 554 l 1101 554 q 1099 536 1101 544 q 1089 518 1096 528 q 1068 492 1082 508 l 685 25 z "},"e":{"ha":606,"x_min":71,"x_max":551,"o":"m 332 -10 q 211 2 261 -10 q 130 45 161 14 q 85 133 99 76 q 71 278 71 189 q 92 437 71 374 q 171 531 114 500 q 331 563 228 563 q 458 539 410 563 q 529 465 507 515 q 551 335 551 414 l 551 272 l 156 272 q 161 289 156 282 q 181 296 167 296 l 522 296 l 521 342 q 475 490 518 444 q 331 536 432 536 q 194 510 244 536 q 124 427 144 483 q 103 278 103 371 q 125 115 103 171 q 197 38 147 58 q 332 17 247 17 q 390 19 360 17 q 450 25 421 21 q 503 35 479 29 q 540 47 528 40 l 540 36 q 533 19 540 26 q 497 6 525 13 q 419 -6 463 -1 q 332 -10 376 -10 z "},"é":{"ha":606,"x_min":71,"x_max":551,"o":"m 332 -10 q 211 2 261 -10 q 130 45 161 14 q 85 133 99 76 q 71 278 71 189 q 92 437 71 374 q 171 531 114 500 q 331 563 228 563 q 458 539 410 563 q 529 465 507 515 q 551 335 551 414 l 551 272 l 156 272 q 161 289 156 282 q 181 296 167 296 l 522 296 l 521 342 q 475 490 518 444 q 331 536 432 536 q 194 510 244 536 q 124 427 144 483 q 103 278 103 371 q 125 115 103 171 q 197 38 147 58 q 332 17 247 17 q 390 19 360 17 q 450 25 421 21 q 503 35 479 29 q 540 47 528 40 l 540 36 q 533 19 540 26 q 497 6 525 13 q 419 -6 463 -1 q 332 -10 376 -10 m 290 639 l 425 782 l 450 756 l 311 639 l 290 639 z "},"ĕ":{"ha":606,"x_min":71,"x_max":551,"o":"m 332 -10 q 211 2 261 -10 q 130 45 161 14 q 85 133 99 76 q 71 278 71 189 q 92 437 71 374 q 171 531 114 500 q 331 563 228 563 q 458 539 410 563 q 529 465 507 515 q 551 335 551 414 l 551 272 l 156 272 q 161 289 156 282 q 181 296 167 296 l 522 296 l 521 342 q 475 490 518 444 q 331 536 432 536 q 194 510 244 536 q 124 427 144 483 q 103 278 103 371 q 125 115 103 171 q 197 38 147 58 q 332 17 247 17 q 390 19 360 17 q 450 25 421 21 q 503 35 479 29 q 540 47 528 40 l 540 36 q 533 19 540 26 q 497 6 525 13 q 419 -6 463 -1 q 332 -10 376 -10 m 314 636 q 244 652 272 636 q 203 698 217 668 q 190 768 190 728 l 211 768 q 238 690 211 717 q 314 663 264 663 q 394 690 372 663 q 417 768 417 717 l 438 768 q 426 698 438 728 q 387 652 414 668 q 314 636 360 636 z "},"ě":{"ha":606,"x_min":71,"x_max":551,"o":"m 194 782 l 218 782 l 314 665 l 411 782 l 435 782 l 326 639 l 303 639 l 194 782 m 332 -10 q 211 2 261 -10 q 130 45 161 14 q 85 133 99 76 q 71 278 71 189 q 92 437 71 374 q 171 531 114 500 q 331 563 228 563 q 458 539 410 563 q 529 465 507 515 q 551 335 551 414 l 551 272 l 156 272 q 161 289 156 282 q 181 296 167 296 l 522 296 l 521 342 q 475 490 518 444 q 331 536 432 536 q 194 510 244 536 q 124 427 144 483 q 103 278 103 371 q 125 115 103 171 q 197 38 147 58 q 332 17 247 17 q 390 19 360 17 q 450 25 421 21 q 503 35 479 29 q 540 47 528 40 l 540 36 q 533 19 540 26 q 497 6 525 13 q 419 -6 463 -1 q 332 -10 376 -10 z "},"ê":{"ha":606,"x_min":71,"x_max":551,"o":"m 332 -10 q 211 2 261 -10 q 130 45 161 14 q 85 133 99 76 q 71 278 71 189 q 92 437 71 374 q 171 531 114 500 q 331 563 228 563 q 458 539 410 563 q 529 465 507 515 q 551 335 551 414 l 551 272 l 156 272 q 161 289 156 282 q 181 296 167 296 l 522 296 l 521 342 q 475 490 518 444 q 331 536 432 536 q 194 510 244 536 q 124 427 144 483 q 103 278 103 371 q 125 115 103 171 q 197 38 147 58 q 332 17 247 17 q 390 19 360 17 q 450 25 421 21 q 503 35 479 29 q 540 47 528 40 l 540 36 q 533 19 540 26 q 497 6 525 13 q 419 -6 463 -1 q 332 -10 376 -10 m 193 639 l 301 782 l 325 782 l 433 639 l 410 639 l 313 756 l 217 639 l 193 639 z "},"ế":{"ha":606,"x_min":71,"x_max":617,"o":"m 332 -10 q 211 2 261 -10 q 130 45 161 14 q 85 133 99 76 q 71 278 71 189 q 92 437 71 374 q 171 531 114 500 q 331 563 228 563 q 458 539 410 563 q 529 465 507 515 q 551 335 551 414 l 551 272 l 156 272 q 161 289 156 282 q 181 296 167 296 l 522 296 l 521 342 q 475 490 518 444 q 331 536 432 536 q 194 510 244 536 q 124 427 144 483 q 103 278 103 371 q 125 115 103 171 q 197 38 147 58 q 332 17 247 17 q 390 19 360 17 q 450 25 421 21 q 503 35 479 29 q 540 47 528 40 l 540 36 q 533 19 540 26 q 497 6 525 13 q 419 -6 463 -1 q 332 -10 376 -10 m 193 639 l 301 782 l 325 782 l 433 639 l 410 639 l 313 756 l 217 639 l 193 639 m 457 735 l 592 878 l 617 851 l 478 735 l 457 735 z "},"ệ":{"ha":606,"x_min":71,"x_max":551,"o":"m 332 -10 q 211 2 261 -10 q 130 45 161 14 q 85 133 99 76 q 71 278 71 189 q 92 437 71 374 q 171 531 114 500 q 331 563 228 563 q 458 539 410 563 q 529 465 507 515 q 551 335 551 414 l 551 272 l 156 272 q 161 289 156 282 q 181 296 167 296 l 522 296 l 521 342 q 475 490 518 444 q 331 536 432 536 q 194 510 244 536 q 124 427 144 483 q 103 278 103 371 q 125 115 103 171 q 197 38 147 58 q 332 17 247 17 q 390 19 360 17 q 450 25 421 21 q 503 35 479 29 q 540 47 528 40 l 540 36 q 533 19 540 26 q 497 6 525 13 q 419 -6 463 -1 q 332 -10 376 -10 m 315 -151 q 303 -150 310 -151 q 292 -144 297 -149 q 288 -129 288 -139 q 296 -110 288 -114 q 314 -106 304 -106 q 333 -109 325 -106 q 340 -129 340 -112 q 336 -144 340 -139 q 326 -150 332 -149 q 315 -151 321 -151 m 193 639 l 301 782 l 325 782 l 433 639 l 410 639 l 313 756 l 217 639 l 193 639 z "},"ề":{"ha":606,"x_min":71,"x_max":551,"o":"m 332 -10 q 211 2 261 -10 q 130 45 161 14 q 85 133 99 76 q 71 278 71 189 q 92 437 71 374 q 171 531 114 500 q 331 563 228 563 q 458 539 410 563 q 529 465 507 515 q 551 335 551 414 l 551 272 l 156 272 q 161 289 156 282 q 181 296 167 296 l 522 296 l 521 342 q 475 490 518 444 q 331 536 432 536 q 194 510 244 536 q 124 427 144 483 q 103 278 103 371 q 125 115 103 171 q 197 38 147 58 q 332 17 247 17 q 390 19 360 17 q 450 25 421 21 q 503 35 479 29 q 540 47 528 40 l 540 36 q 533 19 540 26 q 497 6 525 13 q 419 -6 463 -1 q 332 -10 376 -10 m 193 639 l 301 782 l 325 782 l 433 639 l 410 639 l 313 756 l 217 639 l 193 639 m 481 735 l 343 851 l 367 878 l 503 735 l 481 735 z "},"ể":{"ha":606,"x_min":71,"x_max":564,"o":"m 332 -10 q 211 2 261 -10 q 130 45 161 14 q 85 133 99 76 q 71 278 71 189 q 92 437 71 374 q 171 531 114 500 q 331 563 228 563 q 458 539 410 563 q 529 465 507 515 q 551 335 551 414 l 551 272 l 156 272 q 161 289 156 282 q 181 296 167 296 l 522 296 l 521 342 q 475 490 518 444 q 331 536 432 536 q 194 510 244 536 q 124 427 144 483 q 103 278 103 371 q 125 115 103 171 q 197 38 147 58 q 332 17 247 17 q 390 19 360 17 q 450 25 421 21 q 503 35 479 29 q 540 47 528 40 l 540 36 q 533 19 540 26 q 497 6 525 13 q 419 -6 463 -1 q 332 -10 376 -10 m 193 639 l 301 782 l 325 782 l 433 639 l 410 639 l 313 756 l 217 639 l 193 639 m 475 728 l 475 740 q 490 763 475 754 q 521 785 506 772 q 536 818 536 797 l 536 821 q 526 861 536 851 q 485 871 517 871 q 447 859 456 871 q 433 833 438 847 l 415 839 q 486 892 426 892 q 545 878 526 892 q 564 822 564 865 l 564 819 q 547 779 564 793 q 512 756 529 765 q 494 732 494 747 l 494 728 l 475 728 z "},"ễ":{"ha":606,"x_min":71,"x_max":551,"o":"m 332 -10 q 211 2 261 -10 q 130 45 161 14 q 85 133 99 76 q 71 278 71 189 q 92 437 71 374 q 171 531 114 500 q 331 563 228 563 q 458 539 410 563 q 529 465 507 515 q 551 335 551 414 l 551 272 l 156 272 q 161 289 156 282 q 181 296 167 296 l 522 296 l 521 342 q 475 490 518 444 q 331 536 432 536 q 194 510 244 536 q 124 427 144 483 q 103 278 103 371 q 125 115 103 171 q 197 38 147 58 q 332 17 247 17 q 390 19 360 17 q 450 25 421 21 q 503 35 479 29 q 540 47 528 40 l 540 36 q 533 19 540 26 q 497 6 525 13 q 419 -6 463 -1 q 332 -10 376 -10 m 193 639 l 301 782 l 325 782 l 433 639 l 410 639 l 313 756 l 217 639 l 193 639 m 372 825 q 329 837 350 825 q 287 860 308 849 q 244 872 265 872 q 212 857 222 872 q 196 831 201 842 l 178 840 q 185 856 181 846 q 197 876 189 865 q 217 893 206 886 q 247 900 229 900 q 290 888 269 900 q 331 863 311 875 q 371 851 351 851 q 412 868 399 851 q 429 894 425 885 l 447 885 q 440 869 444 879 q 426 849 435 860 q 403 832 417 839 q 372 825 390 825 z "},"ȅ":{"ha":606,"x_min":71,"x_max":551,"o":"m 332 -10 q 211 2 261 -10 q 130 45 161 14 q 85 133 99 76 q 71 278 71 189 q 92 437 71 374 q 171 531 114 500 q 331 563 228 563 q 458 539 410 563 q 529 465 507 515 q 551 335 551 414 l 551 272 l 156 272 q 161 289 156 282 q 181 296 167 296 l 522 296 l 521 342 q 475 490 518 444 q 331 536 432 536 q 194 510 244 536 q 124 427 144 483 q 103 278 103 371 q 125 115 103 171 q 197 38 147 58 q 332 17 247 17 q 390 19 360 17 q 450 25 421 21 q 503 35 479 29 q 540 47 528 40 l 540 36 q 533 19 540 26 q 497 6 525 13 q 419 -6 463 -1 q 332 -10 376 -10 m 272 638 l 150 757 l 181 781 l 293 638 l 272 638 m 375 638 l 269 769 l 299 790 l 396 638 l 375 638 z "}}}
